<?xml version="1.0" standalone="no"?>
<!DOCTYPE svg PUBLIC "-//W3C//DTD SVG 1.1//EN" "http://www.w3.org/Graphics/SVG/1.1/DTD/svg11.dtd" >
<svg xmlns="http://www.w3.org/2000/svg">
<metadata></metadata>
<defs>
<font id="another_shabbyregular" horiz-adv-x="1713" >
<font-face units-per-em="2048" ascent="1638" descent="-410" />
<missing-glyph horiz-adv-x="641" />
<glyph horiz-adv-x="2048" />
<glyph horiz-adv-x="2048" />
<glyph unicode="&#xd;" horiz-adv-x="2048" />
<glyph unicode=" "  horiz-adv-x="641" />
<glyph unicode="&#x09;" horiz-adv-x="641" />
<glyph unicode="&#xa0;" horiz-adv-x="641" />
<glyph unicode="!" horiz-adv-x="836" d="M23.5 35.5q-6.5 35.5 20.5 81.5q36 61 69 96t77 35q5 0 14.5 -1.5t19.5 -4.5t20.5 -7t16.5 -8q13 -22 26 -39.5t23.5 -36t16 -38.5t5.5 -45q0 -9 -11 -30t-29 -44.5t-40.5 -46.5t-45.5 -39q-42 8 -83 24.5t-67 42t-32.5 61zM259 379q0 17 12.5 66.5t34 119t50.5 154 t62 171.5t67.5 171.5t68.5 155t64.5 121t55.5 69.5q12 10 45.5 8t70.5 -17t72.5 -42.5t52.5 -68.5q-60 -147 -115 -279t-115.5 -254.5t-133.5 -238t-169 -228.5q-14 11 -35 24t-40.5 25t-33.5 23.5t-14 19.5z" />
<glyph unicode="&#x22;" horiz-adv-x="773" d="M237 940q-9 11 0 45q33 121 62 241t60 240q4 18 13.5 35t22 29.5t27.5 20.5t33 8q25 0 48 -16.5t41.5 -39t29.5 -44.5t11 -33q-1 -29 -16.5 -66t-38.5 -78.5t-51.5 -85t-57 -83.5t-53.5 -74t-41 -59q-11 -16 -30 -30t-35 -17.5t-25 7.5zM519 1024q17 88 41.5 176 t55.5 171q14 38 32.5 56.5t42.5 18.5q15 0 41.5 -13.5t51.5 -32t43.5 -38.5t17.5 -34q0 -11 -6 -25t-18 -34q-40 -68 -79 -135t-79 -133q-23 -37 -52 -56.5t-52.5 -19t-36.5 24t-3 74.5z" />
<glyph unicode="#" d="M125 431v6.5t1 5.5q2 8 2 14q2 3 3.5 5.5t3.5 5.5q2 2 3.5 5t3.5 5l4 -4q2 -1 3.5 -2t2.5 -1q1 -3 1 -7v-4t-2 -3q-4 -5 -5 -12q-1 -5 -1 -13t3 -17q3 -4 6 -7.5t5 -6.5q5 -5 14 -7q7 -4 17 -3q6 0 13 3l4 2t4 3t4.5 3t4.5 5q1 2 2.5 4t3.5 4q0 4 1 6.5t2 5.5q1 4 1 11 q-1 3 -1.5 7t-2.5 8q0 3 -5 10l-18 -1v-5v-5q0 -2 -3 -6q-1 -1 -1.5 -2t-2.5 -2t-7 -1h-6l-3 38l51 3q2 -2 5 -4t4 -4q2 -2 3.5 -5t1.5 -5q1 -7 4 -12q0 -3 0.5 -6.5t0.5 -5.5q0 -8 -0.5 -14t-3.5 -11q-1 -7 -4 -12.5t-8 -10.5q-7 -9 -19 -13q-11 -7 -22 -7h-19 q-4 2 -7.5 3.5t-7.5 3.5q-4 1 -6.5 3t-6.5 4l-6 6t-5 7q-2 2 -3.5 6t-3.5 8q-1 5 -1.5 9t-1.5 9zM125 506l8 77l20 -1l-7 -58l31 -4l5 47l21 -1l-5 -47l31 -3l5 58l21 -3l-9 -77zM135 597l23 91l19 -5l-10 -38l99 -23l-4 -19l-99 25l-10 -36zM177 740l42 84l17 -8l-16 -33 l91 -46l-8 -17l-92 46l-16 -35zM205 160l46 -80l23 14l-25 46l84 -10q2 0 6 1q2 0 2.5 0.5t2.5 0.5l11 8l-46 79l-23 -14l26 -45l-84 9q-2 0 -5.5 -0.5t-7.5 -3.5zM229 844l12 15l41 -30l35 49l-41 30l12 17l98 -73l-11 -16l-41 30l-36 -48l42 -31l-11 -15zM270 53l53 -59 l19 18l-33 38l18 11l23 -31l23 19l-28 31l14 11l32 -40l22 19l-51 61zM298 471q0 -105 40.5 -200.5t111 -167.5t167.5 -115t209 -43q36 0 72 5.5t70 15.5q80 24 150 70t122 111.5t82.5 147.5t30.5 176q0 103 -39.5 199t-109.5 169t-167 117t-211 44q-106 0 -202 -40 t-168 -111.5t-115 -168t-43 -209.5zM311 949l55 55l14 -16l-40 -40l20 -21l34 31l14 -14l-33 -31l21 -23l42 40l14 -16l-56 -53zM344 471q0 96 36 183.5t100.5 155t153 106.5t192.5 39q69 0 127 -17q74 -19 138.5 -61t113 -102.5t77 -137.5t28.5 -166q0 -100 -38 -188.5 t-104 -155t-154.5 -104t-187.5 -37.5q-102 0 -190 39.5t-153 106t-102 154.5t-37 185zM369 -50l20 -19l62 71l23 -21l18 20l-71 60l-21 -21l28 -22zM390 471q0 -84 29.5 -158.5t79.5 -134.5l568 570h-578q-47 -56 -73 -125.5t-26 -151.5zM412 -90l16 -9q0 -1 2 -1h3 q2 0 2.5 -0.5t2.5 0.5h5q3 0 4 1l12 9l40 -23l-2 -15v-5q0 -2 1 -3q0 -1 1 -1v-3q0 -2 2 -2l4 -3l16 -11l18 128l-23 14zM427 1048l65 41l9 -17l-47 -31l17 -26l40 25l10 -17l-40 -25l25 -43l-14 -11zM484 -74l17 15h2q2 0 2 1v1v1h1q1 1 2 1l-3 -2v-2v-3l-2 -23zM511 1100 l18 8l31 -68q0 -7 6 -10q1 -3 9 -7q2 -1 5.5 -1h5.5q6 -1 11 1q7 3 10 7q5 5 6 10q1 2 1 11q0 7 -1 11l-27 68l17 9l30 -70q1 -5 1.5 -9t0.5 -9q0 -10 -3 -20q-2 -4 -4.5 -7.5t-7.5 -6.5q-2 -5 -6 -7t-9 -4t-9.5 -3.5t-9.5 -1.5q-8 0 -19 5q-5 2 -8.5 4t-6.5 6q-7 7 -10 16z M534 797h579q-55 51 -129 81t-158 30q-85 0 -159 -29.5t-133 -81.5zM536 146q58 -50 131.5 -80.5t158.5 -30.5q84 0 159 30.5t134 80.5h-583zM539 -161l26 -12l16 42l39 -15l10 26l-38 15l6 18l49 -18l8 25l-73 27zM585 194h577q46 56 72 126.5t26 150.5q0 82 -27.5 153.5 t-82.5 142.5zM633 1146l20 5l23 -99l50 11l4 -21l-67 -15zM639 -137v-19l3 -15l6 -13l11 -12q3 -4 7.5 -5.5t6.5 -3.5q7 -4 15 -4q5 -1 8.5 -1h8.5t13 2q4 2 8.5 3t6.5 4q6 2 12 11l9 11q4 7 7 17v16q0 3 -1 6.5t-3 8.5q-1 5 -2.5 7.5t-3.5 6.5l-10 12q-3 3 -6.5 5t-7.5 4 t-7 2.5t-8 2.5q-5 1 -9 1h-8q-10 0 -14 -4q-4 -1 -7.5 -2t-7.5 -4l-12 -11q-4 -8 -10 -11q-2 -5 -3.5 -8.5t-1.5 -6.5zM670 -142q0 6 5 11l6 9l13 5h12l12 -5l9 -9q2 -3 3.5 -5t1.5 -6q2 -9 0 -15q0 -3 -1.5 -6.5t-3.5 -5.5q-3 -4 -4.5 -5.5l-4.5 -4.5q-3 -1 -5.5 -2 t-6.5 -1q-6 -3 -12 0q-4 0 -7.5 1t-5.5 2l-8 10q-2 2 -2.5 5.5t-0.5 6.5q-3 5 0 15zM721 1164l20 2l11 -100l52 5v-20l-71 -9zM769 -102l3 -122l28 1v81l52 -81h26v121h-31l4 -77q-1 0 -1 4q0 1 -1.5 1t-1.5 1q0 4 -1 4l-42 61q0 1 -2 3q-2 3 -9 3h-10h-14zM850 1051l12 120 l45 -5q6 0 15 -4q9 -5 11 -10q4 -3 7 -13q3 -7 2 -15q-2 -4 -2.5 -7.5t-2.5 -8.5q-6 -8 -9 -11q-4 -3 -15 -7q-3 -1 -13 -1l-26 3l-5 -44zM876 1110l25 -2h7q3 1 7 6q3 0 4 5q2 1 4 7q0 5 -1 8q-1 2 -2 3.5t-1 2.5q-2 2 -3.5 3t-3.5 2t-3.5 1t-2.5 1l-25 3zM888 -101l4 -27 l35 6l16 -91l27 5l-17 91l32 6l-5 26zM939 1040l32 116l44 -11q6 0 12 -6q5 -4 9 -11q4 -5 4 -13q1 -5 0.5 -8t-0.5 -7q-2 -5 -5 -10t-6 -8q-7 -5 -10 -5q-2 -2 -4.5 -2.5t-4.5 -1.5l22 -58l-15 2q-2 1 -3.5 2.5t-3.5 2.5q-3 1 -5 8l-20 47l-14 4l-13 -46zM976 1100l24 -6 q2 0 3.5 -0.5t3.5 0.5q2 0 3.5 0.5t3.5 0.5t2 1.5t1 2.5q4 4 4 6q1 3 1 7q-1 2 -1 3.5t-1 3.5q-1 1 -2.5 1.5t-1.5 2.5q-3 3 -6 3l-25 6zM996 -99v-5.5t2 -7.5q3 -8 11 -13q1 -1 3.5 -2.5t4.5 -3.5q3 0 6.5 -1t5.5 -1h13h10h2q2 0 4 -2q3 0 3 -2h3v-5q0 -2 -0.5 -3t-0.5 -2 v-1q-2 0 -3 -3t-2 -3q-2 -2 -6 -2q0 -1 -2 -1h-3q-2 0 -3.5 0.5t-3.5 0.5h-6h-8l-4 -2q-1 0 -1 -1.5t-1 -1.5l-5 -8q1 -4 3 -5.5t4 -4.5q3 -1 6.5 -2t6.5 -1q8 -3 13 -2q3 0 7 1t8 1q3 2 6.5 3.5t7.5 4.5q4 4 5.5 6t4.5 7q1 4 3.5 7t2.5 9q0 4 -0.5 7.5t-3.5 6.5q-1 8 -6 11 q-2 6 -9 8l-11 6h-15h-8h-9h-2v1q-3 3 -3 4l-2 1q2 1 2 4q0 1 1 1h2q0 1 5 1v3h1h5h3q4 0 5 1q4 0 8 1q0 2 1 3t1 2l5 10l-7 3q-8 4 -13 4q-2 0 -4.5 1t-4.5 1q-4 0 -6 -1t-4 -1l-13 -7q-2 -2 -4 -4.5t-3 -6.5q-7 -6 -8 -14zM1040 1038v13q1 11 7 22q1 4 3.5 7.5t5.5 6.5 q2 3 5 6t6 5q3 3 6.5 4t8.5 3q4 3 15 3h15q9 -1 17 -6q7 -3 15 -8q3 -4 5.5 -7.5t4.5 -5.5q2 -3 3.5 -6.5t3.5 -7.5q1 -4 2 -7.5t1 -7.5v-8t-2 -9q-1 -4 -1.5 -7.5t-3.5 -7.5l-3.5 -7l-3.5 -7q-4 -3 -7 -5.5t-5 -6.5q-4 -2 -7.5 -4t-7.5 -4q-6 0 -16 -2q-12 0 -17 1t-16 5 q-11 6 -18 16q-8 9 -14 21q-2 6 -2 11zM1059 1043q0 -2 1 -5t2 -5q1 -6 4 -10q2 -2 3.5 -4t3.5 -3q3 -4 9 -6q7 -4 12 -4h11q7 0 12 1q4 4 8 4q3 2 5.5 4t4.5 3q2 3 3 5.5t3 4.5q2 4 2.5 8t1.5 10q0 4 -0.5 7.5t-0.5 7.5q-2 4 -4.5 7.5t-4.5 5.5q-7 7 -15 10q-2 2 -5 2.5 t-6 2.5h-10q-7 0 -10 -3q-4 -2 -6.5 -2.5t-4.5 -1.5l-4 -4t-3 -4q-7 -5 -7 -8q-2 -3 -2.5 -6t-2.5 -6v-11zM1107 -135v-2q0 -3 1 -4q0 -1 1 -1q0 -6 3 -6q2 -5 7 -6h6q5 0 8 2q1 2 3 3t2 3v2q0 2 2 2l3 3v2q0 6 -5 6q0 6 -3 6q-2 3 -5 3q-2 0 -3.5 1t-3.5 1q-1 -2 -6 -2 l-7 -4q-1 -1 -1 -3v-2q-2 -2 -2 -4zM1119 -43v-16q0 -4 1.5 -7.5t1.5 -7.5l6 -15q3 -4 6.5 -6t5.5 -5l14 -11l12 -2q5 -2 17 -2q4 0 7 1t7 2q5 1 8.5 4t6.5 6q2 1 5.5 2.5t5.5 4.5q3 1 5 4t5 6l4 14q4 4 4 14l-12 2h-6l-8 -4q-2 0 -3 -3t-1 -5l-5 -9l-9 -6q-4 -2 -6 -3.5 t-5 -1.5q-7 -3 -14 0q-2 2 -5 2.5t-6 2.5q-6 4 -7 11q-5 2 -5 12q-4 3 0 14q0 2 0.5 4t1.5 7l4 4t5 3q7 4 9 4q3 1 11 1q2 0 10 5q2 3 5 5l2 6v9q-3 4 -12 4h-14l-14 -5l-11 -5q-2 -2 -5.5 -4.5t-6.5 -6.5q-2 -2 -4.5 -6t-4.5 -8zM1196 913l41 127l9 -8q1 -2 2 -3.5t3 -3.5 q0 -5 -2 -8l-27 -88l84 39q1 1 8 1q4 0 6 -3l10 -9l-120 -55zM1206 11q0 -4 2 -8l4 -14l11 -13l14 -10q4 -1 7 -3.5t8 -2.5q4 0 8 -1.5t8 -1.5q2 0 6 1.5t9 1.5q2 0 5.5 2.5t7.5 3.5q7 3 14 10l10 13q1 2 3 5.5t2 8.5q1 4 1 14v17l-6 12q-2 4 -4 7.5t-4 6.5l-14 14l-15 3 q-4 3 -15 3q-4 0 -8 -0.5t-8 -2.5l-13 -3q-4 -3 -8 -7l-7 -7l-4 -6t-5 -5q-3 -4 -4 -7.5t-3 -7.5q0 -4 -1 -7.5t-1 -8.5v-7zM1236 18q0 8 1 12q3 8 7 12l11 8q3 0 6.5 0.5t6.5 0.5q4 0 12 -2q2 -2 4.5 -3.5t5.5 -5.5q3 -1 4.5 -4t3.5 -6t2 -13v-5.5t-2 -5.5q-4 -9 -8 -10 q-7 -7 -10 -8q-3 -2 -6.5 -2h-5.5q-4 0 -7.5 1t-5.5 1l-11 8q-4 4 -7 11q-1 4 -1 11zM1247 866l92 78l50 -57l-15 -15l-38 46l-22 -20l28 -37l-16 -11l-28 36l-24 -22l36 -43l-16 -12zM1268 100l98 -66l16 22l-47 34l62 -13l11 20l-34 51l48 -30l16 24l-101 66l-12 -18 q-1 -2 -2.5 -4t-1.5 -6q0 -2 1.5 -4t2.5 -4l41 -59l-71 10h-10l-9 -6zM1300 800l104 62l23 -38q2 -3 3 -6t3 -8q2 -7 -2 -12q-2 -9 -6 -14l-4.5 -4.5t-6.5 -5.5q-3 -1 -5 -1.5t-5 -1.5q-3 0 -5 -1t-5 1q-4 0 -11 2q-3 1 -5 2t-4 3l-23 -60l-10 13q-4 2 -4 7q0 7 3 10l21 49 l-8 12l-43 -26zM1355 705q0 3 2 13q0 3 3 5l2 4q0 4 2 4q4 2 3 2l4 -2q3 -5 5 -6q0 -2 0.5 -3t0.5 -2q0 -4 -3 -7v-1v-7q0 -5 2 -10q0 -1 1 -2.5t2 -3.5q2 -1 3.5 -2.5t3.5 -2.5q1 -1 3 -1t4 -2h4.5t4.5 2q2 0 5 3q2 4 2 5q1 3 1 8v8v4v12q0 8 2 13q1 2 2.5 4.5t3.5 5.5 q3 2 5 4t7 4q8 3 14 2q6 0 12 -4q3 -2 6.5 -4t5.5 -6q3 -3 7 -11q2 -6 2 -10q0 -6 -1 -10q0 -4 -3 -11q-1 -2 -1.5 -4t-2.5 -4l-6 4q-3 1 -4 2.5t-3 3.5q-1 3 -1.5 5t0.5 5q1 1 1 8q0 3 -1 5q-2 2 -2 6q-3 0 -5 4q-2 1 -5 1q-3 1 -5 0t-2.5 -2t-1.5 -2t-2 -1.5t-2 -2.5v-7 v-10v-3v-2v-11q0 -2 -1 -4.5t-1 -4.5q-4 -14 -19 -21q-4 -2 -7.5 -3.5t-8.5 1.5q-6 0 -15 2q-3 3 -6.5 5t-5.5 6q-3 2 -5 5.5t-4 7.5q-2 10 -2 16zM1369 818l13 -19q3 -5 4 -6q1 0 7 -3h6q2 0 5 3q2 0 6 4q0 2 1 3t1 3q1 1 1 6q-1 1 -1 2.5t-2 3.5l-11 20zM1376 640l117 35 l5 -20l-117 -33zM1394 552q-1 13 1 25q5 12 10 20q7 9 18 16q5 3 11.5 6t11.5 3h19q6 0 15 -5q4 -1 7.5 -3.5t5.5 -4.5q3 -2 6.5 -4.5t5.5 -6.5q4 -8 8 -12q2 -8 5 -19v-15q-2 -10 -5 -15q-2 -5 -4 -9t-4 -7l-10 -10q-4 -4 -7.5 -5t-6.5 -3q-7 -4 -16 -4q-10 -1 -19 0 q-8 0 -15 4q-2 2 -6 3t-8 4q-3 2 -5.5 5.5t-4.5 5.5q-6 5 -8 16q-2 3 -3.5 6.5t-1.5 8.5zM1395 380l2 16l98 62l-93 6l1 19l121 -9l-1 -12q0 -5 -1 -8q-3 -3 -4 -5l-83 -53l84 -6l-2 -19zM1413 555q2 -8 4 -11q0 -6 5 -9q1 -3 3 -5.5t3 -4.5q3 -1 5.5 -2.5t5.5 -2.5 q2 -2 5 -2h5q5 -3 11 0q11 0 18 5q5 2 12 12q6 8 6 15q3 7 1 16q0 6 -2 11q-2 3 -3 5l-2 4l-4 4t-4 3q-5 4 -11 5q-3 4 -11 4q-4 2 -11 0q-7 0 -10 -4q-5 -1 -11 -5q-4 -1 -6 -7q-5 -5 -5 -9q-2 -2 -2.5 -5.5t-1.5 -5.5v-11z" />
<glyph unicode="$" d="M125 431v6.5t1 5.5q2 8 2 14q2 3 3.5 5.5t3.5 5.5q2 2 3.5 5t3.5 5l4 -4q2 -1 3.5 -2t2.5 -1q1 -3 1 -7v-4t-2 -3q-4 -5 -5 -12q-1 -5 -1 -13t3 -17q3 -4 6 -7.5t5 -6.5q5 -5 14 -7q7 -4 17 -3q6 0 13 3l4 2t4 3t4.5 3t4.5 5q1 2 2.5 4t3.5 4q0 4 1 6.5t2 5.5q1 4 1 11 q-1 3 -1.5 7t-2.5 8q0 3 -5 10l-18 -1v-5v-5q0 -2 -3 -6q-1 -1 -1.5 -2t-2.5 -2t-7 -1h-6l-3 38l51 3q2 -2 5 -4t4 -4q2 -2 3.5 -5t1.5 -5q1 -7 4 -12q0 -3 0.5 -6.5t0.5 -5.5q0 -8 -0.5 -14t-3.5 -11q-1 -7 -4 -12.5t-8 -10.5q-7 -9 -19 -13q-11 -7 -22 -7h-19 q-4 2 -7.5 3.5t-7.5 3.5q-4 1 -6.5 3t-6.5 4l-6 6t-5 7q-2 2 -3.5 6t-3.5 8q-1 5 -1.5 9t-1.5 9zM125 506l8 77l20 -1l-7 -58l31 -4l5 47l21 -1l-5 -47l31 -3l5 58l21 -3l-9 -77zM135 597l23 91l19 -5l-10 -38l99 -23l-4 -19l-99 25l-10 -36zM177 740l42 84l17 -8l-16 -33 l91 -46l-8 -17l-92 46l-16 -35zM205 160l46 -80l23 14l-25 46l84 -10q2 0 6 1q2 0 2.5 0.5t2.5 0.5l11 8l-46 79l-23 -14l26 -45l-84 9q-2 0 -5.5 -0.5t-7.5 -3.5zM229 844l12 15l41 -30l35 49l-41 30l12 17l98 -73l-11 -16l-41 30l-36 -48l42 -31l-11 -15zM270 53l53 -59 l19 18l-33 38l18 11l23 -31l23 19l-28 31l14 11l32 -40l22 19l-51 61zM298 471q0 -105 40.5 -200.5t111 -167.5t167.5 -115t209 -43q36 0 72 5.5t70 15.5q80 24 150 70t122 111.5t82.5 147.5t30.5 176q0 103 -39.5 199t-109.5 169t-167 117t-211 44q-106 0 -202 -40 t-168 -111.5t-115 -168t-43 -209.5zM311 949l55 55l14 -16l-40 -40l20 -21l34 31l14 -14l-33 -31l21 -23l42 40l14 -16l-56 -53zM344 471q0 96 36 183.5t100.5 155t153 106.5t192.5 39q69 0 127 -17q74 -19 138.5 -61t113 -102.5t77 -137.5t28.5 -166q0 -100 -38 -188.5 t-104 -155t-154.5 -104t-187.5 -37.5q-102 0 -190 39.5t-153 106t-102 154.5t-37 185zM369 -50l20 -19l62 71l23 -21l18 20l-71 60l-21 -21l28 -22zM390 471q0 -84 29.5 -158.5t79.5 -134.5l568 570h-578q-47 -56 -73 -125.5t-26 -151.5zM412 -90l16 -9q0 -1 2 -1h3 q2 0 2.5 -0.5t2.5 0.5h5q3 0 4 1l12 9l40 -23l-2 -15v-5q0 -2 1 -3q0 -1 1 -1v-3q0 -2 2 -2l4 -3l16 -11l18 128l-23 14zM427 1048l65 41l9 -17l-47 -31l17 -26l40 25l10 -17l-40 -25l25 -43l-14 -11zM484 -74l17 15h2q2 0 2 1v1v1h1q1 1 2 1l-3 -2v-2v-3l-2 -23zM511 1100 l18 8l31 -68q0 -7 6 -10q1 -3 9 -7q2 -1 5.5 -1h5.5q6 -1 11 1q7 3 10 7q5 5 6 10q1 2 1 11q0 7 -1 11l-27 68l17 9l30 -70q1 -5 1.5 -9t0.5 -9q0 -10 -3 -20q-2 -4 -4.5 -7.5t-7.5 -6.5q-2 -5 -6 -7t-9 -4t-9.5 -3.5t-9.5 -1.5q-8 0 -19 5q-5 2 -8.5 4t-6.5 6q-7 7 -10 16z M534 797h579q-55 51 -129 81t-158 30q-85 0 -159 -29.5t-133 -81.5zM536 146q58 -50 131.5 -80.5t158.5 -30.5q84 0 159 30.5t134 80.5h-583zM539 -161l26 -12l16 42l39 -15l10 26l-38 15l6 18l49 -18l8 25l-73 27zM585 194h577q46 56 72 126.5t26 150.5q0 82 -27.5 153.5 t-82.5 142.5zM633 1146l20 5l23 -99l50 11l4 -21l-67 -15zM639 -137v-19l3 -15l6 -13l11 -12q3 -4 7.5 -5.5t6.5 -3.5q7 -4 15 -4q5 -1 8.5 -1h8.5t13 2q4 2 8.5 3t6.5 4q6 2 12 11l9 11q4 7 7 17v16q0 3 -1 6.5t-3 8.5q-1 5 -2.5 7.5t-3.5 6.5l-10 12q-3 3 -6.5 5t-7.5 4 t-7 2.5t-8 2.5q-5 1 -9 1h-8q-10 0 -14 -4q-4 -1 -7.5 -2t-7.5 -4l-12 -11q-4 -8 -10 -11q-2 -5 -3.5 -8.5t-1.5 -6.5zM670 -142q0 6 5 11l6 9l13 5h12l12 -5l9 -9q2 -3 3.5 -5t1.5 -6q2 -9 0 -15q0 -3 -1.5 -6.5t-3.5 -5.5q-3 -4 -4.5 -5.5l-4.5 -4.5q-3 -1 -5.5 -2 t-6.5 -1q-6 -3 -12 0q-4 0 -7.5 1t-5.5 2l-8 10q-2 2 -2.5 5.5t-0.5 6.5q-3 5 0 15zM721 1164l20 2l11 -100l52 5v-20l-71 -9zM769 -102l3 -122l28 1v81l52 -81h26v121h-31l4 -77q-1 0 -1 4q0 1 -1.5 1t-1.5 1q0 4 -1 4l-42 61q0 1 -2 3q-2 3 -9 3h-10h-14zM850 1051l12 120 l45 -5q6 0 15 -4q9 -5 11 -10q4 -3 7 -13q3 -7 2 -15q-2 -4 -2.5 -7.5t-2.5 -8.5q-6 -8 -9 -11q-4 -3 -15 -7q-3 -1 -13 -1l-26 3l-5 -44zM876 1110l25 -2h7q3 1 7 6q3 0 4 5q2 1 4 7q0 5 -1 8q-1 2 -2 3.5t-1 2.5q-2 2 -3.5 3t-3.5 2t-3.5 1t-2.5 1l-25 3zM888 -101l4 -27 l35 6l16 -91l27 5l-17 91l32 6l-5 26zM939 1040l32 116l44 -11q6 0 12 -6q5 -4 9 -11q4 -5 4 -13q1 -5 0.5 -8t-0.5 -7q-2 -5 -5 -10t-6 -8q-7 -5 -10 -5q-2 -2 -4.5 -2.5t-4.5 -1.5l22 -58l-15 2q-2 1 -3.5 2.5t-3.5 2.5q-3 1 -5 8l-20 47l-14 4l-13 -46zM976 1100l24 -6 q2 0 3.5 -0.5t3.5 0.5q2 0 3.5 0.5t3.5 0.5t2 1.5t1 2.5q4 4 4 6q1 3 1 7q-1 2 -1 3.5t-1 3.5q-1 1 -2.5 1.5t-1.5 2.5q-3 3 -6 3l-25 6zM996 -99v-5.5t2 -7.5q3 -8 11 -13q1 -1 3.5 -2.5t4.5 -3.5q3 0 6.5 -1t5.5 -1h13h10h2q2 0 4 -2q3 0 3 -2h3v-5q0 -2 -0.5 -3t-0.5 -2 v-1q-2 0 -3 -3t-2 -3q-2 -2 -6 -2q0 -1 -2 -1h-3q-2 0 -3.5 0.5t-3.5 0.5h-6h-8l-4 -2q-1 0 -1 -1.5t-1 -1.5l-5 -8q1 -4 3 -5.5t4 -4.5q3 -1 6.5 -2t6.5 -1q8 -3 13 -2q3 0 7 1t8 1q3 2 6.5 3.5t7.5 4.5q4 4 5.5 6t4.5 7q1 4 3.5 7t2.5 9q0 4 -0.5 7.5t-3.5 6.5q-1 8 -6 11 q-2 6 -9 8l-11 6h-15h-8h-9h-2v1q-3 3 -3 4l-2 1q2 1 2 4q0 1 1 1h2q0 1 5 1v3h1h5h3q4 0 5 1q4 0 8 1q0 2 1 3t1 2l5 10l-7 3q-8 4 -13 4q-2 0 -4.5 1t-4.5 1q-4 0 -6 -1t-4 -1l-13 -7q-2 -2 -4 -4.5t-3 -6.5q-7 -6 -8 -14zM1040 1038v13q1 11 7 22q1 4 3.5 7.5t5.5 6.5 q2 3 5 6t6 5q3 3 6.5 4t8.5 3q4 3 15 3h15q9 -1 17 -6q7 -3 15 -8q3 -4 5.5 -7.5t4.5 -5.5q2 -3 3.5 -6.5t3.5 -7.5q1 -4 2 -7.5t1 -7.5v-8t-2 -9q-1 -4 -1.5 -7.5t-3.5 -7.5l-3.5 -7l-3.5 -7q-4 -3 -7 -5.5t-5 -6.5q-4 -2 -7.5 -4t-7.5 -4q-6 0 -16 -2q-12 0 -17 1t-16 5 q-11 6 -18 16q-8 9 -14 21q-2 6 -2 11zM1059 1043q0 -2 1 -5t2 -5q1 -6 4 -10q2 -2 3.5 -4t3.5 -3q3 -4 9 -6q7 -4 12 -4h11q7 0 12 1q4 4 8 4q3 2 5.5 4t4.5 3q2 3 3 5.5t3 4.5q2 4 2.5 8t1.5 10q0 4 -0.5 7.5t-0.5 7.5q-2 4 -4.5 7.5t-4.5 5.5q-7 7 -15 10q-2 2 -5 2.5 t-6 2.5h-10q-7 0 -10 -3q-4 -2 -6.5 -2.5t-4.5 -1.5l-4 -4t-3 -4q-7 -5 -7 -8q-2 -3 -2.5 -6t-2.5 -6v-11zM1107 -135v-2q0 -3 1 -4q0 -1 1 -1q0 -6 3 -6q2 -5 7 -6h6q5 0 8 2q1 2 3 3t2 3v2q0 2 2 2l3 3v2q0 6 -5 6q0 6 -3 6q-2 3 -5 3q-2 0 -3.5 1t-3.5 1q-1 -2 -6 -2 l-7 -4q-1 -1 -1 -3v-2q-2 -2 -2 -4zM1119 -43v-16q0 -4 1.5 -7.5t1.5 -7.5l6 -15q3 -4 6.5 -6t5.5 -5l14 -11l12 -2q5 -2 17 -2q4 0 7 1t7 2q5 1 8.5 4t6.5 6q2 1 5.5 2.5t5.5 4.5q3 1 5 4t5 6l4 14q4 4 4 14l-12 2h-6l-8 -4q-2 0 -3 -3t-1 -5l-5 -9l-9 -6q-4 -2 -6 -3.5 t-5 -1.5q-7 -3 -14 0q-2 2 -5 2.5t-6 2.5q-6 4 -7 11q-5 2 -5 12q-4 3 0 14q0 2 0.5 4t1.5 7l4 4t5 3q7 4 9 4q3 1 11 1q2 0 10 5q2 3 5 5l2 6v9q-3 4 -12 4h-14l-14 -5l-11 -5q-2 -2 -5.5 -4.5t-6.5 -6.5q-2 -2 -4.5 -6t-4.5 -8zM1196 913l41 127l9 -8q1 -2 2 -3.5t3 -3.5 q0 -5 -2 -8l-27 -88l84 39q1 1 8 1q4 0 6 -3l10 -9l-120 -55zM1206 11q0 -4 2 -8l4 -14l11 -13l14 -10q4 -1 7 -3.5t8 -2.5q4 0 8 -1.5t8 -1.5q2 0 6 1.5t9 1.5q2 0 5.5 2.5t7.5 3.5q7 3 14 10l10 13q1 2 3 5.5t2 8.5q1 4 1 14v17l-6 12q-2 4 -4 7.5t-4 6.5l-14 14l-15 3 q-4 3 -15 3q-4 0 -8 -0.5t-8 -2.5l-13 -3q-4 -3 -8 -7l-7 -7l-4 -6t-5 -5q-3 -4 -4 -7.5t-3 -7.5q0 -4 -1 -7.5t-1 -8.5v-7zM1236 18q0 8 1 12q3 8 7 12l11 8q3 0 6.5 0.5t6.5 0.5q4 0 12 -2q2 -2 4.5 -3.5t5.5 -5.5q3 -1 4.5 -4t3.5 -6t2 -13v-5.5t-2 -5.5q-4 -9 -8 -10 q-7 -7 -10 -8q-3 -2 -6.5 -2h-5.5q-4 0 -7.5 1t-5.5 1l-11 8q-4 4 -7 11q-1 4 -1 11zM1247 866l92 78l50 -57l-15 -15l-38 46l-22 -20l28 -37l-16 -11l-28 36l-24 -22l36 -43l-16 -12zM1268 100l98 -66l16 22l-47 34l62 -13l11 20l-34 51l48 -30l16 24l-101 66l-12 -18 q-1 -2 -2.5 -4t-1.5 -6q0 -2 1.5 -4t2.5 -4l41 -59l-71 10h-10l-9 -6zM1300 800l104 62l23 -38q2 -3 3 -6t3 -8q2 -7 -2 -12q-2 -9 -6 -14l-4.5 -4.5t-6.5 -5.5q-3 -1 -5 -1.5t-5 -1.5q-3 0 -5 -1t-5 1q-4 0 -11 2q-3 1 -5 2t-4 3l-23 -60l-10 13q-4 2 -4 7q0 7 3 10l21 49 l-8 12l-43 -26zM1355 705q0 3 2 13q0 3 3 5l2 4q0 4 2 4q4 2 3 2l4 -2q3 -5 5 -6q0 -2 0.5 -3t0.5 -2q0 -4 -3 -7v-1v-7q0 -5 2 -10q0 -1 1 -2.5t2 -3.5q2 -1 3.5 -2.5t3.5 -2.5q1 -1 3 -1t4 -2h4.5t4.5 2q2 0 5 3q2 4 2 5q1 3 1 8v8v4v12q0 8 2 13q1 2 2.5 4.5t3.5 5.5 q3 2 5 4t7 4q8 3 14 2q6 0 12 -4q3 -2 6.5 -4t5.5 -6q3 -3 7 -11q2 -6 2 -10q0 -6 -1 -10q0 -4 -3 -11q-1 -2 -1.5 -4t-2.5 -4l-6 4q-3 1 -4 2.5t-3 3.5q-1 3 -1.5 5t0.5 5q1 1 1 8q0 3 -1 5q-2 2 -2 6q-3 0 -5 4q-2 1 -5 1q-3 1 -5 0t-2.5 -2t-1.5 -2t-2 -1.5t-2 -2.5v-7 v-10v-3v-2v-11q0 -2 -1 -4.5t-1 -4.5q-4 -14 -19 -21q-4 -2 -7.5 -3.5t-8.5 1.5q-6 0 -15 2q-3 3 -6.5 5t-5.5 6q-3 2 -5 5.5t-4 7.5q-2 10 -2 16zM1369 818l13 -19q3 -5 4 -6q1 0 7 -3h6q2 0 5 3q2 0 6 4q0 2 1 3t1 3q1 1 1 6q-1 1 -1 2.5t-2 3.5l-11 20zM1376 640l117 35 l5 -20l-117 -33zM1394 552q-1 13 1 25q5 12 10 20q7 9 18 16q5 3 11.5 6t11.5 3h19q6 0 15 -5q4 -1 7.5 -3.5t5.5 -4.5q3 -2 6.5 -4.5t5.5 -6.5q4 -8 8 -12q2 -8 5 -19v-15q-2 -10 -5 -15q-2 -5 -4 -9t-4 -7l-10 -10q-4 -4 -7.5 -5t-6.5 -3q-7 -4 -16 -4q-10 -1 -19 0 q-8 0 -15 4q-2 2 -6 3t-8 4q-3 2 -5.5 5.5t-4.5 5.5q-6 5 -8 16q-2 3 -3.5 6.5t-1.5 8.5zM1395 380l2 16l98 62l-93 6l1 19l121 -9l-1 -12q0 -5 -1 -8q-3 -3 -4 -5l-83 -53l84 -6l-2 -19zM1413 555q2 -8 4 -11q0 -6 5 -9q1 -3 3 -5.5t3 -4.5q3 -1 5.5 -2.5t5.5 -2.5 q2 -2 5 -2h5q5 -3 11 0q11 0 18 5q5 2 12 12q6 8 6 15q3 7 1 16q0 6 -2 11q-2 3 -3 5l-2 4l-4 4t-4 3q-5 4 -11 5q-3 4 -11 4q-4 2 -11 0q-7 0 -10 -4q-5 -1 -11 -5q-4 -1 -6 -7q-5 -5 -5 -9q-2 -2 -2.5 -5.5t-1.5 -5.5v-11z" />
<glyph unicode="%" horiz-adv-x="1556" d="M144 870q0 53 18.5 104.5t50.5 97.5t75 85t91 67t99 44t101 16q46 0 94.5 -16.5t88.5 -45t66 -67.5t26 -85q0 -49 -23.5 -102t-62.5 -103t-90 -95.5t-106.5 -80t-111.5 -54.5t-105 -20t-88 21t-66.5 56t-42 81t-14.5 97zM150 25v9t2 9q5 20 33.5 62.5t74.5 100t106.5 127 t128.5 144t141 149.5t143.5 145.5t136.5 131.5t120.5 106t93.5 70.5t58 25.5q8 0 19.5 -13t24 -32t24.5 -41.5t21.5 -43t15.5 -36t6 -20.5v-3q-62 -53 -140.5 -117.5t-164.5 -136.5t-176.5 -150t-178 -158.5t-168 -160t-146.5 -156.5q-24 -28 -57.5 -42.5t-62.5 -14.5 q-24 0 -39.5 10.5t-15.5 34.5zM372 901q0 -30 27 -46t76 -16q26 0 53.5 19t50.5 46.5t37.5 58.5t14.5 56q0 22 -12 35t-40 13t-63.5 -13t-67.5 -35.5t-54 -52.5t-22 -65zM705 162q0 68 24 128t65.5 111t96 91t116 69t125 45t122.5 18q49 1 81.5 -13.5t51.5 -39t26.5 -57.5 t7.5 -70q0 -51 -14.5 -108.5t-42.5 -113.5t-67.5 -107.5t-88.5 -90.5t-106.5 -62t-120.5 -23q-33 0 -80.5 14t-91 42.5t-74 69.5t-30.5 97zM961 213q0 -27 13.5 -40.5t38.5 -13.5q35 0 67 15t57 41.5t40.5 60.5t15.5 73q0 35 -10.5 60t-30.5 25q-40 0 -75 -26.5t-61 -63 t-40.5 -74t-14.5 -57.5z" />
<glyph unicode="&#x26;" d="M125 431v6.5t1 5.5q2 8 2 14q2 3 3.5 5.5t3.5 5.5q2 2 3.5 5t3.5 5l4 -4q2 -1 3.5 -2t2.5 -1q1 -3 1 -7v-4t-2 -3q-4 -5 -5 -12q-1 -5 -1 -13t3 -17q3 -4 6 -7.5t5 -6.5q5 -5 14 -7q7 -4 17 -3q6 0 13 3l4 2t4 3t4.5 3t4.5 5q1 2 2.5 4t3.5 4q0 4 1 6.5t2 5.5q1 4 1 11 q-1 3 -1.5 7t-2.5 8q0 3 -5 10l-18 -1v-5v-5q0 -2 -3 -6q-1 -1 -1.5 -2t-2.5 -2t-7 -1h-6l-3 38l51 3q2 -2 5 -4t4 -4q2 -2 3.5 -5t1.5 -5q1 -7 4 -12q0 -3 0.5 -6.5t0.5 -5.5q0 -8 -0.5 -14t-3.5 -11q-1 -7 -4 -12.5t-8 -10.5q-7 -9 -19 -13q-11 -7 -22 -7h-19 q-4 2 -7.5 3.5t-7.5 3.5q-4 1 -6.5 3t-6.5 4l-6 6t-5 7q-2 2 -3.5 6t-3.5 8q-1 5 -1.5 9t-1.5 9zM125 506l8 77l20 -1l-7 -58l31 -4l5 47l21 -1l-5 -47l31 -3l5 58l21 -3l-9 -77zM135 597l23 91l19 -5l-10 -38l99 -23l-4 -19l-99 25l-10 -36zM177 740l42 84l17 -8l-16 -33 l91 -46l-8 -17l-92 46l-16 -35zM205 160l46 -80l23 14l-25 46l84 -10q2 0 6 1q2 0 2.5 0.5t2.5 0.5l11 8l-46 79l-23 -14l26 -45l-84 9q-2 0 -5.5 -0.5t-7.5 -3.5zM229 844l12 15l41 -30l35 49l-41 30l12 17l98 -73l-11 -16l-41 30l-36 -48l42 -31l-11 -15zM270 53l53 -59 l19 18l-33 38l18 11l23 -31l23 19l-28 31l14 11l32 -40l22 19l-51 61zM298 471q0 -105 40.5 -200.5t111 -167.5t167.5 -115t209 -43q36 0 72 5.5t70 15.5q80 24 150 70t122 111.5t82.5 147.5t30.5 176q0 103 -39.5 199t-109.5 169t-167 117t-211 44q-106 0 -202 -40 t-168 -111.5t-115 -168t-43 -209.5zM311 949l55 55l14 -16l-40 -40l20 -21l34 31l14 -14l-33 -31l21 -23l42 40l14 -16l-56 -53zM344 471q0 96 36 183.5t100.5 155t153 106.5t192.5 39q69 0 127 -17q74 -19 138.5 -61t113 -102.5t77 -137.5t28.5 -166q0 -100 -38 -188.5 t-104 -155t-154.5 -104t-187.5 -37.5q-102 0 -190 39.5t-153 106t-102 154.5t-37 185zM369 -50l20 -19l62 71l23 -21l18 20l-71 60l-21 -21l28 -22zM390 471q0 -84 29.5 -158.5t79.5 -134.5l568 570h-578q-47 -56 -73 -125.5t-26 -151.5zM412 -90l16 -9q0 -1 2 -1h3 q2 0 2.5 -0.5t2.5 0.5h5q3 0 4 1l12 9l40 -23l-2 -15v-5q0 -2 1 -3q0 -1 1 -1v-3q0 -2 2 -2l4 -3l16 -11l18 128l-23 14zM427 1048l65 41l9 -17l-47 -31l17 -26l40 25l10 -17l-40 -25l25 -43l-14 -11zM484 -74l17 15h2q2 0 2 1v1v1h1q1 1 2 1l-3 -2v-2v-3l-2 -23zM511 1100 l18 8l31 -68q0 -7 6 -10q1 -3 9 -7q2 -1 5.5 -1h5.5q6 -1 11 1q7 3 10 7q5 5 6 10q1 2 1 11q0 7 -1 11l-27 68l17 9l30 -70q1 -5 1.5 -9t0.5 -9q0 -10 -3 -20q-2 -4 -4.5 -7.5t-7.5 -6.5q-2 -5 -6 -7t-9 -4t-9.5 -3.5t-9.5 -1.5q-8 0 -19 5q-5 2 -8.5 4t-6.5 6q-7 7 -10 16z M534 797h579q-55 51 -129 81t-158 30q-85 0 -159 -29.5t-133 -81.5zM536 146q58 -50 131.5 -80.5t158.5 -30.5q84 0 159 30.5t134 80.5h-583zM539 -161l26 -12l16 42l39 -15l10 26l-38 15l6 18l49 -18l8 25l-73 27zM585 194h577q46 56 72 126.5t26 150.5q0 82 -27.5 153.5 t-82.5 142.5zM633 1146l20 5l23 -99l50 11l4 -21l-67 -15zM639 -137v-19l3 -15l6 -13l11 -12q3 -4 7.5 -5.5t6.5 -3.5q7 -4 15 -4q5 -1 8.5 -1h8.5t13 2q4 2 8.5 3t6.5 4q6 2 12 11l9 11q4 7 7 17v16q0 3 -1 6.5t-3 8.5q-1 5 -2.5 7.5t-3.5 6.5l-10 12q-3 3 -6.5 5t-7.5 4 t-7 2.5t-8 2.5q-5 1 -9 1h-8q-10 0 -14 -4q-4 -1 -7.5 -2t-7.5 -4l-12 -11q-4 -8 -10 -11q-2 -5 -3.5 -8.5t-1.5 -6.5zM670 -142q0 6 5 11l6 9l13 5h12l12 -5l9 -9q2 -3 3.5 -5t1.5 -6q2 -9 0 -15q0 -3 -1.5 -6.5t-3.5 -5.5q-3 -4 -4.5 -5.5l-4.5 -4.5q-3 -1 -5.5 -2 t-6.5 -1q-6 -3 -12 0q-4 0 -7.5 1t-5.5 2l-8 10q-2 2 -2.5 5.5t-0.5 6.5q-3 5 0 15zM721 1164l20 2l11 -100l52 5v-20l-71 -9zM769 -102l3 -122l28 1v81l52 -81h26v121h-31l4 -77q-1 0 -1 4q0 1 -1.5 1t-1.5 1q0 4 -1 4l-42 61q0 1 -2 3q-2 3 -9 3h-10h-14zM850 1051l12 120 l45 -5q6 0 15 -4q9 -5 11 -10q4 -3 7 -13q3 -7 2 -15q-2 -4 -2.5 -7.5t-2.5 -8.5q-6 -8 -9 -11q-4 -3 -15 -7q-3 -1 -13 -1l-26 3l-5 -44zM876 1110l25 -2h7q3 1 7 6q3 0 4 5q2 1 4 7q0 5 -1 8q-1 2 -2 3.5t-1 2.5q-2 2 -3.5 3t-3.5 2t-3.5 1t-2.5 1l-25 3zM888 -101l4 -27 l35 6l16 -91l27 5l-17 91l32 6l-5 26zM939 1040l32 116l44 -11q6 0 12 -6q5 -4 9 -11q4 -5 4 -13q1 -5 0.5 -8t-0.5 -7q-2 -5 -5 -10t-6 -8q-7 -5 -10 -5q-2 -2 -4.5 -2.5t-4.5 -1.5l22 -58l-15 2q-2 1 -3.5 2.5t-3.5 2.5q-3 1 -5 8l-20 47l-14 4l-13 -46zM976 1100l24 -6 q2 0 3.5 -0.5t3.5 0.5q2 0 3.5 0.5t3.5 0.5t2 1.5t1 2.5q4 4 4 6q1 3 1 7q-1 2 -1 3.5t-1 3.5q-1 1 -2.5 1.5t-1.5 2.5q-3 3 -6 3l-25 6zM996 -99v-5.5t2 -7.5q3 -8 11 -13q1 -1 3.5 -2.5t4.5 -3.5q3 0 6.5 -1t5.5 -1h13h10h2q2 0 4 -2q3 0 3 -2h3v-5q0 -2 -0.5 -3t-0.5 -2 v-1q-2 0 -3 -3t-2 -3q-2 -2 -6 -2q0 -1 -2 -1h-3q-2 0 -3.5 0.5t-3.5 0.5h-6h-8l-4 -2q-1 0 -1 -1.5t-1 -1.5l-5 -8q1 -4 3 -5.5t4 -4.5q3 -1 6.5 -2t6.5 -1q8 -3 13 -2q3 0 7 1t8 1q3 2 6.5 3.5t7.5 4.5q4 4 5.5 6t4.5 7q1 4 3.5 7t2.5 9q0 4 -0.5 7.5t-3.5 6.5q-1 8 -6 11 q-2 6 -9 8l-11 6h-15h-8h-9h-2v1q-3 3 -3 4l-2 1q2 1 2 4q0 1 1 1h2q0 1 5 1v3h1h5h3q4 0 5 1q4 0 8 1q0 2 1 3t1 2l5 10l-7 3q-8 4 -13 4q-2 0 -4.5 1t-4.5 1q-4 0 -6 -1t-4 -1l-13 -7q-2 -2 -4 -4.5t-3 -6.5q-7 -6 -8 -14zM1040 1038v13q1 11 7 22q1 4 3.5 7.5t5.5 6.5 q2 3 5 6t6 5q3 3 6.5 4t8.5 3q4 3 15 3h15q9 -1 17 -6q7 -3 15 -8q3 -4 5.5 -7.5t4.5 -5.5q2 -3 3.5 -6.5t3.5 -7.5q1 -4 2 -7.5t1 -7.5v-8t-2 -9q-1 -4 -1.5 -7.5t-3.5 -7.5l-3.5 -7l-3.5 -7q-4 -3 -7 -5.5t-5 -6.5q-4 -2 -7.5 -4t-7.5 -4q-6 0 -16 -2q-12 0 -17 1t-16 5 q-11 6 -18 16q-8 9 -14 21q-2 6 -2 11zM1059 1043q0 -2 1 -5t2 -5q1 -6 4 -10q2 -2 3.5 -4t3.5 -3q3 -4 9 -6q7 -4 12 -4h11q7 0 12 1q4 4 8 4q3 2 5.5 4t4.5 3q2 3 3 5.5t3 4.5q2 4 2.5 8t1.5 10q0 4 -0.5 7.5t-0.5 7.5q-2 4 -4.5 7.5t-4.5 5.5q-7 7 -15 10q-2 2 -5 2.5 t-6 2.5h-10q-7 0 -10 -3q-4 -2 -6.5 -2.5t-4.5 -1.5l-4 -4t-3 -4q-7 -5 -7 -8q-2 -3 -2.5 -6t-2.5 -6v-11zM1107 -135v-2q0 -3 1 -4q0 -1 1 -1q0 -6 3 -6q2 -5 7 -6h6q5 0 8 2q1 2 3 3t2 3v2q0 2 2 2l3 3v2q0 6 -5 6q0 6 -3 6q-2 3 -5 3q-2 0 -3.5 1t-3.5 1q-1 -2 -6 -2 l-7 -4q-1 -1 -1 -3v-2q-2 -2 -2 -4zM1119 -43v-16q0 -4 1.5 -7.5t1.5 -7.5l6 -15q3 -4 6.5 -6t5.5 -5l14 -11l12 -2q5 -2 17 -2q4 0 7 1t7 2q5 1 8.5 4t6.5 6q2 1 5.5 2.5t5.5 4.5q3 1 5 4t5 6l4 14q4 4 4 14l-12 2h-6l-8 -4q-2 0 -3 -3t-1 -5l-5 -9l-9 -6q-4 -2 -6 -3.5 t-5 -1.5q-7 -3 -14 0q-2 2 -5 2.5t-6 2.5q-6 4 -7 11q-5 2 -5 12q-4 3 0 14q0 2 0.5 4t1.5 7l4 4t5 3q7 4 9 4q3 1 11 1q2 0 10 5q2 3 5 5l2 6v9q-3 4 -12 4h-14l-14 -5l-11 -5q-2 -2 -5.5 -4.5t-6.5 -6.5q-2 -2 -4.5 -6t-4.5 -8zM1196 913l41 127l9 -8q1 -2 2 -3.5t3 -3.5 q0 -5 -2 -8l-27 -88l84 39q1 1 8 1q4 0 6 -3l10 -9l-120 -55zM1206 11q0 -4 2 -8l4 -14l11 -13l14 -10q4 -1 7 -3.5t8 -2.5q4 0 8 -1.5t8 -1.5q2 0 6 1.5t9 1.5q2 0 5.5 2.5t7.5 3.5q7 3 14 10l10 13q1 2 3 5.5t2 8.5q1 4 1 14v17l-6 12q-2 4 -4 7.5t-4 6.5l-14 14l-15 3 q-4 3 -15 3q-4 0 -8 -0.5t-8 -2.5l-13 -3q-4 -3 -8 -7l-7 -7l-4 -6t-5 -5q-3 -4 -4 -7.5t-3 -7.5q0 -4 -1 -7.5t-1 -8.5v-7zM1236 18q0 8 1 12q3 8 7 12l11 8q3 0 6.5 0.5t6.5 0.5q4 0 12 -2q2 -2 4.5 -3.5t5.5 -5.5q3 -1 4.5 -4t3.5 -6t2 -13v-5.5t-2 -5.5q-4 -9 -8 -10 q-7 -7 -10 -8q-3 -2 -6.5 -2h-5.5q-4 0 -7.5 1t-5.5 1l-11 8q-4 4 -7 11q-1 4 -1 11zM1247 866l92 78l50 -57l-15 -15l-38 46l-22 -20l28 -37l-16 -11l-28 36l-24 -22l36 -43l-16 -12zM1268 100l98 -66l16 22l-47 34l62 -13l11 20l-34 51l48 -30l16 24l-101 66l-12 -18 q-1 -2 -2.5 -4t-1.5 -6q0 -2 1.5 -4t2.5 -4l41 -59l-71 10h-10l-9 -6zM1300 800l104 62l23 -38q2 -3 3 -6t3 -8q2 -7 -2 -12q-2 -9 -6 -14l-4.5 -4.5t-6.5 -5.5q-3 -1 -5 -1.5t-5 -1.5q-3 0 -5 -1t-5 1q-4 0 -11 2q-3 1 -5 2t-4 3l-23 -60l-10 13q-4 2 -4 7q0 7 3 10l21 49 l-8 12l-43 -26zM1355 705q0 3 2 13q0 3 3 5l2 4q0 4 2 4q4 2 3 2l4 -2q3 -5 5 -6q0 -2 0.5 -3t0.5 -2q0 -4 -3 -7v-1v-7q0 -5 2 -10q0 -1 1 -2.5t2 -3.5q2 -1 3.5 -2.5t3.5 -2.5q1 -1 3 -1t4 -2h4.5t4.5 2q2 0 5 3q2 4 2 5q1 3 1 8v8v4v12q0 8 2 13q1 2 2.5 4.5t3.5 5.5 q3 2 5 4t7 4q8 3 14 2q6 0 12 -4q3 -2 6.5 -4t5.5 -6q3 -3 7 -11q2 -6 2 -10q0 -6 -1 -10q0 -4 -3 -11q-1 -2 -1.5 -4t-2.5 -4l-6 4q-3 1 -4 2.5t-3 3.5q-1 3 -1.5 5t0.5 5q1 1 1 8q0 3 -1 5q-2 2 -2 6q-3 0 -5 4q-2 1 -5 1q-3 1 -5 0t-2.5 -2t-1.5 -2t-2 -1.5t-2 -2.5v-7 v-10v-3v-2v-11q0 -2 -1 -4.5t-1 -4.5q-4 -14 -19 -21q-4 -2 -7.5 -3.5t-8.5 1.5q-6 0 -15 2q-3 3 -6.5 5t-5.5 6q-3 2 -5 5.5t-4 7.5q-2 10 -2 16zM1369 818l13 -19q3 -5 4 -6q1 0 7 -3h6q2 0 5 3q2 0 6 4q0 2 1 3t1 3q1 1 1 6q-1 1 -1 2.5t-2 3.5l-11 20zM1376 640l117 35 l5 -20l-117 -33zM1394 552q-1 13 1 25q5 12 10 20q7 9 18 16q5 3 11.5 6t11.5 3h19q6 0 15 -5q4 -1 7.5 -3.5t5.5 -4.5q3 -2 6.5 -4.5t5.5 -6.5q4 -8 8 -12q2 -8 5 -19v-15q-2 -10 -5 -15q-2 -5 -4 -9t-4 -7l-10 -10q-4 -4 -7.5 -5t-6.5 -3q-7 -4 -16 -4q-10 -1 -19 0 q-8 0 -15 4q-2 2 -6 3t-8 4q-3 2 -5.5 5.5t-4.5 5.5q-6 5 -8 16q-2 3 -3.5 6.5t-1.5 8.5zM1395 380l2 16l98 62l-93 6l1 19l121 -9l-1 -12q0 -5 -1 -8q-3 -3 -4 -5l-83 -53l84 -6l-2 -19zM1413 555q2 -8 4 -11q0 -6 5 -9q1 -3 3 -5.5t3 -4.5q3 -1 5.5 -2.5t5.5 -2.5 q2 -2 5 -2h5q5 -3 11 0q11 0 18 5q5 2 12 12q6 8 6 15q3 7 1 16q0 6 -2 11q-2 3 -3 5l-2 4l-4 4t-4 3q-5 4 -11 5q-3 4 -11 4q-4 2 -11 0q-7 0 -10 -4q-5 -1 -11 -5q-4 -1 -6 -7q-5 -5 -5 -9q-2 -2 -2.5 -5.5t-1.5 -5.5v-11z" />
<glyph unicode="'" horiz-adv-x="478" d="M188 943q14 40 40.5 97.5t55.5 117.5t58 115t48 92q9 17 24.5 32t35 26t40 17t40.5 6q35 0 63 -21.5t28 -62.5q0 -31 -16 -66.5t-41.5 -74t-58.5 -77t-68 -74t-68.5 -66t-60.5 -53.5q-19 -15 -41 -23t-42 -8q-15 0 -25.5 6t-11.5 17z" />
<glyph unicode="(" horiz-adv-x="885" d="M64 -64.5q-3 102.5 15.5 237.5t61 286t112.5 308.5t169 304t230.5 272t299.5 214.5q27 0 54.5 -11t60.5 -31q-102 -116 -202 -243t-190 -264.5t-165.5 -283.5t-128 -300.5t-78 -314.5t-16.5 -325q-5 -25 -22 -39t-38.5 -21.5t-43.5 -9.5t-37 -2q-37 0 -58 60t-24 162.5z " />
<glyph unicode=")" horiz-adv-x="770" d="M-175 -311q102 115 202 242t190 264.5t165.5 284t128 300.5t78 314t16.5 325q5 25 22 39.5t38.5 21.5t43.5 9t36 2q37 0 58.5 -60t24 -162.5t-15.5 -237.5t-60.5 -286t-112.5 -308t-169 -303.5t-230.5 -272.5t-299.5 -214q-27 0 -54.5 11t-60.5 31z" />
<glyph unicode="*" horiz-adv-x="987" d="M191 1266q0 14 9 22t21 12t25 5t21 1q31 0 53.5 -0.5t43.5 -1.5t42 -1.5t48 -0.5q5 30 1 57t-4 56q0 16 7.5 30.5t20.5 25.5t30 17t36 6q26 0 50.5 -16t45.5 -35.5t37 -35t25 -15.5q6 0 20.5 6t32 13.5t36 14t32.5 6.5q17 0 37 -9t35.5 -24t26 -33.5t10.5 -39.5 q0 -13 -7.5 -28t-19.5 -30.5t-27 -31.5t-29 -34q13 -8 24.5 -14t21.5 -11.5t21 -11t25 -13.5q-3 -22 -5.5 -37t-14 -27t-36 -22t-73.5 -22q-5 -1 -8.5 -22t-6.5 -46.5t-5.5 -48t-6.5 -27.5q-6 -9 -14.5 -19t-23.5 -18t-36 -13t-49 -5t-47.5 11t-34.5 30.5t-27 44.5t-27 52 q-41 -16 -85.5 -34t-80.5 -18q-17 0 -36 6t-35 17.5t-26.5 27.5t-10.5 37q0 18 10.5 34t27.5 31.5t38 30.5t39 31q-16 15 -45.5 25.5t-59 22t-51 28t-21.5 44.5z" />
<glyph unicode="+" horiz-adv-x="1030" d="M196 528q58 2 121 2.5t132 1.5q19 60 43.5 126.5t59.5 149.5q13 1 41 -4.5t59 -14.5t59 -17.5t43 -14.5q-14 -62 -27 -116t-26 -103l98 4t98 6l-19 -152q-50 -5 -106 -7t-116 -3q-20 -61 -44.5 -124t-57.5 -137l-224 75q1 5 9 25.5t19 48.5t23 59.5t22 57.5q-60 2 -110 5 t-85 5z" />
<glyph unicode="," horiz-adv-x="491" d="M25 -169q9 7 27 22.5t35 35.5t30 43.5t13 48.5q0 16 -10.5 33.5t-24 37.5t-24.5 42t-11 48q0 28 9 53.5t25.5 45t40 31.5t53.5 12q44 0 77 -17t54.5 -44.5t31.5 -64t10 -76.5q0 -42 -26 -90t-68 -90t-95 -73.5t-109 -39.5z" />
<glyph unicode="-" horiz-adv-x="1058" d="M196 513q87 12 175 15t177 3.5t179.5 3.5t182.5 15l-31 -190q-80 -8 -171.5 -10.5t-181 -1t-172.5 7t-145 16.5z" />
<glyph unicode="." horiz-adv-x="502" d="M41 121q0 31 6 60.5t20.5 52.5t38.5 37.5t60 14.5q42 0 75.5 -16t57 -42.5t35.5 -62t12 -73.5q0 -33 -14 -56.5t-34 -39.5t-45.5 -24t-47.5 -8q-23 0 -51 13.5t-53 35t-42.5 49.5t-17.5 59z" />
<glyph unicode="/" horiz-adv-x="1180" d="M-70 23q0 9 0.5 22.5t9.5 33.5q10 25 53 84.5t109 144.5t151 189.5t179 217t192.5 228.5t192.5 224t179 202.5t151 165.5t109.5 111.5t53.5 40.5t33 -2t45.5 -5.5t40 -8t17.5 -10.5q0 -11 -6 -30t-46 -76t-103.5 -139t-146.5 -185t-176.5 -215t-192 -228.5t-194 -227 t-183 -209t-157.5 -174.5t-118.5 -123.5t-66.5 -56.5q-8 -4 -28.5 -2.5t-42 6t-38.5 10.5t-17 12z" />
<glyph unicode="0" d="M125 431v6.5t1 5.5q2 8 2 14q2 3 3.5 5.5t3.5 5.5q2 2 3.5 5t3.5 5l4 -4q2 -1 3.5 -2t2.5 -1q1 -3 1 -7v-4t-2 -3q-4 -5 -5 -12q-1 -5 -1 -13t3 -17q3 -4 6 -7.5t5 -6.5q5 -5 14 -7q7 -4 17 -3q6 0 13 3l4 2t4 3t4.5 3t4.5 5q1 2 2.5 4t3.5 4q0 4 1 6.5t2 5.5q1 4 1 11 q-1 3 -1.5 7t-2.5 8q0 3 -5 10l-18 -1v-5v-5q0 -2 -3 -6q-1 -1 -1.5 -2t-2.5 -2t-7 -1h-6l-3 38l51 3q2 -2 5 -4t4 -4q2 -2 3.5 -5t1.5 -5q1 -7 4 -12q0 -3 0.5 -6.5t0.5 -5.5q0 -8 -0.5 -14t-3.5 -11q-1 -7 -4 -12.5t-8 -10.5q-7 -9 -19 -13q-11 -7 -22 -7h-19 q-4 2 -7.5 3.5t-7.5 3.5q-4 1 -6.5 3t-6.5 4l-6 6t-5 7q-2 2 -3.5 6t-3.5 8q-1 5 -1.5 9t-1.5 9zM125 506l8 77l20 -1l-7 -58l31 -4l5 47l21 -1l-5 -47l31 -3l5 58l21 -3l-9 -77zM135 597l23 91l19 -5l-10 -38l99 -23l-4 -19l-99 25l-10 -36zM177 740l42 84l17 -8l-16 -33 l91 -46l-8 -17l-92 46l-16 -35zM205 160l46 -80l23 14l-25 46l84 -10q2 0 6 1q2 0 2.5 0.5t2.5 0.5l11 8l-46 79l-23 -14l26 -45l-84 9q-2 0 -5.5 -0.5t-7.5 -3.5zM229 844l12 15l41 -30l35 49l-41 30l12 17l98 -73l-11 -16l-41 30l-36 -48l42 -31l-11 -15zM270 53l53 -59 l19 18l-33 38l18 11l23 -31l23 19l-28 31l14 11l32 -40l22 19l-51 61zM298 471q0 -105 40.5 -200.5t111 -167.5t167.5 -115t209 -43q36 0 72 5.5t70 15.5q80 24 150 70t122 111.5t82.5 147.5t30.5 176q0 103 -39.5 199t-109.5 169t-167 117t-211 44q-106 0 -202 -40 t-168 -111.5t-115 -168t-43 -209.5zM311 949l55 55l14 -16l-40 -40l20 -21l34 31l14 -14l-33 -31l21 -23l42 40l14 -16l-56 -53zM344 471q0 96 36 183.5t100.5 155t153 106.5t192.5 39q69 0 127 -17q74 -19 138.5 -61t113 -102.5t77 -137.5t28.5 -166q0 -100 -38 -188.5 t-104 -155t-154.5 -104t-187.5 -37.5q-102 0 -190 39.5t-153 106t-102 154.5t-37 185zM369 -50l20 -19l62 71l23 -21l18 20l-71 60l-21 -21l28 -22zM390 471q0 -84 29.5 -158.5t79.5 -134.5l568 570h-578q-47 -56 -73 -125.5t-26 -151.5zM412 -90l16 -9q0 -1 2 -1h3 q2 0 2.5 -0.5t2.5 0.5h5q3 0 4 1l12 9l40 -23l-2 -15v-5q0 -2 1 -3q0 -1 1 -1v-3q0 -2 2 -2l4 -3l16 -11l18 128l-23 14zM427 1048l65 41l9 -17l-47 -31l17 -26l40 25l10 -17l-40 -25l25 -43l-14 -11zM484 -74l17 15h2q2 0 2 1v1v1h1q1 1 2 1l-3 -2v-2v-3l-2 -23zM511 1100 l18 8l31 -68q0 -7 6 -10q1 -3 9 -7q2 -1 5.5 -1h5.5q6 -1 11 1q7 3 10 7q5 5 6 10q1 2 1 11q0 7 -1 11l-27 68l17 9l30 -70q1 -5 1.5 -9t0.5 -9q0 -10 -3 -20q-2 -4 -4.5 -7.5t-7.5 -6.5q-2 -5 -6 -7t-9 -4t-9.5 -3.5t-9.5 -1.5q-8 0 -19 5q-5 2 -8.5 4t-6.5 6q-7 7 -10 16z M534 797h579q-55 51 -129 81t-158 30q-85 0 -159 -29.5t-133 -81.5zM536 146q58 -50 131.5 -80.5t158.5 -30.5q84 0 159 30.5t134 80.5h-583zM539 -161l26 -12l16 42l39 -15l10 26l-38 15l6 18l49 -18l8 25l-73 27zM585 194h577q46 56 72 126.5t26 150.5q0 82 -27.5 153.5 t-82.5 142.5zM633 1146l20 5l23 -99l50 11l4 -21l-67 -15zM639 -137v-19l3 -15l6 -13l11 -12q3 -4 7.5 -5.5t6.5 -3.5q7 -4 15 -4q5 -1 8.5 -1h8.5t13 2q4 2 8.5 3t6.5 4q6 2 12 11l9 11q4 7 7 17v16q0 3 -1 6.5t-3 8.5q-1 5 -2.5 7.5t-3.5 6.5l-10 12q-3 3 -6.5 5t-7.5 4 t-7 2.5t-8 2.5q-5 1 -9 1h-8q-10 0 -14 -4q-4 -1 -7.5 -2t-7.5 -4l-12 -11q-4 -8 -10 -11q-2 -5 -3.5 -8.5t-1.5 -6.5zM670 -142q0 6 5 11l6 9l13 5h12l12 -5l9 -9q2 -3 3.5 -5t1.5 -6q2 -9 0 -15q0 -3 -1.5 -6.5t-3.5 -5.5q-3 -4 -4.5 -5.5l-4.5 -4.5q-3 -1 -5.5 -2 t-6.5 -1q-6 -3 -12 0q-4 0 -7.5 1t-5.5 2l-8 10q-2 2 -2.5 5.5t-0.5 6.5q-3 5 0 15zM721 1164l20 2l11 -100l52 5v-20l-71 -9zM769 -102l3 -122l28 1v81l52 -81h26v121h-31l4 -77q-1 0 -1 4q0 1 -1.5 1t-1.5 1q0 4 -1 4l-42 61q0 1 -2 3q-2 3 -9 3h-10h-14zM850 1051l12 120 l45 -5q6 0 15 -4q9 -5 11 -10q4 -3 7 -13q3 -7 2 -15q-2 -4 -2.5 -7.5t-2.5 -8.5q-6 -8 -9 -11q-4 -3 -15 -7q-3 -1 -13 -1l-26 3l-5 -44zM876 1110l25 -2h7q3 1 7 6q3 0 4 5q2 1 4 7q0 5 -1 8q-1 2 -2 3.5t-1 2.5q-2 2 -3.5 3t-3.5 2t-3.5 1t-2.5 1l-25 3zM888 -101l4 -27 l35 6l16 -91l27 5l-17 91l32 6l-5 26zM939 1040l32 116l44 -11q6 0 12 -6q5 -4 9 -11q4 -5 4 -13q1 -5 0.5 -8t-0.5 -7q-2 -5 -5 -10t-6 -8q-7 -5 -10 -5q-2 -2 -4.5 -2.5t-4.5 -1.5l22 -58l-15 2q-2 1 -3.5 2.5t-3.5 2.5q-3 1 -5 8l-20 47l-14 4l-13 -46zM976 1100l24 -6 q2 0 3.5 -0.5t3.5 0.5q2 0 3.5 0.5t3.5 0.5t2 1.5t1 2.5q4 4 4 6q1 3 1 7q-1 2 -1 3.5t-1 3.5q-1 1 -2.5 1.5t-1.5 2.5q-3 3 -6 3l-25 6zM996 -99v-5.5t2 -7.5q3 -8 11 -13q1 -1 3.5 -2.5t4.5 -3.5q3 0 6.5 -1t5.5 -1h13h10h2q2 0 4 -2q3 0 3 -2h3v-5q0 -2 -0.5 -3t-0.5 -2 v-1q-2 0 -3 -3t-2 -3q-2 -2 -6 -2q0 -1 -2 -1h-3q-2 0 -3.5 0.5t-3.5 0.5h-6h-8l-4 -2q-1 0 -1 -1.5t-1 -1.5l-5 -8q1 -4 3 -5.5t4 -4.5q3 -1 6.5 -2t6.5 -1q8 -3 13 -2q3 0 7 1t8 1q3 2 6.5 3.5t7.5 4.5q4 4 5.5 6t4.5 7q1 4 3.5 7t2.5 9q0 4 -0.5 7.5t-3.5 6.5q-1 8 -6 11 q-2 6 -9 8l-11 6h-15h-8h-9h-2v1q-3 3 -3 4l-2 1q2 1 2 4q0 1 1 1h2q0 1 5 1v3h1h5h3q4 0 5 1q4 0 8 1q0 2 1 3t1 2l5 10l-7 3q-8 4 -13 4q-2 0 -4.5 1t-4.5 1q-4 0 -6 -1t-4 -1l-13 -7q-2 -2 -4 -4.5t-3 -6.5q-7 -6 -8 -14zM1040 1038v13q1 11 7 22q1 4 3.5 7.5t5.5 6.5 q2 3 5 6t6 5q3 3 6.5 4t8.5 3q4 3 15 3h15q9 -1 17 -6q7 -3 15 -8q3 -4 5.5 -7.5t4.5 -5.5q2 -3 3.5 -6.5t3.5 -7.5q1 -4 2 -7.5t1 -7.5v-8t-2 -9q-1 -4 -1.5 -7.5t-3.5 -7.5l-3.5 -7l-3.5 -7q-4 -3 -7 -5.5t-5 -6.5q-4 -2 -7.5 -4t-7.5 -4q-6 0 -16 -2q-12 0 -17 1t-16 5 q-11 6 -18 16q-8 9 -14 21q-2 6 -2 11zM1059 1043q0 -2 1 -5t2 -5q1 -6 4 -10q2 -2 3.5 -4t3.5 -3q3 -4 9 -6q7 -4 12 -4h11q7 0 12 1q4 4 8 4q3 2 5.5 4t4.5 3q2 3 3 5.5t3 4.5q2 4 2.5 8t1.5 10q0 4 -0.5 7.5t-0.5 7.5q-2 4 -4.5 7.5t-4.5 5.5q-7 7 -15 10q-2 2 -5 2.5 t-6 2.5h-10q-7 0 -10 -3q-4 -2 -6.5 -2.5t-4.5 -1.5l-4 -4t-3 -4q-7 -5 -7 -8q-2 -3 -2.5 -6t-2.5 -6v-11zM1107 -135v-2q0 -3 1 -4q0 -1 1 -1q0 -6 3 -6q2 -5 7 -6h6q5 0 8 2q1 2 3 3t2 3v2q0 2 2 2l3 3v2q0 6 -5 6q0 6 -3 6q-2 3 -5 3q-2 0 -3.5 1t-3.5 1q-1 -2 -6 -2 l-7 -4q-1 -1 -1 -3v-2q-2 -2 -2 -4zM1119 -43v-16q0 -4 1.5 -7.5t1.5 -7.5l6 -15q3 -4 6.5 -6t5.5 -5l14 -11l12 -2q5 -2 17 -2q4 0 7 1t7 2q5 1 8.5 4t6.5 6q2 1 5.5 2.5t5.5 4.5q3 1 5 4t5 6l4 14q4 4 4 14l-12 2h-6l-8 -4q-2 0 -3 -3t-1 -5l-5 -9l-9 -6q-4 -2 -6 -3.5 t-5 -1.5q-7 -3 -14 0q-2 2 -5 2.5t-6 2.5q-6 4 -7 11q-5 2 -5 12q-4 3 0 14q0 2 0.5 4t1.5 7l4 4t5 3q7 4 9 4q3 1 11 1q2 0 10 5q2 3 5 5l2 6v9q-3 4 -12 4h-14l-14 -5l-11 -5q-2 -2 -5.5 -4.5t-6.5 -6.5q-2 -2 -4.5 -6t-4.5 -8zM1196 913l41 127l9 -8q1 -2 2 -3.5t3 -3.5 q0 -5 -2 -8l-27 -88l84 39q1 1 8 1q4 0 6 -3l10 -9l-120 -55zM1206 11q0 -4 2 -8l4 -14l11 -13l14 -10q4 -1 7 -3.5t8 -2.5q4 0 8 -1.5t8 -1.5q2 0 6 1.5t9 1.5q2 0 5.5 2.5t7.5 3.5q7 3 14 10l10 13q1 2 3 5.5t2 8.5q1 4 1 14v17l-6 12q-2 4 -4 7.5t-4 6.5l-14 14l-15 3 q-4 3 -15 3q-4 0 -8 -0.5t-8 -2.5l-13 -3q-4 -3 -8 -7l-7 -7l-4 -6t-5 -5q-3 -4 -4 -7.5t-3 -7.5q0 -4 -1 -7.5t-1 -8.5v-7zM1236 18q0 8 1 12q3 8 7 12l11 8q3 0 6.5 0.5t6.5 0.5q4 0 12 -2q2 -2 4.5 -3.5t5.5 -5.5q3 -1 4.5 -4t3.5 -6t2 -13v-5.5t-2 -5.5q-4 -9 -8 -10 q-7 -7 -10 -8q-3 -2 -6.5 -2h-5.5q-4 0 -7.5 1t-5.5 1l-11 8q-4 4 -7 11q-1 4 -1 11zM1247 866l92 78l50 -57l-15 -15l-38 46l-22 -20l28 -37l-16 -11l-28 36l-24 -22l36 -43l-16 -12zM1268 100l98 -66l16 22l-47 34l62 -13l11 20l-34 51l48 -30l16 24l-101 66l-12 -18 q-1 -2 -2.5 -4t-1.5 -6q0 -2 1.5 -4t2.5 -4l41 -59l-71 10h-10l-9 -6zM1300 800l104 62l23 -38q2 -3 3 -6t3 -8q2 -7 -2 -12q-2 -9 -6 -14l-4.5 -4.5t-6.5 -5.5q-3 -1 -5 -1.5t-5 -1.5q-3 0 -5 -1t-5 1q-4 0 -11 2q-3 1 -5 2t-4 3l-23 -60l-10 13q-4 2 -4 7q0 7 3 10l21 49 l-8 12l-43 -26zM1355 705q0 3 2 13q0 3 3 5l2 4q0 4 2 4q4 2 3 2l4 -2q3 -5 5 -6q0 -2 0.5 -3t0.5 -2q0 -4 -3 -7v-1v-7q0 -5 2 -10q0 -1 1 -2.5t2 -3.5q2 -1 3.5 -2.5t3.5 -2.5q1 -1 3 -1t4 -2h4.5t4.5 2q2 0 5 3q2 4 2 5q1 3 1 8v8v4v12q0 8 2 13q1 2 2.5 4.5t3.5 5.5 q3 2 5 4t7 4q8 3 14 2q6 0 12 -4q3 -2 6.5 -4t5.5 -6q3 -3 7 -11q2 -6 2 -10q0 -6 -1 -10q0 -4 -3 -11q-1 -2 -1.5 -4t-2.5 -4l-6 4q-3 1 -4 2.5t-3 3.5q-1 3 -1.5 5t0.5 5q1 1 1 8q0 3 -1 5q-2 2 -2 6q-3 0 -5 4q-2 1 -5 1q-3 1 -5 0t-2.5 -2t-1.5 -2t-2 -1.5t-2 -2.5v-7 v-10v-3v-2v-11q0 -2 -1 -4.5t-1 -4.5q-4 -14 -19 -21q-4 -2 -7.5 -3.5t-8.5 1.5q-6 0 -15 2q-3 3 -6.5 5t-5.5 6q-3 2 -5 5.5t-4 7.5q-2 10 -2 16zM1369 818l13 -19q3 -5 4 -6q1 0 7 -3h6q2 0 5 3q2 0 6 4q0 2 1 3t1 3q1 1 1 6q-1 1 -1 2.5t-2 3.5l-11 20zM1376 640l117 35 l5 -20l-117 -33zM1394 552q-1 13 1 25q5 12 10 20q7 9 18 16q5 3 11.5 6t11.5 3h19q6 0 15 -5q4 -1 7.5 -3.5t5.5 -4.5q3 -2 6.5 -4.5t5.5 -6.5q4 -8 8 -12q2 -8 5 -19v-15q-2 -10 -5 -15q-2 -5 -4 -9t-4 -7l-10 -10q-4 -4 -7.5 -5t-6.5 -3q-7 -4 -16 -4q-10 -1 -19 0 q-8 0 -15 4q-2 2 -6 3t-8 4q-3 2 -5.5 5.5t-4.5 5.5q-6 5 -8 16q-2 3 -3.5 6.5t-1.5 8.5zM1395 380l2 16l98 62l-93 6l1 19l121 -9l-1 -12q0 -5 -1 -8q-3 -3 -4 -5l-83 -53l84 -6l-2 -19zM1413 555q2 -8 4 -11q0 -6 5 -9q1 -3 3 -5.5t3 -4.5q3 -1 5.5 -2.5t5.5 -2.5 q2 -2 5 -2h5q5 -3 11 0q11 0 18 5q5 2 12 12q6 8 6 15q3 7 1 16q0 6 -2 11q-2 3 -3 5l-2 4l-4 4t-4 3q-5 4 -11 5q-3 4 -11 4q-4 2 -11 0q-7 0 -10 -4q-5 -1 -11 -5q-4 -1 -6 -7q-5 -5 -5 -9q-2 -2 -2.5 -5.5t-1.5 -5.5v-11z" />
<glyph unicode="1" d="M125 431v6.5t1 5.5q2 8 2 14q2 3 3.5 5.5t3.5 5.5q2 2 3.5 5t3.5 5l4 -4q2 -1 3.5 -2t2.5 -1q1 -3 1 -7v-4t-2 -3q-4 -5 -5 -12q-1 -5 -1 -13t3 -17q3 -4 6 -7.5t5 -6.5q5 -5 14 -7q7 -4 17 -3q6 0 13 3l4 2t4 3t4.5 3t4.5 5q1 2 2.5 4t3.5 4q0 4 1 6.5t2 5.5q1 4 1 11 q-1 3 -1.5 7t-2.5 8q0 3 -5 10l-18 -1v-5v-5q0 -2 -3 -6q-1 -1 -1.5 -2t-2.5 -2t-7 -1h-6l-3 38l51 3q2 -2 5 -4t4 -4q2 -2 3.5 -5t1.5 -5q1 -7 4 -12q0 -3 0.5 -6.5t0.5 -5.5q0 -8 -0.5 -14t-3.5 -11q-1 -7 -4 -12.5t-8 -10.5q-7 -9 -19 -13q-11 -7 -22 -7h-19 q-4 2 -7.5 3.5t-7.5 3.5q-4 1 -6.5 3t-6.5 4l-6 6t-5 7q-2 2 -3.5 6t-3.5 8q-1 5 -1.5 9t-1.5 9zM125 506l8 77l20 -1l-7 -58l31 -4l5 47l21 -1l-5 -47l31 -3l5 58l21 -3l-9 -77zM135 597l23 91l19 -5l-10 -38l99 -23l-4 -19l-99 25l-10 -36zM177 740l42 84l17 -8l-16 -33 l91 -46l-8 -17l-92 46l-16 -35zM205 160l46 -80l23 14l-25 46l84 -10q2 0 6 1q2 0 2.5 0.5t2.5 0.5l11 8l-46 79l-23 -14l26 -45l-84 9q-2 0 -5.5 -0.5t-7.5 -3.5zM229 844l12 15l41 -30l35 49l-41 30l12 17l98 -73l-11 -16l-41 30l-36 -48l42 -31l-11 -15zM270 53l53 -59 l19 18l-33 38l18 11l23 -31l23 19l-28 31l14 11l32 -40l22 19l-51 61zM298 471q0 -105 40.5 -200.5t111 -167.5t167.5 -115t209 -43q36 0 72 5.5t70 15.5q80 24 150 70t122 111.5t82.5 147.5t30.5 176q0 103 -39.5 199t-109.5 169t-167 117t-211 44q-106 0 -202 -40 t-168 -111.5t-115 -168t-43 -209.5zM311 949l55 55l14 -16l-40 -40l20 -21l34 31l14 -14l-33 -31l21 -23l42 40l14 -16l-56 -53zM344 471q0 96 36 183.5t100.5 155t153 106.5t192.5 39q69 0 127 -17q74 -19 138.5 -61t113 -102.5t77 -137.5t28.5 -166q0 -100 -38 -188.5 t-104 -155t-154.5 -104t-187.5 -37.5q-102 0 -190 39.5t-153 106t-102 154.5t-37 185zM369 -50l20 -19l62 71l23 -21l18 20l-71 60l-21 -21l28 -22zM390 471q0 -84 29.5 -158.5t79.5 -134.5l568 570h-578q-47 -56 -73 -125.5t-26 -151.5zM412 -90l16 -9q0 -1 2 -1h3 q2 0 2.5 -0.5t2.5 0.5h5q3 0 4 1l12 9l40 -23l-2 -15v-5q0 -2 1 -3q0 -1 1 -1v-3q0 -2 2 -2l4 -3l16 -11l18 128l-23 14zM427 1048l65 41l9 -17l-47 -31l17 -26l40 25l10 -17l-40 -25l25 -43l-14 -11zM484 -74l17 15h2q2 0 2 1v1v1h1q1 1 2 1l-3 -2v-2v-3l-2 -23zM511 1100 l18 8l31 -68q0 -7 6 -10q1 -3 9 -7q2 -1 5.5 -1h5.5q6 -1 11 1q7 3 10 7q5 5 6 10q1 2 1 11q0 7 -1 11l-27 68l17 9l30 -70q1 -5 1.5 -9t0.5 -9q0 -10 -3 -20q-2 -4 -4.5 -7.5t-7.5 -6.5q-2 -5 -6 -7t-9 -4t-9.5 -3.5t-9.5 -1.5q-8 0 -19 5q-5 2 -8.5 4t-6.5 6q-7 7 -10 16z M534 797h579q-55 51 -129 81t-158 30q-85 0 -159 -29.5t-133 -81.5zM536 146q58 -50 131.5 -80.5t158.5 -30.5q84 0 159 30.5t134 80.5h-583zM539 -161l26 -12l16 42l39 -15l10 26l-38 15l6 18l49 -18l8 25l-73 27zM585 194h577q46 56 72 126.5t26 150.5q0 82 -27.5 153.5 t-82.5 142.5zM633 1146l20 5l23 -99l50 11l4 -21l-67 -15zM639 -137v-19l3 -15l6 -13l11 -12q3 -4 7.5 -5.5t6.5 -3.5q7 -4 15 -4q5 -1 8.5 -1h8.5t13 2q4 2 8.5 3t6.5 4q6 2 12 11l9 11q4 7 7 17v16q0 3 -1 6.5t-3 8.5q-1 5 -2.5 7.5t-3.5 6.5l-10 12q-3 3 -6.5 5t-7.5 4 t-7 2.5t-8 2.5q-5 1 -9 1h-8q-10 0 -14 -4q-4 -1 -7.5 -2t-7.5 -4l-12 -11q-4 -8 -10 -11q-2 -5 -3.5 -8.5t-1.5 -6.5zM670 -142q0 6 5 11l6 9l13 5h12l12 -5l9 -9q2 -3 3.5 -5t1.5 -6q2 -9 0 -15q0 -3 -1.5 -6.5t-3.5 -5.5q-3 -4 -4.5 -5.5l-4.5 -4.5q-3 -1 -5.5 -2 t-6.5 -1q-6 -3 -12 0q-4 0 -7.5 1t-5.5 2l-8 10q-2 2 -2.5 5.5t-0.5 6.5q-3 5 0 15zM721 1164l20 2l11 -100l52 5v-20l-71 -9zM769 -102l3 -122l28 1v81l52 -81h26v121h-31l4 -77q-1 0 -1 4q0 1 -1.5 1t-1.5 1q0 4 -1 4l-42 61q0 1 -2 3q-2 3 -9 3h-10h-14zM850 1051l12 120 l45 -5q6 0 15 -4q9 -5 11 -10q4 -3 7 -13q3 -7 2 -15q-2 -4 -2.5 -7.5t-2.5 -8.5q-6 -8 -9 -11q-4 -3 -15 -7q-3 -1 -13 -1l-26 3l-5 -44zM876 1110l25 -2h7q3 1 7 6q3 0 4 5q2 1 4 7q0 5 -1 8q-1 2 -2 3.5t-1 2.5q-2 2 -3.5 3t-3.5 2t-3.5 1t-2.5 1l-25 3zM888 -101l4 -27 l35 6l16 -91l27 5l-17 91l32 6l-5 26zM939 1040l32 116l44 -11q6 0 12 -6q5 -4 9 -11q4 -5 4 -13q1 -5 0.5 -8t-0.5 -7q-2 -5 -5 -10t-6 -8q-7 -5 -10 -5q-2 -2 -4.5 -2.5t-4.5 -1.5l22 -58l-15 2q-2 1 -3.5 2.5t-3.5 2.5q-3 1 -5 8l-20 47l-14 4l-13 -46zM976 1100l24 -6 q2 0 3.5 -0.5t3.5 0.5q2 0 3.5 0.5t3.5 0.5t2 1.5t1 2.5q4 4 4 6q1 3 1 7q-1 2 -1 3.5t-1 3.5q-1 1 -2.5 1.5t-1.5 2.5q-3 3 -6 3l-25 6zM996 -99v-5.5t2 -7.5q3 -8 11 -13q1 -1 3.5 -2.5t4.5 -3.5q3 0 6.5 -1t5.5 -1h13h10h2q2 0 4 -2q3 0 3 -2h3v-5q0 -2 -0.5 -3t-0.5 -2 v-1q-2 0 -3 -3t-2 -3q-2 -2 -6 -2q0 -1 -2 -1h-3q-2 0 -3.5 0.5t-3.5 0.5h-6h-8l-4 -2q-1 0 -1 -1.5t-1 -1.5l-5 -8q1 -4 3 -5.5t4 -4.5q3 -1 6.5 -2t6.5 -1q8 -3 13 -2q3 0 7 1t8 1q3 2 6.5 3.5t7.5 4.5q4 4 5.5 6t4.5 7q1 4 3.5 7t2.5 9q0 4 -0.5 7.5t-3.5 6.5q-1 8 -6 11 q-2 6 -9 8l-11 6h-15h-8h-9h-2v1q-3 3 -3 4l-2 1q2 1 2 4q0 1 1 1h2q0 1 5 1v3h1h5h3q4 0 5 1q4 0 8 1q0 2 1 3t1 2l5 10l-7 3q-8 4 -13 4q-2 0 -4.5 1t-4.5 1q-4 0 -6 -1t-4 -1l-13 -7q-2 -2 -4 -4.5t-3 -6.5q-7 -6 -8 -14zM1040 1038v13q1 11 7 22q1 4 3.5 7.5t5.5 6.5 q2 3 5 6t6 5q3 3 6.5 4t8.5 3q4 3 15 3h15q9 -1 17 -6q7 -3 15 -8q3 -4 5.5 -7.5t4.5 -5.5q2 -3 3.5 -6.5t3.5 -7.5q1 -4 2 -7.5t1 -7.5v-8t-2 -9q-1 -4 -1.5 -7.5t-3.5 -7.5l-3.5 -7l-3.5 -7q-4 -3 -7 -5.5t-5 -6.5q-4 -2 -7.5 -4t-7.5 -4q-6 0 -16 -2q-12 0 -17 1t-16 5 q-11 6 -18 16q-8 9 -14 21q-2 6 -2 11zM1059 1043q0 -2 1 -5t2 -5q1 -6 4 -10q2 -2 3.5 -4t3.5 -3q3 -4 9 -6q7 -4 12 -4h11q7 0 12 1q4 4 8 4q3 2 5.5 4t4.5 3q2 3 3 5.5t3 4.5q2 4 2.5 8t1.5 10q0 4 -0.5 7.5t-0.5 7.5q-2 4 -4.5 7.5t-4.5 5.5q-7 7 -15 10q-2 2 -5 2.5 t-6 2.5h-10q-7 0 -10 -3q-4 -2 -6.5 -2.5t-4.5 -1.5l-4 -4t-3 -4q-7 -5 -7 -8q-2 -3 -2.5 -6t-2.5 -6v-11zM1107 -135v-2q0 -3 1 -4q0 -1 1 -1q0 -6 3 -6q2 -5 7 -6h6q5 0 8 2q1 2 3 3t2 3v2q0 2 2 2l3 3v2q0 6 -5 6q0 6 -3 6q-2 3 -5 3q-2 0 -3.5 1t-3.5 1q-1 -2 -6 -2 l-7 -4q-1 -1 -1 -3v-2q-2 -2 -2 -4zM1119 -43v-16q0 -4 1.5 -7.5t1.5 -7.5l6 -15q3 -4 6.5 -6t5.5 -5l14 -11l12 -2q5 -2 17 -2q4 0 7 1t7 2q5 1 8.5 4t6.5 6q2 1 5.5 2.5t5.5 4.5q3 1 5 4t5 6l4 14q4 4 4 14l-12 2h-6l-8 -4q-2 0 -3 -3t-1 -5l-5 -9l-9 -6q-4 -2 -6 -3.5 t-5 -1.5q-7 -3 -14 0q-2 2 -5 2.5t-6 2.5q-6 4 -7 11q-5 2 -5 12q-4 3 0 14q0 2 0.5 4t1.5 7l4 4t5 3q7 4 9 4q3 1 11 1q2 0 10 5q2 3 5 5l2 6v9q-3 4 -12 4h-14l-14 -5l-11 -5q-2 -2 -5.5 -4.5t-6.5 -6.5q-2 -2 -4.5 -6t-4.5 -8zM1196 913l41 127l9 -8q1 -2 2 -3.5t3 -3.5 q0 -5 -2 -8l-27 -88l84 39q1 1 8 1q4 0 6 -3l10 -9l-120 -55zM1206 11q0 -4 2 -8l4 -14l11 -13l14 -10q4 -1 7 -3.5t8 -2.5q4 0 8 -1.5t8 -1.5q2 0 6 1.5t9 1.5q2 0 5.5 2.5t7.5 3.5q7 3 14 10l10 13q1 2 3 5.5t2 8.5q1 4 1 14v17l-6 12q-2 4 -4 7.5t-4 6.5l-14 14l-15 3 q-4 3 -15 3q-4 0 -8 -0.5t-8 -2.5l-13 -3q-4 -3 -8 -7l-7 -7l-4 -6t-5 -5q-3 -4 -4 -7.5t-3 -7.5q0 -4 -1 -7.5t-1 -8.5v-7zM1236 18q0 8 1 12q3 8 7 12l11 8q3 0 6.5 0.5t6.5 0.5q4 0 12 -2q2 -2 4.5 -3.5t5.5 -5.5q3 -1 4.5 -4t3.5 -6t2 -13v-5.5t-2 -5.5q-4 -9 -8 -10 q-7 -7 -10 -8q-3 -2 -6.5 -2h-5.5q-4 0 -7.5 1t-5.5 1l-11 8q-4 4 -7 11q-1 4 -1 11zM1247 866l92 78l50 -57l-15 -15l-38 46l-22 -20l28 -37l-16 -11l-28 36l-24 -22l36 -43l-16 -12zM1268 100l98 -66l16 22l-47 34l62 -13l11 20l-34 51l48 -30l16 24l-101 66l-12 -18 q-1 -2 -2.5 -4t-1.5 -6q0 -2 1.5 -4t2.5 -4l41 -59l-71 10h-10l-9 -6zM1300 800l104 62l23 -38q2 -3 3 -6t3 -8q2 -7 -2 -12q-2 -9 -6 -14l-4.5 -4.5t-6.5 -5.5q-3 -1 -5 -1.5t-5 -1.5q-3 0 -5 -1t-5 1q-4 0 -11 2q-3 1 -5 2t-4 3l-23 -60l-10 13q-4 2 -4 7q0 7 3 10l21 49 l-8 12l-43 -26zM1355 705q0 3 2 13q0 3 3 5l2 4q0 4 2 4q4 2 3 2l4 -2q3 -5 5 -6q0 -2 0.5 -3t0.5 -2q0 -4 -3 -7v-1v-7q0 -5 2 -10q0 -1 1 -2.5t2 -3.5q2 -1 3.5 -2.5t3.5 -2.5q1 -1 3 -1t4 -2h4.5t4.5 2q2 0 5 3q2 4 2 5q1 3 1 8v8v4v12q0 8 2 13q1 2 2.5 4.5t3.5 5.5 q3 2 5 4t7 4q8 3 14 2q6 0 12 -4q3 -2 6.5 -4t5.5 -6q3 -3 7 -11q2 -6 2 -10q0 -6 -1 -10q0 -4 -3 -11q-1 -2 -1.5 -4t-2.5 -4l-6 4q-3 1 -4 2.5t-3 3.5q-1 3 -1.5 5t0.5 5q1 1 1 8q0 3 -1 5q-2 2 -2 6q-3 0 -5 4q-2 1 -5 1q-3 1 -5 0t-2.5 -2t-1.5 -2t-2 -1.5t-2 -2.5v-7 v-10v-3v-2v-11q0 -2 -1 -4.5t-1 -4.5q-4 -14 -19 -21q-4 -2 -7.5 -3.5t-8.5 1.5q-6 0 -15 2q-3 3 -6.5 5t-5.5 6q-3 2 -5 5.5t-4 7.5q-2 10 -2 16zM1369 818l13 -19q3 -5 4 -6q1 0 7 -3h6q2 0 5 3q2 0 6 4q0 2 1 3t1 3q1 1 1 6q-1 1 -1 2.5t-2 3.5l-11 20zM1376 640l117 35 l5 -20l-117 -33zM1394 552q-1 13 1 25q5 12 10 20q7 9 18 16q5 3 11.5 6t11.5 3h19q6 0 15 -5q4 -1 7.5 -3.5t5.5 -4.5q3 -2 6.5 -4.5t5.5 -6.5q4 -8 8 -12q2 -8 5 -19v-15q-2 -10 -5 -15q-2 -5 -4 -9t-4 -7l-10 -10q-4 -4 -7.5 -5t-6.5 -3q-7 -4 -16 -4q-10 -1 -19 0 q-8 0 -15 4q-2 2 -6 3t-8 4q-3 2 -5.5 5.5t-4.5 5.5q-6 5 -8 16q-2 3 -3.5 6.5t-1.5 8.5zM1395 380l2 16l98 62l-93 6l1 19l121 -9l-1 -12q0 -5 -1 -8q-3 -3 -4 -5l-83 -53l84 -6l-2 -19zM1413 555q2 -8 4 -11q0 -6 5 -9q1 -3 3 -5.5t3 -4.5q3 -1 5.5 -2.5t5.5 -2.5 q2 -2 5 -2h5q5 -3 11 0q11 0 18 5q5 2 12 12q6 8 6 15q3 7 1 16q0 6 -2 11q-2 3 -3 5l-2 4l-4 4t-4 3q-5 4 -11 5q-3 4 -11 4q-4 2 -11 0q-7 0 -10 -4q-5 -1 -11 -5q-4 -1 -6 -7q-5 -5 -5 -9q-2 -2 -2.5 -5.5t-1.5 -5.5v-11z" />
<glyph unicode="2" d="M125 431v6.5t1 5.5q2 8 2 14q2 3 3.5 5.5t3.5 5.5q2 2 3.5 5t3.5 5l4 -4q2 -1 3.5 -2t2.5 -1q1 -3 1 -7v-4t-2 -3q-4 -5 -5 -12q-1 -5 -1 -13t3 -17q3 -4 6 -7.5t5 -6.5q5 -5 14 -7q7 -4 17 -3q6 0 13 3l4 2t4 3t4.5 3t4.5 5q1 2 2.5 4t3.5 4q0 4 1 6.5t2 5.5q1 4 1 11 q-1 3 -1.5 7t-2.5 8q0 3 -5 10l-18 -1v-5v-5q0 -2 -3 -6q-1 -1 -1.5 -2t-2.5 -2t-7 -1h-6l-3 38l51 3q2 -2 5 -4t4 -4q2 -2 3.5 -5t1.5 -5q1 -7 4 -12q0 -3 0.5 -6.5t0.5 -5.5q0 -8 -0.5 -14t-3.5 -11q-1 -7 -4 -12.5t-8 -10.5q-7 -9 -19 -13q-11 -7 -22 -7h-19 q-4 2 -7.5 3.5t-7.5 3.5q-4 1 -6.5 3t-6.5 4l-6 6t-5 7q-2 2 -3.5 6t-3.5 8q-1 5 -1.5 9t-1.5 9zM125 506l8 77l20 -1l-7 -58l31 -4l5 47l21 -1l-5 -47l31 -3l5 58l21 -3l-9 -77zM135 597l23 91l19 -5l-10 -38l99 -23l-4 -19l-99 25l-10 -36zM177 740l42 84l17 -8l-16 -33 l91 -46l-8 -17l-92 46l-16 -35zM205 160l46 -80l23 14l-25 46l84 -10q2 0 6 1q2 0 2.5 0.5t2.5 0.5l11 8l-46 79l-23 -14l26 -45l-84 9q-2 0 -5.5 -0.5t-7.5 -3.5zM229 844l12 15l41 -30l35 49l-41 30l12 17l98 -73l-11 -16l-41 30l-36 -48l42 -31l-11 -15zM270 53l53 -59 l19 18l-33 38l18 11l23 -31l23 19l-28 31l14 11l32 -40l22 19l-51 61zM298 471q0 -105 40.5 -200.5t111 -167.5t167.5 -115t209 -43q36 0 72 5.5t70 15.5q80 24 150 70t122 111.5t82.5 147.5t30.5 176q0 103 -39.5 199t-109.5 169t-167 117t-211 44q-106 0 -202 -40 t-168 -111.5t-115 -168t-43 -209.5zM311 949l55 55l14 -16l-40 -40l20 -21l34 31l14 -14l-33 -31l21 -23l42 40l14 -16l-56 -53zM344 471q0 96 36 183.5t100.5 155t153 106.5t192.5 39q69 0 127 -17q74 -19 138.5 -61t113 -102.5t77 -137.5t28.5 -166q0 -100 -38 -188.5 t-104 -155t-154.5 -104t-187.5 -37.5q-102 0 -190 39.5t-153 106t-102 154.5t-37 185zM369 -50l20 -19l62 71l23 -21l18 20l-71 60l-21 -21l28 -22zM390 471q0 -84 29.5 -158.5t79.5 -134.5l568 570h-578q-47 -56 -73 -125.5t-26 -151.5zM412 -90l16 -9q0 -1 2 -1h3 q2 0 2.5 -0.5t2.5 0.5h5q3 0 4 1l12 9l40 -23l-2 -15v-5q0 -2 1 -3q0 -1 1 -1v-3q0 -2 2 -2l4 -3l16 -11l18 128l-23 14zM427 1048l65 41l9 -17l-47 -31l17 -26l40 25l10 -17l-40 -25l25 -43l-14 -11zM484 -74l17 15h2q2 0 2 1v1v1h1q1 1 2 1l-3 -2v-2v-3l-2 -23zM511 1100 l18 8l31 -68q0 -7 6 -10q1 -3 9 -7q2 -1 5.5 -1h5.5q6 -1 11 1q7 3 10 7q5 5 6 10q1 2 1 11q0 7 -1 11l-27 68l17 9l30 -70q1 -5 1.5 -9t0.5 -9q0 -10 -3 -20q-2 -4 -4.5 -7.5t-7.5 -6.5q-2 -5 -6 -7t-9 -4t-9.5 -3.5t-9.5 -1.5q-8 0 -19 5q-5 2 -8.5 4t-6.5 6q-7 7 -10 16z M534 797h579q-55 51 -129 81t-158 30q-85 0 -159 -29.5t-133 -81.5zM536 146q58 -50 131.5 -80.5t158.5 -30.5q84 0 159 30.5t134 80.5h-583zM539 -161l26 -12l16 42l39 -15l10 26l-38 15l6 18l49 -18l8 25l-73 27zM585 194h577q46 56 72 126.5t26 150.5q0 82 -27.5 153.5 t-82.5 142.5zM633 1146l20 5l23 -99l50 11l4 -21l-67 -15zM639 -137v-19l3 -15l6 -13l11 -12q3 -4 7.5 -5.5t6.5 -3.5q7 -4 15 -4q5 -1 8.5 -1h8.5t13 2q4 2 8.5 3t6.5 4q6 2 12 11l9 11q4 7 7 17v16q0 3 -1 6.5t-3 8.5q-1 5 -2.5 7.5t-3.5 6.5l-10 12q-3 3 -6.5 5t-7.5 4 t-7 2.5t-8 2.5q-5 1 -9 1h-8q-10 0 -14 -4q-4 -1 -7.5 -2t-7.5 -4l-12 -11q-4 -8 -10 -11q-2 -5 -3.5 -8.5t-1.5 -6.5zM670 -142q0 6 5 11l6 9l13 5h12l12 -5l9 -9q2 -3 3.5 -5t1.5 -6q2 -9 0 -15q0 -3 -1.5 -6.5t-3.5 -5.5q-3 -4 -4.5 -5.5l-4.5 -4.5q-3 -1 -5.5 -2 t-6.5 -1q-6 -3 -12 0q-4 0 -7.5 1t-5.5 2l-8 10q-2 2 -2.5 5.5t-0.5 6.5q-3 5 0 15zM721 1164l20 2l11 -100l52 5v-20l-71 -9zM769 -102l3 -122l28 1v81l52 -81h26v121h-31l4 -77q-1 0 -1 4q0 1 -1.5 1t-1.5 1q0 4 -1 4l-42 61q0 1 -2 3q-2 3 -9 3h-10h-14zM850 1051l12 120 l45 -5q6 0 15 -4q9 -5 11 -10q4 -3 7 -13q3 -7 2 -15q-2 -4 -2.5 -7.5t-2.5 -8.5q-6 -8 -9 -11q-4 -3 -15 -7q-3 -1 -13 -1l-26 3l-5 -44zM876 1110l25 -2h7q3 1 7 6q3 0 4 5q2 1 4 7q0 5 -1 8q-1 2 -2 3.5t-1 2.5q-2 2 -3.5 3t-3.5 2t-3.5 1t-2.5 1l-25 3zM888 -101l4 -27 l35 6l16 -91l27 5l-17 91l32 6l-5 26zM939 1040l32 116l44 -11q6 0 12 -6q5 -4 9 -11q4 -5 4 -13q1 -5 0.5 -8t-0.5 -7q-2 -5 -5 -10t-6 -8q-7 -5 -10 -5q-2 -2 -4.5 -2.5t-4.5 -1.5l22 -58l-15 2q-2 1 -3.5 2.5t-3.5 2.5q-3 1 -5 8l-20 47l-14 4l-13 -46zM976 1100l24 -6 q2 0 3.5 -0.5t3.5 0.5q2 0 3.5 0.5t3.5 0.5t2 1.5t1 2.5q4 4 4 6q1 3 1 7q-1 2 -1 3.5t-1 3.5q-1 1 -2.5 1.5t-1.5 2.5q-3 3 -6 3l-25 6zM996 -99v-5.5t2 -7.5q3 -8 11 -13q1 -1 3.5 -2.5t4.5 -3.5q3 0 6.5 -1t5.5 -1h13h10h2q2 0 4 -2q3 0 3 -2h3v-5q0 -2 -0.5 -3t-0.5 -2 v-1q-2 0 -3 -3t-2 -3q-2 -2 -6 -2q0 -1 -2 -1h-3q-2 0 -3.5 0.5t-3.5 0.5h-6h-8l-4 -2q-1 0 -1 -1.5t-1 -1.5l-5 -8q1 -4 3 -5.5t4 -4.5q3 -1 6.5 -2t6.5 -1q8 -3 13 -2q3 0 7 1t8 1q3 2 6.5 3.5t7.5 4.5q4 4 5.5 6t4.5 7q1 4 3.5 7t2.5 9q0 4 -0.5 7.5t-3.5 6.5q-1 8 -6 11 q-2 6 -9 8l-11 6h-15h-8h-9h-2v1q-3 3 -3 4l-2 1q2 1 2 4q0 1 1 1h2q0 1 5 1v3h1h5h3q4 0 5 1q4 0 8 1q0 2 1 3t1 2l5 10l-7 3q-8 4 -13 4q-2 0 -4.5 1t-4.5 1q-4 0 -6 -1t-4 -1l-13 -7q-2 -2 -4 -4.5t-3 -6.5q-7 -6 -8 -14zM1040 1038v13q1 11 7 22q1 4 3.5 7.5t5.5 6.5 q2 3 5 6t6 5q3 3 6.5 4t8.5 3q4 3 15 3h15q9 -1 17 -6q7 -3 15 -8q3 -4 5.5 -7.5t4.5 -5.5q2 -3 3.5 -6.5t3.5 -7.5q1 -4 2 -7.5t1 -7.5v-8t-2 -9q-1 -4 -1.5 -7.5t-3.5 -7.5l-3.5 -7l-3.5 -7q-4 -3 -7 -5.5t-5 -6.5q-4 -2 -7.5 -4t-7.5 -4q-6 0 -16 -2q-12 0 -17 1t-16 5 q-11 6 -18 16q-8 9 -14 21q-2 6 -2 11zM1059 1043q0 -2 1 -5t2 -5q1 -6 4 -10q2 -2 3.5 -4t3.5 -3q3 -4 9 -6q7 -4 12 -4h11q7 0 12 1q4 4 8 4q3 2 5.5 4t4.5 3q2 3 3 5.5t3 4.5q2 4 2.5 8t1.5 10q0 4 -0.5 7.5t-0.5 7.5q-2 4 -4.5 7.5t-4.5 5.5q-7 7 -15 10q-2 2 -5 2.5 t-6 2.5h-10q-7 0 -10 -3q-4 -2 -6.5 -2.5t-4.5 -1.5l-4 -4t-3 -4q-7 -5 -7 -8q-2 -3 -2.5 -6t-2.5 -6v-11zM1107 -135v-2q0 -3 1 -4q0 -1 1 -1q0 -6 3 -6q2 -5 7 -6h6q5 0 8 2q1 2 3 3t2 3v2q0 2 2 2l3 3v2q0 6 -5 6q0 6 -3 6q-2 3 -5 3q-2 0 -3.5 1t-3.5 1q-1 -2 -6 -2 l-7 -4q-1 -1 -1 -3v-2q-2 -2 -2 -4zM1119 -43v-16q0 -4 1.5 -7.5t1.5 -7.5l6 -15q3 -4 6.5 -6t5.5 -5l14 -11l12 -2q5 -2 17 -2q4 0 7 1t7 2q5 1 8.5 4t6.5 6q2 1 5.5 2.5t5.5 4.5q3 1 5 4t5 6l4 14q4 4 4 14l-12 2h-6l-8 -4q-2 0 -3 -3t-1 -5l-5 -9l-9 -6q-4 -2 -6 -3.5 t-5 -1.5q-7 -3 -14 0q-2 2 -5 2.5t-6 2.5q-6 4 -7 11q-5 2 -5 12q-4 3 0 14q0 2 0.5 4t1.5 7l4 4t5 3q7 4 9 4q3 1 11 1q2 0 10 5q2 3 5 5l2 6v9q-3 4 -12 4h-14l-14 -5l-11 -5q-2 -2 -5.5 -4.5t-6.5 -6.5q-2 -2 -4.5 -6t-4.5 -8zM1196 913l41 127l9 -8q1 -2 2 -3.5t3 -3.5 q0 -5 -2 -8l-27 -88l84 39q1 1 8 1q4 0 6 -3l10 -9l-120 -55zM1206 11q0 -4 2 -8l4 -14l11 -13l14 -10q4 -1 7 -3.5t8 -2.5q4 0 8 -1.5t8 -1.5q2 0 6 1.5t9 1.5q2 0 5.5 2.5t7.5 3.5q7 3 14 10l10 13q1 2 3 5.5t2 8.5q1 4 1 14v17l-6 12q-2 4 -4 7.5t-4 6.5l-14 14l-15 3 q-4 3 -15 3q-4 0 -8 -0.5t-8 -2.5l-13 -3q-4 -3 -8 -7l-7 -7l-4 -6t-5 -5q-3 -4 -4 -7.5t-3 -7.5q0 -4 -1 -7.5t-1 -8.5v-7zM1236 18q0 8 1 12q3 8 7 12l11 8q3 0 6.5 0.5t6.5 0.5q4 0 12 -2q2 -2 4.5 -3.5t5.5 -5.5q3 -1 4.5 -4t3.5 -6t2 -13v-5.5t-2 -5.5q-4 -9 -8 -10 q-7 -7 -10 -8q-3 -2 -6.5 -2h-5.5q-4 0 -7.5 1t-5.5 1l-11 8q-4 4 -7 11q-1 4 -1 11zM1247 866l92 78l50 -57l-15 -15l-38 46l-22 -20l28 -37l-16 -11l-28 36l-24 -22l36 -43l-16 -12zM1268 100l98 -66l16 22l-47 34l62 -13l11 20l-34 51l48 -30l16 24l-101 66l-12 -18 q-1 -2 -2.5 -4t-1.5 -6q0 -2 1.5 -4t2.5 -4l41 -59l-71 10h-10l-9 -6zM1300 800l104 62l23 -38q2 -3 3 -6t3 -8q2 -7 -2 -12q-2 -9 -6 -14l-4.5 -4.5t-6.5 -5.5q-3 -1 -5 -1.5t-5 -1.5q-3 0 -5 -1t-5 1q-4 0 -11 2q-3 1 -5 2t-4 3l-23 -60l-10 13q-4 2 -4 7q0 7 3 10l21 49 l-8 12l-43 -26zM1355 705q0 3 2 13q0 3 3 5l2 4q0 4 2 4q4 2 3 2l4 -2q3 -5 5 -6q0 -2 0.5 -3t0.5 -2q0 -4 -3 -7v-1v-7q0 -5 2 -10q0 -1 1 -2.5t2 -3.5q2 -1 3.5 -2.5t3.5 -2.5q1 -1 3 -1t4 -2h4.5t4.5 2q2 0 5 3q2 4 2 5q1 3 1 8v8v4v12q0 8 2 13q1 2 2.5 4.5t3.5 5.5 q3 2 5 4t7 4q8 3 14 2q6 0 12 -4q3 -2 6.5 -4t5.5 -6q3 -3 7 -11q2 -6 2 -10q0 -6 -1 -10q0 -4 -3 -11q-1 -2 -1.5 -4t-2.5 -4l-6 4q-3 1 -4 2.5t-3 3.5q-1 3 -1.5 5t0.5 5q1 1 1 8q0 3 -1 5q-2 2 -2 6q-3 0 -5 4q-2 1 -5 1q-3 1 -5 0t-2.5 -2t-1.5 -2t-2 -1.5t-2 -2.5v-7 v-10v-3v-2v-11q0 -2 -1 -4.5t-1 -4.5q-4 -14 -19 -21q-4 -2 -7.5 -3.5t-8.5 1.5q-6 0 -15 2q-3 3 -6.5 5t-5.5 6q-3 2 -5 5.5t-4 7.5q-2 10 -2 16zM1369 818l13 -19q3 -5 4 -6q1 0 7 -3h6q2 0 5 3q2 0 6 4q0 2 1 3t1 3q1 1 1 6q-1 1 -1 2.5t-2 3.5l-11 20zM1376 640l117 35 l5 -20l-117 -33zM1394 552q-1 13 1 25q5 12 10 20q7 9 18 16q5 3 11.5 6t11.5 3h19q6 0 15 -5q4 -1 7.5 -3.5t5.5 -4.5q3 -2 6.5 -4.5t5.5 -6.5q4 -8 8 -12q2 -8 5 -19v-15q-2 -10 -5 -15q-2 -5 -4 -9t-4 -7l-10 -10q-4 -4 -7.5 -5t-6.5 -3q-7 -4 -16 -4q-10 -1 -19 0 q-8 0 -15 4q-2 2 -6 3t-8 4q-3 2 -5.5 5.5t-4.5 5.5q-6 5 -8 16q-2 3 -3.5 6.5t-1.5 8.5zM1395 380l2 16l98 62l-93 6l1 19l121 -9l-1 -12q0 -5 -1 -8q-3 -3 -4 -5l-83 -53l84 -6l-2 -19zM1413 555q2 -8 4 -11q0 -6 5 -9q1 -3 3 -5.5t3 -4.5q3 -1 5.5 -2.5t5.5 -2.5 q2 -2 5 -2h5q5 -3 11 0q11 0 18 5q5 2 12 12q6 8 6 15q3 7 1 16q0 6 -2 11q-2 3 -3 5l-2 4l-4 4t-4 3q-5 4 -11 5q-3 4 -11 4q-4 2 -11 0q-7 0 -10 -4q-5 -1 -11 -5q-4 -1 -6 -7q-5 -5 -5 -9q-2 -2 -2.5 -5.5t-1.5 -5.5v-11z" />
<glyph unicode="3" d="M125 431v6.5t1 5.5q2 8 2 14q2 3 3.5 5.5t3.5 5.5q2 2 3.5 5t3.5 5l4 -4q2 -1 3.5 -2t2.5 -1q1 -3 1 -7v-4t-2 -3q-4 -5 -5 -12q-1 -5 -1 -13t3 -17q3 -4 6 -7.5t5 -6.5q5 -5 14 -7q7 -4 17 -3q6 0 13 3l4 2t4 3t4.5 3t4.5 5q1 2 2.5 4t3.5 4q0 4 1 6.5t2 5.5q1 4 1 11 q-1 3 -1.5 7t-2.5 8q0 3 -5 10l-18 -1v-5v-5q0 -2 -3 -6q-1 -1 -1.5 -2t-2.5 -2t-7 -1h-6l-3 38l51 3q2 -2 5 -4t4 -4q2 -2 3.5 -5t1.5 -5q1 -7 4 -12q0 -3 0.5 -6.5t0.5 -5.5q0 -8 -0.5 -14t-3.5 -11q-1 -7 -4 -12.5t-8 -10.5q-7 -9 -19 -13q-11 -7 -22 -7h-19 q-4 2 -7.5 3.5t-7.5 3.5q-4 1 -6.5 3t-6.5 4l-6 6t-5 7q-2 2 -3.5 6t-3.5 8q-1 5 -1.5 9t-1.5 9zM125 506l8 77l20 -1l-7 -58l31 -4l5 47l21 -1l-5 -47l31 -3l5 58l21 -3l-9 -77zM135 597l23 91l19 -5l-10 -38l99 -23l-4 -19l-99 25l-10 -36zM177 740l42 84l17 -8l-16 -33 l91 -46l-8 -17l-92 46l-16 -35zM205 160l46 -80l23 14l-25 46l84 -10q2 0 6 1q2 0 2.5 0.5t2.5 0.5l11 8l-46 79l-23 -14l26 -45l-84 9q-2 0 -5.5 -0.5t-7.5 -3.5zM229 844l12 15l41 -30l35 49l-41 30l12 17l98 -73l-11 -16l-41 30l-36 -48l42 -31l-11 -15zM270 53l53 -59 l19 18l-33 38l18 11l23 -31l23 19l-28 31l14 11l32 -40l22 19l-51 61zM298 471q0 -105 40.5 -200.5t111 -167.5t167.5 -115t209 -43q36 0 72 5.5t70 15.5q80 24 150 70t122 111.5t82.5 147.5t30.5 176q0 103 -39.5 199t-109.5 169t-167 117t-211 44q-106 0 -202 -40 t-168 -111.5t-115 -168t-43 -209.5zM311 949l55 55l14 -16l-40 -40l20 -21l34 31l14 -14l-33 -31l21 -23l42 40l14 -16l-56 -53zM344 471q0 96 36 183.5t100.5 155t153 106.5t192.5 39q69 0 127 -17q74 -19 138.5 -61t113 -102.5t77 -137.5t28.5 -166q0 -100 -38 -188.5 t-104 -155t-154.5 -104t-187.5 -37.5q-102 0 -190 39.5t-153 106t-102 154.5t-37 185zM369 -50l20 -19l62 71l23 -21l18 20l-71 60l-21 -21l28 -22zM390 471q0 -84 29.5 -158.5t79.5 -134.5l568 570h-578q-47 -56 -73 -125.5t-26 -151.5zM412 -90l16 -9q0 -1 2 -1h3 q2 0 2.5 -0.5t2.5 0.5h5q3 0 4 1l12 9l40 -23l-2 -15v-5q0 -2 1 -3q0 -1 1 -1v-3q0 -2 2 -2l4 -3l16 -11l18 128l-23 14zM427 1048l65 41l9 -17l-47 -31l17 -26l40 25l10 -17l-40 -25l25 -43l-14 -11zM484 -74l17 15h2q2 0 2 1v1v1h1q1 1 2 1l-3 -2v-2v-3l-2 -23zM511 1100 l18 8l31 -68q0 -7 6 -10q1 -3 9 -7q2 -1 5.5 -1h5.5q6 -1 11 1q7 3 10 7q5 5 6 10q1 2 1 11q0 7 -1 11l-27 68l17 9l30 -70q1 -5 1.5 -9t0.5 -9q0 -10 -3 -20q-2 -4 -4.5 -7.5t-7.5 -6.5q-2 -5 -6 -7t-9 -4t-9.5 -3.5t-9.5 -1.5q-8 0 -19 5q-5 2 -8.5 4t-6.5 6q-7 7 -10 16z M534 797h579q-55 51 -129 81t-158 30q-85 0 -159 -29.5t-133 -81.5zM536 146q58 -50 131.5 -80.5t158.5 -30.5q84 0 159 30.5t134 80.5h-583zM539 -161l26 -12l16 42l39 -15l10 26l-38 15l6 18l49 -18l8 25l-73 27zM585 194h577q46 56 72 126.5t26 150.5q0 82 -27.5 153.5 t-82.5 142.5zM633 1146l20 5l23 -99l50 11l4 -21l-67 -15zM639 -137v-19l3 -15l6 -13l11 -12q3 -4 7.5 -5.5t6.5 -3.5q7 -4 15 -4q5 -1 8.5 -1h8.5t13 2q4 2 8.5 3t6.5 4q6 2 12 11l9 11q4 7 7 17v16q0 3 -1 6.5t-3 8.5q-1 5 -2.5 7.5t-3.5 6.5l-10 12q-3 3 -6.5 5t-7.5 4 t-7 2.5t-8 2.5q-5 1 -9 1h-8q-10 0 -14 -4q-4 -1 -7.5 -2t-7.5 -4l-12 -11q-4 -8 -10 -11q-2 -5 -3.5 -8.5t-1.5 -6.5zM670 -142q0 6 5 11l6 9l13 5h12l12 -5l9 -9q2 -3 3.5 -5t1.5 -6q2 -9 0 -15q0 -3 -1.5 -6.5t-3.5 -5.5q-3 -4 -4.5 -5.5l-4.5 -4.5q-3 -1 -5.5 -2 t-6.5 -1q-6 -3 -12 0q-4 0 -7.5 1t-5.5 2l-8 10q-2 2 -2.5 5.5t-0.5 6.5q-3 5 0 15zM721 1164l20 2l11 -100l52 5v-20l-71 -9zM769 -102l3 -122l28 1v81l52 -81h26v121h-31l4 -77q-1 0 -1 4q0 1 -1.5 1t-1.5 1q0 4 -1 4l-42 61q0 1 -2 3q-2 3 -9 3h-10h-14zM850 1051l12 120 l45 -5q6 0 15 -4q9 -5 11 -10q4 -3 7 -13q3 -7 2 -15q-2 -4 -2.5 -7.5t-2.5 -8.5q-6 -8 -9 -11q-4 -3 -15 -7q-3 -1 -13 -1l-26 3l-5 -44zM876 1110l25 -2h7q3 1 7 6q3 0 4 5q2 1 4 7q0 5 -1 8q-1 2 -2 3.5t-1 2.5q-2 2 -3.5 3t-3.5 2t-3.5 1t-2.5 1l-25 3zM888 -101l4 -27 l35 6l16 -91l27 5l-17 91l32 6l-5 26zM939 1040l32 116l44 -11q6 0 12 -6q5 -4 9 -11q4 -5 4 -13q1 -5 0.5 -8t-0.5 -7q-2 -5 -5 -10t-6 -8q-7 -5 -10 -5q-2 -2 -4.5 -2.5t-4.5 -1.5l22 -58l-15 2q-2 1 -3.5 2.5t-3.5 2.5q-3 1 -5 8l-20 47l-14 4l-13 -46zM976 1100l24 -6 q2 0 3.5 -0.5t3.5 0.5q2 0 3.5 0.5t3.5 0.5t2 1.5t1 2.5q4 4 4 6q1 3 1 7q-1 2 -1 3.5t-1 3.5q-1 1 -2.5 1.5t-1.5 2.5q-3 3 -6 3l-25 6zM996 -99v-5.5t2 -7.5q3 -8 11 -13q1 -1 3.5 -2.5t4.5 -3.5q3 0 6.5 -1t5.5 -1h13h10h2q2 0 4 -2q3 0 3 -2h3v-5q0 -2 -0.5 -3t-0.5 -2 v-1q-2 0 -3 -3t-2 -3q-2 -2 -6 -2q0 -1 -2 -1h-3q-2 0 -3.5 0.5t-3.5 0.5h-6h-8l-4 -2q-1 0 -1 -1.5t-1 -1.5l-5 -8q1 -4 3 -5.5t4 -4.5q3 -1 6.5 -2t6.5 -1q8 -3 13 -2q3 0 7 1t8 1q3 2 6.5 3.5t7.5 4.5q4 4 5.5 6t4.5 7q1 4 3.5 7t2.5 9q0 4 -0.5 7.5t-3.5 6.5q-1 8 -6 11 q-2 6 -9 8l-11 6h-15h-8h-9h-2v1q-3 3 -3 4l-2 1q2 1 2 4q0 1 1 1h2q0 1 5 1v3h1h5h3q4 0 5 1q4 0 8 1q0 2 1 3t1 2l5 10l-7 3q-8 4 -13 4q-2 0 -4.5 1t-4.5 1q-4 0 -6 -1t-4 -1l-13 -7q-2 -2 -4 -4.5t-3 -6.5q-7 -6 -8 -14zM1040 1038v13q1 11 7 22q1 4 3.5 7.5t5.5 6.5 q2 3 5 6t6 5q3 3 6.5 4t8.5 3q4 3 15 3h15q9 -1 17 -6q7 -3 15 -8q3 -4 5.5 -7.5t4.5 -5.5q2 -3 3.5 -6.5t3.5 -7.5q1 -4 2 -7.5t1 -7.5v-8t-2 -9q-1 -4 -1.5 -7.5t-3.5 -7.5l-3.5 -7l-3.5 -7q-4 -3 -7 -5.5t-5 -6.5q-4 -2 -7.5 -4t-7.5 -4q-6 0 -16 -2q-12 0 -17 1t-16 5 q-11 6 -18 16q-8 9 -14 21q-2 6 -2 11zM1059 1043q0 -2 1 -5t2 -5q1 -6 4 -10q2 -2 3.5 -4t3.5 -3q3 -4 9 -6q7 -4 12 -4h11q7 0 12 1q4 4 8 4q3 2 5.5 4t4.5 3q2 3 3 5.5t3 4.5q2 4 2.5 8t1.5 10q0 4 -0.5 7.5t-0.5 7.5q-2 4 -4.5 7.5t-4.5 5.5q-7 7 -15 10q-2 2 -5 2.5 t-6 2.5h-10q-7 0 -10 -3q-4 -2 -6.5 -2.5t-4.5 -1.5l-4 -4t-3 -4q-7 -5 -7 -8q-2 -3 -2.5 -6t-2.5 -6v-11zM1107 -135v-2q0 -3 1 -4q0 -1 1 -1q0 -6 3 -6q2 -5 7 -6h6q5 0 8 2q1 2 3 3t2 3v2q0 2 2 2l3 3v2q0 6 -5 6q0 6 -3 6q-2 3 -5 3q-2 0 -3.5 1t-3.5 1q-1 -2 -6 -2 l-7 -4q-1 -1 -1 -3v-2q-2 -2 -2 -4zM1119 -43v-16q0 -4 1.5 -7.5t1.5 -7.5l6 -15q3 -4 6.5 -6t5.5 -5l14 -11l12 -2q5 -2 17 -2q4 0 7 1t7 2q5 1 8.5 4t6.5 6q2 1 5.5 2.5t5.5 4.5q3 1 5 4t5 6l4 14q4 4 4 14l-12 2h-6l-8 -4q-2 0 -3 -3t-1 -5l-5 -9l-9 -6q-4 -2 -6 -3.5 t-5 -1.5q-7 -3 -14 0q-2 2 -5 2.5t-6 2.5q-6 4 -7 11q-5 2 -5 12q-4 3 0 14q0 2 0.5 4t1.5 7l4 4t5 3q7 4 9 4q3 1 11 1q2 0 10 5q2 3 5 5l2 6v9q-3 4 -12 4h-14l-14 -5l-11 -5q-2 -2 -5.5 -4.5t-6.5 -6.5q-2 -2 -4.5 -6t-4.5 -8zM1196 913l41 127l9 -8q1 -2 2 -3.5t3 -3.5 q0 -5 -2 -8l-27 -88l84 39q1 1 8 1q4 0 6 -3l10 -9l-120 -55zM1206 11q0 -4 2 -8l4 -14l11 -13l14 -10q4 -1 7 -3.5t8 -2.5q4 0 8 -1.5t8 -1.5q2 0 6 1.5t9 1.5q2 0 5.5 2.5t7.5 3.5q7 3 14 10l10 13q1 2 3 5.5t2 8.5q1 4 1 14v17l-6 12q-2 4 -4 7.5t-4 6.5l-14 14l-15 3 q-4 3 -15 3q-4 0 -8 -0.5t-8 -2.5l-13 -3q-4 -3 -8 -7l-7 -7l-4 -6t-5 -5q-3 -4 -4 -7.5t-3 -7.5q0 -4 -1 -7.5t-1 -8.5v-7zM1236 18q0 8 1 12q3 8 7 12l11 8q3 0 6.5 0.5t6.5 0.5q4 0 12 -2q2 -2 4.5 -3.5t5.5 -5.5q3 -1 4.5 -4t3.5 -6t2 -13v-5.5t-2 -5.5q-4 -9 -8 -10 q-7 -7 -10 -8q-3 -2 -6.5 -2h-5.5q-4 0 -7.5 1t-5.5 1l-11 8q-4 4 -7 11q-1 4 -1 11zM1247 866l92 78l50 -57l-15 -15l-38 46l-22 -20l28 -37l-16 -11l-28 36l-24 -22l36 -43l-16 -12zM1268 100l98 -66l16 22l-47 34l62 -13l11 20l-34 51l48 -30l16 24l-101 66l-12 -18 q-1 -2 -2.5 -4t-1.5 -6q0 -2 1.5 -4t2.5 -4l41 -59l-71 10h-10l-9 -6zM1300 800l104 62l23 -38q2 -3 3 -6t3 -8q2 -7 -2 -12q-2 -9 -6 -14l-4.5 -4.5t-6.5 -5.5q-3 -1 -5 -1.5t-5 -1.5q-3 0 -5 -1t-5 1q-4 0 -11 2q-3 1 -5 2t-4 3l-23 -60l-10 13q-4 2 -4 7q0 7 3 10l21 49 l-8 12l-43 -26zM1355 705q0 3 2 13q0 3 3 5l2 4q0 4 2 4q4 2 3 2l4 -2q3 -5 5 -6q0 -2 0.5 -3t0.5 -2q0 -4 -3 -7v-1v-7q0 -5 2 -10q0 -1 1 -2.5t2 -3.5q2 -1 3.5 -2.5t3.5 -2.5q1 -1 3 -1t4 -2h4.5t4.5 2q2 0 5 3q2 4 2 5q1 3 1 8v8v4v12q0 8 2 13q1 2 2.5 4.5t3.5 5.5 q3 2 5 4t7 4q8 3 14 2q6 0 12 -4q3 -2 6.5 -4t5.5 -6q3 -3 7 -11q2 -6 2 -10q0 -6 -1 -10q0 -4 -3 -11q-1 -2 -1.5 -4t-2.5 -4l-6 4q-3 1 -4 2.5t-3 3.5q-1 3 -1.5 5t0.5 5q1 1 1 8q0 3 -1 5q-2 2 -2 6q-3 0 -5 4q-2 1 -5 1q-3 1 -5 0t-2.5 -2t-1.5 -2t-2 -1.5t-2 -2.5v-7 v-10v-3v-2v-11q0 -2 -1 -4.5t-1 -4.5q-4 -14 -19 -21q-4 -2 -7.5 -3.5t-8.5 1.5q-6 0 -15 2q-3 3 -6.5 5t-5.5 6q-3 2 -5 5.5t-4 7.5q-2 10 -2 16zM1369 818l13 -19q3 -5 4 -6q1 0 7 -3h6q2 0 5 3q2 0 6 4q0 2 1 3t1 3q1 1 1 6q-1 1 -1 2.5t-2 3.5l-11 20zM1376 640l117 35 l5 -20l-117 -33zM1394 552q-1 13 1 25q5 12 10 20q7 9 18 16q5 3 11.5 6t11.5 3h19q6 0 15 -5q4 -1 7.5 -3.5t5.5 -4.5q3 -2 6.5 -4.5t5.5 -6.5q4 -8 8 -12q2 -8 5 -19v-15q-2 -10 -5 -15q-2 -5 -4 -9t-4 -7l-10 -10q-4 -4 -7.5 -5t-6.5 -3q-7 -4 -16 -4q-10 -1 -19 0 q-8 0 -15 4q-2 2 -6 3t-8 4q-3 2 -5.5 5.5t-4.5 5.5q-6 5 -8 16q-2 3 -3.5 6.5t-1.5 8.5zM1395 380l2 16l98 62l-93 6l1 19l121 -9l-1 -12q0 -5 -1 -8q-3 -3 -4 -5l-83 -53l84 -6l-2 -19zM1413 555q2 -8 4 -11q0 -6 5 -9q1 -3 3 -5.5t3 -4.5q3 -1 5.5 -2.5t5.5 -2.5 q2 -2 5 -2h5q5 -3 11 0q11 0 18 5q5 2 12 12q6 8 6 15q3 7 1 16q0 6 -2 11q-2 3 -3 5l-2 4l-4 4t-4 3q-5 4 -11 5q-3 4 -11 4q-4 2 -11 0q-7 0 -10 -4q-5 -1 -11 -5q-4 -1 -6 -7q-5 -5 -5 -9q-2 -2 -2.5 -5.5t-1.5 -5.5v-11z" />
<glyph unicode="4" d="M125 431v6.5t1 5.5q2 8 2 14q2 3 3.5 5.5t3.5 5.5q2 2 3.5 5t3.5 5l4 -4q2 -1 3.5 -2t2.5 -1q1 -3 1 -7v-4t-2 -3q-4 -5 -5 -12q-1 -5 -1 -13t3 -17q3 -4 6 -7.5t5 -6.5q5 -5 14 -7q7 -4 17 -3q6 0 13 3l4 2t4 3t4.5 3t4.5 5q1 2 2.5 4t3.5 4q0 4 1 6.5t2 5.5q1 4 1 11 q-1 3 -1.5 7t-2.5 8q0 3 -5 10l-18 -1v-5v-5q0 -2 -3 -6q-1 -1 -1.5 -2t-2.5 -2t-7 -1h-6l-3 38l51 3q2 -2 5 -4t4 -4q2 -2 3.5 -5t1.5 -5q1 -7 4 -12q0 -3 0.5 -6.5t0.5 -5.5q0 -8 -0.5 -14t-3.5 -11q-1 -7 -4 -12.5t-8 -10.5q-7 -9 -19 -13q-11 -7 -22 -7h-19 q-4 2 -7.5 3.5t-7.5 3.5q-4 1 -6.5 3t-6.5 4l-6 6t-5 7q-2 2 -3.5 6t-3.5 8q-1 5 -1.5 9t-1.5 9zM125 506l8 77l20 -1l-7 -58l31 -4l5 47l21 -1l-5 -47l31 -3l5 58l21 -3l-9 -77zM135 597l23 91l19 -5l-10 -38l99 -23l-4 -19l-99 25l-10 -36zM177 740l42 84l17 -8l-16 -33 l91 -46l-8 -17l-92 46l-16 -35zM205 160l46 -80l23 14l-25 46l84 -10q2 0 6 1q2 0 2.5 0.5t2.5 0.5l11 8l-46 79l-23 -14l26 -45l-84 9q-2 0 -5.5 -0.5t-7.5 -3.5zM229 844l12 15l41 -30l35 49l-41 30l12 17l98 -73l-11 -16l-41 30l-36 -48l42 -31l-11 -15zM270 53l53 -59 l19 18l-33 38l18 11l23 -31l23 19l-28 31l14 11l32 -40l22 19l-51 61zM298 471q0 -105 40.5 -200.5t111 -167.5t167.5 -115t209 -43q36 0 72 5.5t70 15.5q80 24 150 70t122 111.5t82.5 147.5t30.5 176q0 103 -39.5 199t-109.5 169t-167 117t-211 44q-106 0 -202 -40 t-168 -111.5t-115 -168t-43 -209.5zM311 949l55 55l14 -16l-40 -40l20 -21l34 31l14 -14l-33 -31l21 -23l42 40l14 -16l-56 -53zM344 471q0 96 36 183.5t100.5 155t153 106.5t192.5 39q69 0 127 -17q74 -19 138.5 -61t113 -102.5t77 -137.5t28.5 -166q0 -100 -38 -188.5 t-104 -155t-154.5 -104t-187.5 -37.5q-102 0 -190 39.5t-153 106t-102 154.5t-37 185zM369 -50l20 -19l62 71l23 -21l18 20l-71 60l-21 -21l28 -22zM390 471q0 -84 29.5 -158.5t79.5 -134.5l568 570h-578q-47 -56 -73 -125.5t-26 -151.5zM412 -90l16 -9q0 -1 2 -1h3 q2 0 2.5 -0.5t2.5 0.5h5q3 0 4 1l12 9l40 -23l-2 -15v-5q0 -2 1 -3q0 -1 1 -1v-3q0 -2 2 -2l4 -3l16 -11l18 128l-23 14zM427 1048l65 41l9 -17l-47 -31l17 -26l40 25l10 -17l-40 -25l25 -43l-14 -11zM484 -74l17 15h2q2 0 2 1v1v1h1q1 1 2 1l-3 -2v-2v-3l-2 -23zM511 1100 l18 8l31 -68q0 -7 6 -10q1 -3 9 -7q2 -1 5.5 -1h5.5q6 -1 11 1q7 3 10 7q5 5 6 10q1 2 1 11q0 7 -1 11l-27 68l17 9l30 -70q1 -5 1.5 -9t0.5 -9q0 -10 -3 -20q-2 -4 -4.5 -7.5t-7.5 -6.5q-2 -5 -6 -7t-9 -4t-9.5 -3.5t-9.5 -1.5q-8 0 -19 5q-5 2 -8.5 4t-6.5 6q-7 7 -10 16z M534 797h579q-55 51 -129 81t-158 30q-85 0 -159 -29.5t-133 -81.5zM536 146q58 -50 131.5 -80.5t158.5 -30.5q84 0 159 30.5t134 80.5h-583zM539 -161l26 -12l16 42l39 -15l10 26l-38 15l6 18l49 -18l8 25l-73 27zM585 194h577q46 56 72 126.5t26 150.5q0 82 -27.5 153.5 t-82.5 142.5zM633 1146l20 5l23 -99l50 11l4 -21l-67 -15zM639 -137v-19l3 -15l6 -13l11 -12q3 -4 7.5 -5.5t6.5 -3.5q7 -4 15 -4q5 -1 8.5 -1h8.5t13 2q4 2 8.5 3t6.5 4q6 2 12 11l9 11q4 7 7 17v16q0 3 -1 6.5t-3 8.5q-1 5 -2.5 7.5t-3.5 6.5l-10 12q-3 3 -6.5 5t-7.5 4 t-7 2.5t-8 2.5q-5 1 -9 1h-8q-10 0 -14 -4q-4 -1 -7.5 -2t-7.5 -4l-12 -11q-4 -8 -10 -11q-2 -5 -3.5 -8.5t-1.5 -6.5zM670 -142q0 6 5 11l6 9l13 5h12l12 -5l9 -9q2 -3 3.5 -5t1.5 -6q2 -9 0 -15q0 -3 -1.5 -6.5t-3.5 -5.5q-3 -4 -4.5 -5.5l-4.5 -4.5q-3 -1 -5.5 -2 t-6.5 -1q-6 -3 -12 0q-4 0 -7.5 1t-5.5 2l-8 10q-2 2 -2.5 5.5t-0.5 6.5q-3 5 0 15zM721 1164l20 2l11 -100l52 5v-20l-71 -9zM769 -102l3 -122l28 1v81l52 -81h26v121h-31l4 -77q-1 0 -1 4q0 1 -1.5 1t-1.5 1q0 4 -1 4l-42 61q0 1 -2 3q-2 3 -9 3h-10h-14zM850 1051l12 120 l45 -5q6 0 15 -4q9 -5 11 -10q4 -3 7 -13q3 -7 2 -15q-2 -4 -2.5 -7.5t-2.5 -8.5q-6 -8 -9 -11q-4 -3 -15 -7q-3 -1 -13 -1l-26 3l-5 -44zM876 1110l25 -2h7q3 1 7 6q3 0 4 5q2 1 4 7q0 5 -1 8q-1 2 -2 3.5t-1 2.5q-2 2 -3.5 3t-3.5 2t-3.5 1t-2.5 1l-25 3zM888 -101l4 -27 l35 6l16 -91l27 5l-17 91l32 6l-5 26zM939 1040l32 116l44 -11q6 0 12 -6q5 -4 9 -11q4 -5 4 -13q1 -5 0.5 -8t-0.5 -7q-2 -5 -5 -10t-6 -8q-7 -5 -10 -5q-2 -2 -4.5 -2.5t-4.5 -1.5l22 -58l-15 2q-2 1 -3.5 2.5t-3.5 2.5q-3 1 -5 8l-20 47l-14 4l-13 -46zM976 1100l24 -6 q2 0 3.5 -0.5t3.5 0.5q2 0 3.5 0.5t3.5 0.5t2 1.5t1 2.5q4 4 4 6q1 3 1 7q-1 2 -1 3.5t-1 3.5q-1 1 -2.5 1.5t-1.5 2.5q-3 3 -6 3l-25 6zM996 -99v-5.5t2 -7.5q3 -8 11 -13q1 -1 3.5 -2.5t4.5 -3.5q3 0 6.5 -1t5.5 -1h13h10h2q2 0 4 -2q3 0 3 -2h3v-5q0 -2 -0.5 -3t-0.5 -2 v-1q-2 0 -3 -3t-2 -3q-2 -2 -6 -2q0 -1 -2 -1h-3q-2 0 -3.5 0.5t-3.5 0.5h-6h-8l-4 -2q-1 0 -1 -1.5t-1 -1.5l-5 -8q1 -4 3 -5.5t4 -4.5q3 -1 6.5 -2t6.5 -1q8 -3 13 -2q3 0 7 1t8 1q3 2 6.5 3.5t7.5 4.5q4 4 5.5 6t4.5 7q1 4 3.5 7t2.5 9q0 4 -0.5 7.5t-3.5 6.5q-1 8 -6 11 q-2 6 -9 8l-11 6h-15h-8h-9h-2v1q-3 3 -3 4l-2 1q2 1 2 4q0 1 1 1h2q0 1 5 1v3h1h5h3q4 0 5 1q4 0 8 1q0 2 1 3t1 2l5 10l-7 3q-8 4 -13 4q-2 0 -4.5 1t-4.5 1q-4 0 -6 -1t-4 -1l-13 -7q-2 -2 -4 -4.5t-3 -6.5q-7 -6 -8 -14zM1040 1038v13q1 11 7 22q1 4 3.5 7.5t5.5 6.5 q2 3 5 6t6 5q3 3 6.5 4t8.5 3q4 3 15 3h15q9 -1 17 -6q7 -3 15 -8q3 -4 5.5 -7.5t4.5 -5.5q2 -3 3.5 -6.5t3.5 -7.5q1 -4 2 -7.5t1 -7.5v-8t-2 -9q-1 -4 -1.5 -7.5t-3.5 -7.5l-3.5 -7l-3.5 -7q-4 -3 -7 -5.5t-5 -6.5q-4 -2 -7.5 -4t-7.5 -4q-6 0 -16 -2q-12 0 -17 1t-16 5 q-11 6 -18 16q-8 9 -14 21q-2 6 -2 11zM1059 1043q0 -2 1 -5t2 -5q1 -6 4 -10q2 -2 3.5 -4t3.5 -3q3 -4 9 -6q7 -4 12 -4h11q7 0 12 1q4 4 8 4q3 2 5.5 4t4.5 3q2 3 3 5.5t3 4.5q2 4 2.5 8t1.5 10q0 4 -0.5 7.5t-0.5 7.5q-2 4 -4.5 7.5t-4.5 5.5q-7 7 -15 10q-2 2 -5 2.5 t-6 2.5h-10q-7 0 -10 -3q-4 -2 -6.5 -2.5t-4.5 -1.5l-4 -4t-3 -4q-7 -5 -7 -8q-2 -3 -2.5 -6t-2.5 -6v-11zM1107 -135v-2q0 -3 1 -4q0 -1 1 -1q0 -6 3 -6q2 -5 7 -6h6q5 0 8 2q1 2 3 3t2 3v2q0 2 2 2l3 3v2q0 6 -5 6q0 6 -3 6q-2 3 -5 3q-2 0 -3.5 1t-3.5 1q-1 -2 -6 -2 l-7 -4q-1 -1 -1 -3v-2q-2 -2 -2 -4zM1119 -43v-16q0 -4 1.5 -7.5t1.5 -7.5l6 -15q3 -4 6.5 -6t5.5 -5l14 -11l12 -2q5 -2 17 -2q4 0 7 1t7 2q5 1 8.5 4t6.5 6q2 1 5.5 2.5t5.5 4.5q3 1 5 4t5 6l4 14q4 4 4 14l-12 2h-6l-8 -4q-2 0 -3 -3t-1 -5l-5 -9l-9 -6q-4 -2 -6 -3.5 t-5 -1.5q-7 -3 -14 0q-2 2 -5 2.5t-6 2.5q-6 4 -7 11q-5 2 -5 12q-4 3 0 14q0 2 0.5 4t1.5 7l4 4t5 3q7 4 9 4q3 1 11 1q2 0 10 5q2 3 5 5l2 6v9q-3 4 -12 4h-14l-14 -5l-11 -5q-2 -2 -5.5 -4.5t-6.5 -6.5q-2 -2 -4.5 -6t-4.5 -8zM1196 913l41 127l9 -8q1 -2 2 -3.5t3 -3.5 q0 -5 -2 -8l-27 -88l84 39q1 1 8 1q4 0 6 -3l10 -9l-120 -55zM1206 11q0 -4 2 -8l4 -14l11 -13l14 -10q4 -1 7 -3.5t8 -2.5q4 0 8 -1.5t8 -1.5q2 0 6 1.5t9 1.5q2 0 5.5 2.5t7.5 3.5q7 3 14 10l10 13q1 2 3 5.5t2 8.5q1 4 1 14v17l-6 12q-2 4 -4 7.5t-4 6.5l-14 14l-15 3 q-4 3 -15 3q-4 0 -8 -0.5t-8 -2.5l-13 -3q-4 -3 -8 -7l-7 -7l-4 -6t-5 -5q-3 -4 -4 -7.5t-3 -7.5q0 -4 -1 -7.5t-1 -8.5v-7zM1236 18q0 8 1 12q3 8 7 12l11 8q3 0 6.5 0.5t6.5 0.5q4 0 12 -2q2 -2 4.5 -3.5t5.5 -5.5q3 -1 4.5 -4t3.5 -6t2 -13v-5.5t-2 -5.5q-4 -9 -8 -10 q-7 -7 -10 -8q-3 -2 -6.5 -2h-5.5q-4 0 -7.5 1t-5.5 1l-11 8q-4 4 -7 11q-1 4 -1 11zM1247 866l92 78l50 -57l-15 -15l-38 46l-22 -20l28 -37l-16 -11l-28 36l-24 -22l36 -43l-16 -12zM1268 100l98 -66l16 22l-47 34l62 -13l11 20l-34 51l48 -30l16 24l-101 66l-12 -18 q-1 -2 -2.5 -4t-1.5 -6q0 -2 1.5 -4t2.5 -4l41 -59l-71 10h-10l-9 -6zM1300 800l104 62l23 -38q2 -3 3 -6t3 -8q2 -7 -2 -12q-2 -9 -6 -14l-4.5 -4.5t-6.5 -5.5q-3 -1 -5 -1.5t-5 -1.5q-3 0 -5 -1t-5 1q-4 0 -11 2q-3 1 -5 2t-4 3l-23 -60l-10 13q-4 2 -4 7q0 7 3 10l21 49 l-8 12l-43 -26zM1355 705q0 3 2 13q0 3 3 5l2 4q0 4 2 4q4 2 3 2l4 -2q3 -5 5 -6q0 -2 0.5 -3t0.5 -2q0 -4 -3 -7v-1v-7q0 -5 2 -10q0 -1 1 -2.5t2 -3.5q2 -1 3.5 -2.5t3.5 -2.5q1 -1 3 -1t4 -2h4.5t4.5 2q2 0 5 3q2 4 2 5q1 3 1 8v8v4v12q0 8 2 13q1 2 2.5 4.5t3.5 5.5 q3 2 5 4t7 4q8 3 14 2q6 0 12 -4q3 -2 6.5 -4t5.5 -6q3 -3 7 -11q2 -6 2 -10q0 -6 -1 -10q0 -4 -3 -11q-1 -2 -1.5 -4t-2.5 -4l-6 4q-3 1 -4 2.5t-3 3.5q-1 3 -1.5 5t0.5 5q1 1 1 8q0 3 -1 5q-2 2 -2 6q-3 0 -5 4q-2 1 -5 1q-3 1 -5 0t-2.5 -2t-1.5 -2t-2 -1.5t-2 -2.5v-7 v-10v-3v-2v-11q0 -2 -1 -4.5t-1 -4.5q-4 -14 -19 -21q-4 -2 -7.5 -3.5t-8.5 1.5q-6 0 -15 2q-3 3 -6.5 5t-5.5 6q-3 2 -5 5.5t-4 7.5q-2 10 -2 16zM1369 818l13 -19q3 -5 4 -6q1 0 7 -3h6q2 0 5 3q2 0 6 4q0 2 1 3t1 3q1 1 1 6q-1 1 -1 2.5t-2 3.5l-11 20zM1376 640l117 35 l5 -20l-117 -33zM1394 552q-1 13 1 25q5 12 10 20q7 9 18 16q5 3 11.5 6t11.5 3h19q6 0 15 -5q4 -1 7.5 -3.5t5.5 -4.5q3 -2 6.5 -4.5t5.5 -6.5q4 -8 8 -12q2 -8 5 -19v-15q-2 -10 -5 -15q-2 -5 -4 -9t-4 -7l-10 -10q-4 -4 -7.5 -5t-6.5 -3q-7 -4 -16 -4q-10 -1 -19 0 q-8 0 -15 4q-2 2 -6 3t-8 4q-3 2 -5.5 5.5t-4.5 5.5q-6 5 -8 16q-2 3 -3.5 6.5t-1.5 8.5zM1395 380l2 16l98 62l-93 6l1 19l121 -9l-1 -12q0 -5 -1 -8q-3 -3 -4 -5l-83 -53l84 -6l-2 -19zM1413 555q2 -8 4 -11q0 -6 5 -9q1 -3 3 -5.5t3 -4.5q3 -1 5.5 -2.5t5.5 -2.5 q2 -2 5 -2h5q5 -3 11 0q11 0 18 5q5 2 12 12q6 8 6 15q3 7 1 16q0 6 -2 11q-2 3 -3 5l-2 4l-4 4t-4 3q-5 4 -11 5q-3 4 -11 4q-4 2 -11 0q-7 0 -10 -4q-5 -1 -11 -5q-4 -1 -6 -7q-5 -5 -5 -9q-2 -2 -2.5 -5.5t-1.5 -5.5v-11z" />
<glyph unicode="5" d="M125 431v6.5t1 5.5q2 8 2 14q2 3 3.5 5.5t3.5 5.5q2 2 3.5 5t3.5 5l4 -4q2 -1 3.5 -2t2.5 -1q1 -3 1 -7v-4t-2 -3q-4 -5 -5 -12q-1 -5 -1 -13t3 -17q3 -4 6 -7.5t5 -6.5q5 -5 14 -7q7 -4 17 -3q6 0 13 3l4 2t4 3t4.5 3t4.5 5q1 2 2.5 4t3.5 4q0 4 1 6.5t2 5.5q1 4 1 11 q-1 3 -1.5 7t-2.5 8q0 3 -5 10l-18 -1v-5v-5q0 -2 -3 -6q-1 -1 -1.5 -2t-2.5 -2t-7 -1h-6l-3 38l51 3q2 -2 5 -4t4 -4q2 -2 3.5 -5t1.5 -5q1 -7 4 -12q0 -3 0.5 -6.5t0.5 -5.5q0 -8 -0.5 -14t-3.5 -11q-1 -7 -4 -12.5t-8 -10.5q-7 -9 -19 -13q-11 -7 -22 -7h-19 q-4 2 -7.5 3.5t-7.5 3.5q-4 1 -6.5 3t-6.5 4l-6 6t-5 7q-2 2 -3.5 6t-3.5 8q-1 5 -1.5 9t-1.5 9zM125 506l8 77l20 -1l-7 -58l31 -4l5 47l21 -1l-5 -47l31 -3l5 58l21 -3l-9 -77zM135 597l23 91l19 -5l-10 -38l99 -23l-4 -19l-99 25l-10 -36zM177 740l42 84l17 -8l-16 -33 l91 -46l-8 -17l-92 46l-16 -35zM205 160l46 -80l23 14l-25 46l84 -10q2 0 6 1q2 0 2.5 0.5t2.5 0.5l11 8l-46 79l-23 -14l26 -45l-84 9q-2 0 -5.5 -0.5t-7.5 -3.5zM229 844l12 15l41 -30l35 49l-41 30l12 17l98 -73l-11 -16l-41 30l-36 -48l42 -31l-11 -15zM270 53l53 -59 l19 18l-33 38l18 11l23 -31l23 19l-28 31l14 11l32 -40l22 19l-51 61zM298 471q0 -105 40.5 -200.5t111 -167.5t167.5 -115t209 -43q36 0 72 5.5t70 15.5q80 24 150 70t122 111.5t82.5 147.5t30.5 176q0 103 -39.5 199t-109.5 169t-167 117t-211 44q-106 0 -202 -40 t-168 -111.5t-115 -168t-43 -209.5zM311 949l55 55l14 -16l-40 -40l20 -21l34 31l14 -14l-33 -31l21 -23l42 40l14 -16l-56 -53zM344 471q0 96 36 183.5t100.5 155t153 106.5t192.5 39q69 0 127 -17q74 -19 138.5 -61t113 -102.5t77 -137.5t28.5 -166q0 -100 -38 -188.5 t-104 -155t-154.5 -104t-187.5 -37.5q-102 0 -190 39.5t-153 106t-102 154.5t-37 185zM369 -50l20 -19l62 71l23 -21l18 20l-71 60l-21 -21l28 -22zM390 471q0 -84 29.5 -158.5t79.5 -134.5l568 570h-578q-47 -56 -73 -125.5t-26 -151.5zM412 -90l16 -9q0 -1 2 -1h3 q2 0 2.5 -0.5t2.5 0.5h5q3 0 4 1l12 9l40 -23l-2 -15v-5q0 -2 1 -3q0 -1 1 -1v-3q0 -2 2 -2l4 -3l16 -11l18 128l-23 14zM427 1048l65 41l9 -17l-47 -31l17 -26l40 25l10 -17l-40 -25l25 -43l-14 -11zM484 -74l17 15h2q2 0 2 1v1v1h1q1 1 2 1l-3 -2v-2v-3l-2 -23zM511 1100 l18 8l31 -68q0 -7 6 -10q1 -3 9 -7q2 -1 5.5 -1h5.5q6 -1 11 1q7 3 10 7q5 5 6 10q1 2 1 11q0 7 -1 11l-27 68l17 9l30 -70q1 -5 1.5 -9t0.5 -9q0 -10 -3 -20q-2 -4 -4.5 -7.5t-7.5 -6.5q-2 -5 -6 -7t-9 -4t-9.5 -3.5t-9.5 -1.5q-8 0 -19 5q-5 2 -8.5 4t-6.5 6q-7 7 -10 16z M534 797h579q-55 51 -129 81t-158 30q-85 0 -159 -29.5t-133 -81.5zM536 146q58 -50 131.5 -80.5t158.5 -30.5q84 0 159 30.5t134 80.5h-583zM539 -161l26 -12l16 42l39 -15l10 26l-38 15l6 18l49 -18l8 25l-73 27zM585 194h577q46 56 72 126.5t26 150.5q0 82 -27.5 153.5 t-82.5 142.5zM633 1146l20 5l23 -99l50 11l4 -21l-67 -15zM639 -137v-19l3 -15l6 -13l11 -12q3 -4 7.5 -5.5t6.5 -3.5q7 -4 15 -4q5 -1 8.5 -1h8.5t13 2q4 2 8.5 3t6.5 4q6 2 12 11l9 11q4 7 7 17v16q0 3 -1 6.5t-3 8.5q-1 5 -2.5 7.5t-3.5 6.5l-10 12q-3 3 -6.5 5t-7.5 4 t-7 2.5t-8 2.5q-5 1 -9 1h-8q-10 0 -14 -4q-4 -1 -7.5 -2t-7.5 -4l-12 -11q-4 -8 -10 -11q-2 -5 -3.5 -8.5t-1.5 -6.5zM670 -142q0 6 5 11l6 9l13 5h12l12 -5l9 -9q2 -3 3.5 -5t1.5 -6q2 -9 0 -15q0 -3 -1.5 -6.5t-3.5 -5.5q-3 -4 -4.5 -5.5l-4.5 -4.5q-3 -1 -5.5 -2 t-6.5 -1q-6 -3 -12 0q-4 0 -7.5 1t-5.5 2l-8 10q-2 2 -2.5 5.5t-0.5 6.5q-3 5 0 15zM721 1164l20 2l11 -100l52 5v-20l-71 -9zM769 -102l3 -122l28 1v81l52 -81h26v121h-31l4 -77q-1 0 -1 4q0 1 -1.5 1t-1.5 1q0 4 -1 4l-42 61q0 1 -2 3q-2 3 -9 3h-10h-14zM850 1051l12 120 l45 -5q6 0 15 -4q9 -5 11 -10q4 -3 7 -13q3 -7 2 -15q-2 -4 -2.5 -7.5t-2.5 -8.5q-6 -8 -9 -11q-4 -3 -15 -7q-3 -1 -13 -1l-26 3l-5 -44zM876 1110l25 -2h7q3 1 7 6q3 0 4 5q2 1 4 7q0 5 -1 8q-1 2 -2 3.5t-1 2.5q-2 2 -3.5 3t-3.5 2t-3.5 1t-2.5 1l-25 3zM888 -101l4 -27 l35 6l16 -91l27 5l-17 91l32 6l-5 26zM939 1040l32 116l44 -11q6 0 12 -6q5 -4 9 -11q4 -5 4 -13q1 -5 0.5 -8t-0.5 -7q-2 -5 -5 -10t-6 -8q-7 -5 -10 -5q-2 -2 -4.5 -2.5t-4.5 -1.5l22 -58l-15 2q-2 1 -3.5 2.5t-3.5 2.5q-3 1 -5 8l-20 47l-14 4l-13 -46zM976 1100l24 -6 q2 0 3.5 -0.5t3.5 0.5q2 0 3.5 0.5t3.5 0.5t2 1.5t1 2.5q4 4 4 6q1 3 1 7q-1 2 -1 3.5t-1 3.5q-1 1 -2.5 1.5t-1.5 2.5q-3 3 -6 3l-25 6zM996 -99v-5.5t2 -7.5q3 -8 11 -13q1 -1 3.5 -2.5t4.5 -3.5q3 0 6.5 -1t5.5 -1h13h10h2q2 0 4 -2q3 0 3 -2h3v-5q0 -2 -0.5 -3t-0.5 -2 v-1q-2 0 -3 -3t-2 -3q-2 -2 -6 -2q0 -1 -2 -1h-3q-2 0 -3.5 0.5t-3.5 0.5h-6h-8l-4 -2q-1 0 -1 -1.5t-1 -1.5l-5 -8q1 -4 3 -5.5t4 -4.5q3 -1 6.5 -2t6.5 -1q8 -3 13 -2q3 0 7 1t8 1q3 2 6.5 3.5t7.5 4.5q4 4 5.5 6t4.5 7q1 4 3.5 7t2.5 9q0 4 -0.5 7.5t-3.5 6.5q-1 8 -6 11 q-2 6 -9 8l-11 6h-15h-8h-9h-2v1q-3 3 -3 4l-2 1q2 1 2 4q0 1 1 1h2q0 1 5 1v3h1h5h3q4 0 5 1q4 0 8 1q0 2 1 3t1 2l5 10l-7 3q-8 4 -13 4q-2 0 -4.5 1t-4.5 1q-4 0 -6 -1t-4 -1l-13 -7q-2 -2 -4 -4.5t-3 -6.5q-7 -6 -8 -14zM1040 1038v13q1 11 7 22q1 4 3.5 7.5t5.5 6.5 q2 3 5 6t6 5q3 3 6.5 4t8.5 3q4 3 15 3h15q9 -1 17 -6q7 -3 15 -8q3 -4 5.5 -7.5t4.5 -5.5q2 -3 3.5 -6.5t3.5 -7.5q1 -4 2 -7.5t1 -7.5v-8t-2 -9q-1 -4 -1.5 -7.5t-3.5 -7.5l-3.5 -7l-3.5 -7q-4 -3 -7 -5.5t-5 -6.5q-4 -2 -7.5 -4t-7.5 -4q-6 0 -16 -2q-12 0 -17 1t-16 5 q-11 6 -18 16q-8 9 -14 21q-2 6 -2 11zM1059 1043q0 -2 1 -5t2 -5q1 -6 4 -10q2 -2 3.5 -4t3.5 -3q3 -4 9 -6q7 -4 12 -4h11q7 0 12 1q4 4 8 4q3 2 5.5 4t4.5 3q2 3 3 5.5t3 4.5q2 4 2.5 8t1.5 10q0 4 -0.5 7.5t-0.5 7.5q-2 4 -4.5 7.5t-4.5 5.5q-7 7 -15 10q-2 2 -5 2.5 t-6 2.5h-10q-7 0 -10 -3q-4 -2 -6.5 -2.5t-4.5 -1.5l-4 -4t-3 -4q-7 -5 -7 -8q-2 -3 -2.5 -6t-2.5 -6v-11zM1107 -135v-2q0 -3 1 -4q0 -1 1 -1q0 -6 3 -6q2 -5 7 -6h6q5 0 8 2q1 2 3 3t2 3v2q0 2 2 2l3 3v2q0 6 -5 6q0 6 -3 6q-2 3 -5 3q-2 0 -3.5 1t-3.5 1q-1 -2 -6 -2 l-7 -4q-1 -1 -1 -3v-2q-2 -2 -2 -4zM1119 -43v-16q0 -4 1.5 -7.5t1.5 -7.5l6 -15q3 -4 6.5 -6t5.5 -5l14 -11l12 -2q5 -2 17 -2q4 0 7 1t7 2q5 1 8.5 4t6.5 6q2 1 5.5 2.5t5.5 4.5q3 1 5 4t5 6l4 14q4 4 4 14l-12 2h-6l-8 -4q-2 0 -3 -3t-1 -5l-5 -9l-9 -6q-4 -2 -6 -3.5 t-5 -1.5q-7 -3 -14 0q-2 2 -5 2.5t-6 2.5q-6 4 -7 11q-5 2 -5 12q-4 3 0 14q0 2 0.5 4t1.5 7l4 4t5 3q7 4 9 4q3 1 11 1q2 0 10 5q2 3 5 5l2 6v9q-3 4 -12 4h-14l-14 -5l-11 -5q-2 -2 -5.5 -4.5t-6.5 -6.5q-2 -2 -4.5 -6t-4.5 -8zM1196 913l41 127l9 -8q1 -2 2 -3.5t3 -3.5 q0 -5 -2 -8l-27 -88l84 39q1 1 8 1q4 0 6 -3l10 -9l-120 -55zM1206 11q0 -4 2 -8l4 -14l11 -13l14 -10q4 -1 7 -3.5t8 -2.5q4 0 8 -1.5t8 -1.5q2 0 6 1.5t9 1.5q2 0 5.5 2.5t7.5 3.5q7 3 14 10l10 13q1 2 3 5.5t2 8.5q1 4 1 14v17l-6 12q-2 4 -4 7.5t-4 6.5l-14 14l-15 3 q-4 3 -15 3q-4 0 -8 -0.5t-8 -2.5l-13 -3q-4 -3 -8 -7l-7 -7l-4 -6t-5 -5q-3 -4 -4 -7.5t-3 -7.5q0 -4 -1 -7.5t-1 -8.5v-7zM1236 18q0 8 1 12q3 8 7 12l11 8q3 0 6.5 0.5t6.5 0.5q4 0 12 -2q2 -2 4.5 -3.5t5.5 -5.5q3 -1 4.5 -4t3.5 -6t2 -13v-5.5t-2 -5.5q-4 -9 -8 -10 q-7 -7 -10 -8q-3 -2 -6.5 -2h-5.5q-4 0 -7.5 1t-5.5 1l-11 8q-4 4 -7 11q-1 4 -1 11zM1247 866l92 78l50 -57l-15 -15l-38 46l-22 -20l28 -37l-16 -11l-28 36l-24 -22l36 -43l-16 -12zM1268 100l98 -66l16 22l-47 34l62 -13l11 20l-34 51l48 -30l16 24l-101 66l-12 -18 q-1 -2 -2.5 -4t-1.5 -6q0 -2 1.5 -4t2.5 -4l41 -59l-71 10h-10l-9 -6zM1300 800l104 62l23 -38q2 -3 3 -6t3 -8q2 -7 -2 -12q-2 -9 -6 -14l-4.5 -4.5t-6.5 -5.5q-3 -1 -5 -1.5t-5 -1.5q-3 0 -5 -1t-5 1q-4 0 -11 2q-3 1 -5 2t-4 3l-23 -60l-10 13q-4 2 -4 7q0 7 3 10l21 49 l-8 12l-43 -26zM1355 705q0 3 2 13q0 3 3 5l2 4q0 4 2 4q4 2 3 2l4 -2q3 -5 5 -6q0 -2 0.5 -3t0.5 -2q0 -4 -3 -7v-1v-7q0 -5 2 -10q0 -1 1 -2.5t2 -3.5q2 -1 3.5 -2.5t3.5 -2.5q1 -1 3 -1t4 -2h4.5t4.5 2q2 0 5 3q2 4 2 5q1 3 1 8v8v4v12q0 8 2 13q1 2 2.5 4.5t3.5 5.5 q3 2 5 4t7 4q8 3 14 2q6 0 12 -4q3 -2 6.5 -4t5.5 -6q3 -3 7 -11q2 -6 2 -10q0 -6 -1 -10q0 -4 -3 -11q-1 -2 -1.5 -4t-2.5 -4l-6 4q-3 1 -4 2.5t-3 3.5q-1 3 -1.5 5t0.5 5q1 1 1 8q0 3 -1 5q-2 2 -2 6q-3 0 -5 4q-2 1 -5 1q-3 1 -5 0t-2.5 -2t-1.5 -2t-2 -1.5t-2 -2.5v-7 v-10v-3v-2v-11q0 -2 -1 -4.5t-1 -4.5q-4 -14 -19 -21q-4 -2 -7.5 -3.5t-8.5 1.5q-6 0 -15 2q-3 3 -6.5 5t-5.5 6q-3 2 -5 5.5t-4 7.5q-2 10 -2 16zM1369 818l13 -19q3 -5 4 -6q1 0 7 -3h6q2 0 5 3q2 0 6 4q0 2 1 3t1 3q1 1 1 6q-1 1 -1 2.5t-2 3.5l-11 20zM1376 640l117 35 l5 -20l-117 -33zM1394 552q-1 13 1 25q5 12 10 20q7 9 18 16q5 3 11.5 6t11.5 3h19q6 0 15 -5q4 -1 7.5 -3.5t5.5 -4.5q3 -2 6.5 -4.5t5.5 -6.5q4 -8 8 -12q2 -8 5 -19v-15q-2 -10 -5 -15q-2 -5 -4 -9t-4 -7l-10 -10q-4 -4 -7.5 -5t-6.5 -3q-7 -4 -16 -4q-10 -1 -19 0 q-8 0 -15 4q-2 2 -6 3t-8 4q-3 2 -5.5 5.5t-4.5 5.5q-6 5 -8 16q-2 3 -3.5 6.5t-1.5 8.5zM1395 380l2 16l98 62l-93 6l1 19l121 -9l-1 -12q0 -5 -1 -8q-3 -3 -4 -5l-83 -53l84 -6l-2 -19zM1413 555q2 -8 4 -11q0 -6 5 -9q1 -3 3 -5.5t3 -4.5q3 -1 5.5 -2.5t5.5 -2.5 q2 -2 5 -2h5q5 -3 11 0q11 0 18 5q5 2 12 12q6 8 6 15q3 7 1 16q0 6 -2 11q-2 3 -3 5l-2 4l-4 4t-4 3q-5 4 -11 5q-3 4 -11 4q-4 2 -11 0q-7 0 -10 -4q-5 -1 -11 -5q-4 -1 -6 -7q-5 -5 -5 -9q-2 -2 -2.5 -5.5t-1.5 -5.5v-11z" />
<glyph unicode="6" d="M125 431v6.5t1 5.5q2 8 2 14q2 3 3.5 5.5t3.5 5.5q2 2 3.5 5t3.5 5l4 -4q2 -1 3.5 -2t2.5 -1q1 -3 1 -7v-4t-2 -3q-4 -5 -5 -12q-1 -5 -1 -13t3 -17q3 -4 6 -7.5t5 -6.5q5 -5 14 -7q7 -4 17 -3q6 0 13 3l4 2t4 3t4.5 3t4.5 5q1 2 2.5 4t3.5 4q0 4 1 6.5t2 5.5q1 4 1 11 q-1 3 -1.5 7t-2.5 8q0 3 -5 10l-18 -1v-5v-5q0 -2 -3 -6q-1 -1 -1.5 -2t-2.5 -2t-7 -1h-6l-3 38l51 3q2 -2 5 -4t4 -4q2 -2 3.5 -5t1.5 -5q1 -7 4 -12q0 -3 0.5 -6.5t0.5 -5.5q0 -8 -0.5 -14t-3.5 -11q-1 -7 -4 -12.5t-8 -10.5q-7 -9 -19 -13q-11 -7 -22 -7h-19 q-4 2 -7.5 3.5t-7.5 3.5q-4 1 -6.5 3t-6.5 4l-6 6t-5 7q-2 2 -3.5 6t-3.5 8q-1 5 -1.5 9t-1.5 9zM125 506l8 77l20 -1l-7 -58l31 -4l5 47l21 -1l-5 -47l31 -3l5 58l21 -3l-9 -77zM135 597l23 91l19 -5l-10 -38l99 -23l-4 -19l-99 25l-10 -36zM177 740l42 84l17 -8l-16 -33 l91 -46l-8 -17l-92 46l-16 -35zM205 160l46 -80l23 14l-25 46l84 -10q2 0 6 1q2 0 2.5 0.5t2.5 0.5l11 8l-46 79l-23 -14l26 -45l-84 9q-2 0 -5.5 -0.5t-7.5 -3.5zM229 844l12 15l41 -30l35 49l-41 30l12 17l98 -73l-11 -16l-41 30l-36 -48l42 -31l-11 -15zM270 53l53 -59 l19 18l-33 38l18 11l23 -31l23 19l-28 31l14 11l32 -40l22 19l-51 61zM298 471q0 -105 40.5 -200.5t111 -167.5t167.5 -115t209 -43q36 0 72 5.5t70 15.5q80 24 150 70t122 111.5t82.5 147.5t30.5 176q0 103 -39.5 199t-109.5 169t-167 117t-211 44q-106 0 -202 -40 t-168 -111.5t-115 -168t-43 -209.5zM311 949l55 55l14 -16l-40 -40l20 -21l34 31l14 -14l-33 -31l21 -23l42 40l14 -16l-56 -53zM344 471q0 96 36 183.5t100.5 155t153 106.5t192.5 39q69 0 127 -17q74 -19 138.5 -61t113 -102.5t77 -137.5t28.5 -166q0 -100 -38 -188.5 t-104 -155t-154.5 -104t-187.5 -37.5q-102 0 -190 39.5t-153 106t-102 154.5t-37 185zM369 -50l20 -19l62 71l23 -21l18 20l-71 60l-21 -21l28 -22zM390 471q0 -84 29.5 -158.5t79.5 -134.5l568 570h-578q-47 -56 -73 -125.5t-26 -151.5zM412 -90l16 -9q0 -1 2 -1h3 q2 0 2.5 -0.5t2.5 0.5h5q3 0 4 1l12 9l40 -23l-2 -15v-5q0 -2 1 -3q0 -1 1 -1v-3q0 -2 2 -2l4 -3l16 -11l18 128l-23 14zM427 1048l65 41l9 -17l-47 -31l17 -26l40 25l10 -17l-40 -25l25 -43l-14 -11zM484 -74l17 15h2q2 0 2 1v1v1h1q1 1 2 1l-3 -2v-2v-3l-2 -23zM511 1100 l18 8l31 -68q0 -7 6 -10q1 -3 9 -7q2 -1 5.5 -1h5.5q6 -1 11 1q7 3 10 7q5 5 6 10q1 2 1 11q0 7 -1 11l-27 68l17 9l30 -70q1 -5 1.5 -9t0.5 -9q0 -10 -3 -20q-2 -4 -4.5 -7.5t-7.5 -6.5q-2 -5 -6 -7t-9 -4t-9.5 -3.5t-9.5 -1.5q-8 0 -19 5q-5 2 -8.5 4t-6.5 6q-7 7 -10 16z M534 797h579q-55 51 -129 81t-158 30q-85 0 -159 -29.5t-133 -81.5zM536 146q58 -50 131.5 -80.5t158.5 -30.5q84 0 159 30.5t134 80.5h-583zM539 -161l26 -12l16 42l39 -15l10 26l-38 15l6 18l49 -18l8 25l-73 27zM585 194h577q46 56 72 126.5t26 150.5q0 82 -27.5 153.5 t-82.5 142.5zM633 1146l20 5l23 -99l50 11l4 -21l-67 -15zM639 -137v-19l3 -15l6 -13l11 -12q3 -4 7.5 -5.5t6.5 -3.5q7 -4 15 -4q5 -1 8.5 -1h8.5t13 2q4 2 8.5 3t6.5 4q6 2 12 11l9 11q4 7 7 17v16q0 3 -1 6.5t-3 8.5q-1 5 -2.5 7.5t-3.5 6.5l-10 12q-3 3 -6.5 5t-7.5 4 t-7 2.5t-8 2.5q-5 1 -9 1h-8q-10 0 -14 -4q-4 -1 -7.5 -2t-7.5 -4l-12 -11q-4 -8 -10 -11q-2 -5 -3.5 -8.5t-1.5 -6.5zM670 -142q0 6 5 11l6 9l13 5h12l12 -5l9 -9q2 -3 3.5 -5t1.5 -6q2 -9 0 -15q0 -3 -1.5 -6.5t-3.5 -5.5q-3 -4 -4.5 -5.5l-4.5 -4.5q-3 -1 -5.5 -2 t-6.5 -1q-6 -3 -12 0q-4 0 -7.5 1t-5.5 2l-8 10q-2 2 -2.5 5.5t-0.5 6.5q-3 5 0 15zM721 1164l20 2l11 -100l52 5v-20l-71 -9zM769 -102l3 -122l28 1v81l52 -81h26v121h-31l4 -77q-1 0 -1 4q0 1 -1.5 1t-1.5 1q0 4 -1 4l-42 61q0 1 -2 3q-2 3 -9 3h-10h-14zM850 1051l12 120 l45 -5q6 0 15 -4q9 -5 11 -10q4 -3 7 -13q3 -7 2 -15q-2 -4 -2.5 -7.5t-2.5 -8.5q-6 -8 -9 -11q-4 -3 -15 -7q-3 -1 -13 -1l-26 3l-5 -44zM876 1110l25 -2h7q3 1 7 6q3 0 4 5q2 1 4 7q0 5 -1 8q-1 2 -2 3.5t-1 2.5q-2 2 -3.5 3t-3.5 2t-3.5 1t-2.5 1l-25 3zM888 -101l4 -27 l35 6l16 -91l27 5l-17 91l32 6l-5 26zM939 1040l32 116l44 -11q6 0 12 -6q5 -4 9 -11q4 -5 4 -13q1 -5 0.5 -8t-0.5 -7q-2 -5 -5 -10t-6 -8q-7 -5 -10 -5q-2 -2 -4.5 -2.5t-4.5 -1.5l22 -58l-15 2q-2 1 -3.5 2.5t-3.5 2.5q-3 1 -5 8l-20 47l-14 4l-13 -46zM976 1100l24 -6 q2 0 3.5 -0.5t3.5 0.5q2 0 3.5 0.5t3.5 0.5t2 1.5t1 2.5q4 4 4 6q1 3 1 7q-1 2 -1 3.5t-1 3.5q-1 1 -2.5 1.5t-1.5 2.5q-3 3 -6 3l-25 6zM996 -99v-5.5t2 -7.5q3 -8 11 -13q1 -1 3.5 -2.5t4.5 -3.5q3 0 6.5 -1t5.5 -1h13h10h2q2 0 4 -2q3 0 3 -2h3v-5q0 -2 -0.5 -3t-0.5 -2 v-1q-2 0 -3 -3t-2 -3q-2 -2 -6 -2q0 -1 -2 -1h-3q-2 0 -3.5 0.5t-3.5 0.5h-6h-8l-4 -2q-1 0 -1 -1.5t-1 -1.5l-5 -8q1 -4 3 -5.5t4 -4.5q3 -1 6.5 -2t6.5 -1q8 -3 13 -2q3 0 7 1t8 1q3 2 6.5 3.5t7.5 4.5q4 4 5.5 6t4.5 7q1 4 3.5 7t2.5 9q0 4 -0.5 7.5t-3.5 6.5q-1 8 -6 11 q-2 6 -9 8l-11 6h-15h-8h-9h-2v1q-3 3 -3 4l-2 1q2 1 2 4q0 1 1 1h2q0 1 5 1v3h1h5h3q4 0 5 1q4 0 8 1q0 2 1 3t1 2l5 10l-7 3q-8 4 -13 4q-2 0 -4.5 1t-4.5 1q-4 0 -6 -1t-4 -1l-13 -7q-2 -2 -4 -4.5t-3 -6.5q-7 -6 -8 -14zM1040 1038v13q1 11 7 22q1 4 3.5 7.5t5.5 6.5 q2 3 5 6t6 5q3 3 6.5 4t8.5 3q4 3 15 3h15q9 -1 17 -6q7 -3 15 -8q3 -4 5.5 -7.5t4.5 -5.5q2 -3 3.5 -6.5t3.5 -7.5q1 -4 2 -7.5t1 -7.5v-8t-2 -9q-1 -4 -1.5 -7.5t-3.5 -7.5l-3.5 -7l-3.5 -7q-4 -3 -7 -5.5t-5 -6.5q-4 -2 -7.5 -4t-7.5 -4q-6 0 -16 -2q-12 0 -17 1t-16 5 q-11 6 -18 16q-8 9 -14 21q-2 6 -2 11zM1059 1043q0 -2 1 -5t2 -5q1 -6 4 -10q2 -2 3.5 -4t3.5 -3q3 -4 9 -6q7 -4 12 -4h11q7 0 12 1q4 4 8 4q3 2 5.5 4t4.5 3q2 3 3 5.5t3 4.5q2 4 2.5 8t1.5 10q0 4 -0.5 7.5t-0.5 7.5q-2 4 -4.5 7.5t-4.5 5.5q-7 7 -15 10q-2 2 -5 2.5 t-6 2.5h-10q-7 0 -10 -3q-4 -2 -6.5 -2.5t-4.5 -1.5l-4 -4t-3 -4q-7 -5 -7 -8q-2 -3 -2.5 -6t-2.5 -6v-11zM1107 -135v-2q0 -3 1 -4q0 -1 1 -1q0 -6 3 -6q2 -5 7 -6h6q5 0 8 2q1 2 3 3t2 3v2q0 2 2 2l3 3v2q0 6 -5 6q0 6 -3 6q-2 3 -5 3q-2 0 -3.5 1t-3.5 1q-1 -2 -6 -2 l-7 -4q-1 -1 -1 -3v-2q-2 -2 -2 -4zM1119 -43v-16q0 -4 1.5 -7.5t1.5 -7.5l6 -15q3 -4 6.5 -6t5.5 -5l14 -11l12 -2q5 -2 17 -2q4 0 7 1t7 2q5 1 8.5 4t6.5 6q2 1 5.5 2.5t5.5 4.5q3 1 5 4t5 6l4 14q4 4 4 14l-12 2h-6l-8 -4q-2 0 -3 -3t-1 -5l-5 -9l-9 -6q-4 -2 -6 -3.5 t-5 -1.5q-7 -3 -14 0q-2 2 -5 2.5t-6 2.5q-6 4 -7 11q-5 2 -5 12q-4 3 0 14q0 2 0.5 4t1.5 7l4 4t5 3q7 4 9 4q3 1 11 1q2 0 10 5q2 3 5 5l2 6v9q-3 4 -12 4h-14l-14 -5l-11 -5q-2 -2 -5.5 -4.5t-6.5 -6.5q-2 -2 -4.5 -6t-4.5 -8zM1196 913l41 127l9 -8q1 -2 2 -3.5t3 -3.5 q0 -5 -2 -8l-27 -88l84 39q1 1 8 1q4 0 6 -3l10 -9l-120 -55zM1206 11q0 -4 2 -8l4 -14l11 -13l14 -10q4 -1 7 -3.5t8 -2.5q4 0 8 -1.5t8 -1.5q2 0 6 1.5t9 1.5q2 0 5.5 2.5t7.5 3.5q7 3 14 10l10 13q1 2 3 5.5t2 8.5q1 4 1 14v17l-6 12q-2 4 -4 7.5t-4 6.5l-14 14l-15 3 q-4 3 -15 3q-4 0 -8 -0.5t-8 -2.5l-13 -3q-4 -3 -8 -7l-7 -7l-4 -6t-5 -5q-3 -4 -4 -7.5t-3 -7.5q0 -4 -1 -7.5t-1 -8.5v-7zM1236 18q0 8 1 12q3 8 7 12l11 8q3 0 6.5 0.5t6.5 0.5q4 0 12 -2q2 -2 4.5 -3.5t5.5 -5.5q3 -1 4.5 -4t3.5 -6t2 -13v-5.5t-2 -5.5q-4 -9 -8 -10 q-7 -7 -10 -8q-3 -2 -6.5 -2h-5.5q-4 0 -7.5 1t-5.5 1l-11 8q-4 4 -7 11q-1 4 -1 11zM1247 866l92 78l50 -57l-15 -15l-38 46l-22 -20l28 -37l-16 -11l-28 36l-24 -22l36 -43l-16 -12zM1268 100l98 -66l16 22l-47 34l62 -13l11 20l-34 51l48 -30l16 24l-101 66l-12 -18 q-1 -2 -2.5 -4t-1.5 -6q0 -2 1.5 -4t2.5 -4l41 -59l-71 10h-10l-9 -6zM1300 800l104 62l23 -38q2 -3 3 -6t3 -8q2 -7 -2 -12q-2 -9 -6 -14l-4.5 -4.5t-6.5 -5.5q-3 -1 -5 -1.5t-5 -1.5q-3 0 -5 -1t-5 1q-4 0 -11 2q-3 1 -5 2t-4 3l-23 -60l-10 13q-4 2 -4 7q0 7 3 10l21 49 l-8 12l-43 -26zM1355 705q0 3 2 13q0 3 3 5l2 4q0 4 2 4q4 2 3 2l4 -2q3 -5 5 -6q0 -2 0.5 -3t0.5 -2q0 -4 -3 -7v-1v-7q0 -5 2 -10q0 -1 1 -2.5t2 -3.5q2 -1 3.5 -2.5t3.5 -2.5q1 -1 3 -1t4 -2h4.5t4.5 2q2 0 5 3q2 4 2 5q1 3 1 8v8v4v12q0 8 2 13q1 2 2.5 4.5t3.5 5.5 q3 2 5 4t7 4q8 3 14 2q6 0 12 -4q3 -2 6.5 -4t5.5 -6q3 -3 7 -11q2 -6 2 -10q0 -6 -1 -10q0 -4 -3 -11q-1 -2 -1.5 -4t-2.5 -4l-6 4q-3 1 -4 2.5t-3 3.5q-1 3 -1.5 5t0.5 5q1 1 1 8q0 3 -1 5q-2 2 -2 6q-3 0 -5 4q-2 1 -5 1q-3 1 -5 0t-2.5 -2t-1.5 -2t-2 -1.5t-2 -2.5v-7 v-10v-3v-2v-11q0 -2 -1 -4.5t-1 -4.5q-4 -14 -19 -21q-4 -2 -7.5 -3.5t-8.5 1.5q-6 0 -15 2q-3 3 -6.5 5t-5.5 6q-3 2 -5 5.5t-4 7.5q-2 10 -2 16zM1369 818l13 -19q3 -5 4 -6q1 0 7 -3h6q2 0 5 3q2 0 6 4q0 2 1 3t1 3q1 1 1 6q-1 1 -1 2.5t-2 3.5l-11 20zM1376 640l117 35 l5 -20l-117 -33zM1394 552q-1 13 1 25q5 12 10 20q7 9 18 16q5 3 11.5 6t11.5 3h19q6 0 15 -5q4 -1 7.5 -3.5t5.5 -4.5q3 -2 6.5 -4.5t5.5 -6.5q4 -8 8 -12q2 -8 5 -19v-15q-2 -10 -5 -15q-2 -5 -4 -9t-4 -7l-10 -10q-4 -4 -7.5 -5t-6.5 -3q-7 -4 -16 -4q-10 -1 -19 0 q-8 0 -15 4q-2 2 -6 3t-8 4q-3 2 -5.5 5.5t-4.5 5.5q-6 5 -8 16q-2 3 -3.5 6.5t-1.5 8.5zM1395 380l2 16l98 62l-93 6l1 19l121 -9l-1 -12q0 -5 -1 -8q-3 -3 -4 -5l-83 -53l84 -6l-2 -19zM1413 555q2 -8 4 -11q0 -6 5 -9q1 -3 3 -5.5t3 -4.5q3 -1 5.5 -2.5t5.5 -2.5 q2 -2 5 -2h5q5 -3 11 0q11 0 18 5q5 2 12 12q6 8 6 15q3 7 1 16q0 6 -2 11q-2 3 -3 5l-2 4l-4 4t-4 3q-5 4 -11 5q-3 4 -11 4q-4 2 -11 0q-7 0 -10 -4q-5 -1 -11 -5q-4 -1 -6 -7q-5 -5 -5 -9q-2 -2 -2.5 -5.5t-1.5 -5.5v-11z" />
<glyph unicode="7" d="M125 431v6.5t1 5.5q2 8 2 14q2 3 3.5 5.5t3.5 5.5q2 2 3.5 5t3.5 5l4 -4q2 -1 3.5 -2t2.5 -1q1 -3 1 -7v-4t-2 -3q-4 -5 -5 -12q-1 -5 -1 -13t3 -17q3 -4 6 -7.5t5 -6.5q5 -5 14 -7q7 -4 17 -3q6 0 13 3l4 2t4 3t4.5 3t4.5 5q1 2 2.5 4t3.5 4q0 4 1 6.5t2 5.5q1 4 1 11 q-1 3 -1.5 7t-2.5 8q0 3 -5 10l-18 -1v-5v-5q0 -2 -3 -6q-1 -1 -1.5 -2t-2.5 -2t-7 -1h-6l-3 38l51 3q2 -2 5 -4t4 -4q2 -2 3.5 -5t1.5 -5q1 -7 4 -12q0 -3 0.5 -6.5t0.5 -5.5q0 -8 -0.5 -14t-3.5 -11q-1 -7 -4 -12.5t-8 -10.5q-7 -9 -19 -13q-11 -7 -22 -7h-19 q-4 2 -7.5 3.5t-7.5 3.5q-4 1 -6.5 3t-6.5 4l-6 6t-5 7q-2 2 -3.5 6t-3.5 8q-1 5 -1.5 9t-1.5 9zM125 506l8 77l20 -1l-7 -58l31 -4l5 47l21 -1l-5 -47l31 -3l5 58l21 -3l-9 -77zM135 597l23 91l19 -5l-10 -38l99 -23l-4 -19l-99 25l-10 -36zM177 740l42 84l17 -8l-16 -33 l91 -46l-8 -17l-92 46l-16 -35zM205 160l46 -80l23 14l-25 46l84 -10q2 0 6 1q2 0 2.5 0.5t2.5 0.5l11 8l-46 79l-23 -14l26 -45l-84 9q-2 0 -5.5 -0.5t-7.5 -3.5zM229 844l12 15l41 -30l35 49l-41 30l12 17l98 -73l-11 -16l-41 30l-36 -48l42 -31l-11 -15zM270 53l53 -59 l19 18l-33 38l18 11l23 -31l23 19l-28 31l14 11l32 -40l22 19l-51 61zM298 471q0 -105 40.5 -200.5t111 -167.5t167.5 -115t209 -43q36 0 72 5.5t70 15.5q80 24 150 70t122 111.5t82.5 147.5t30.5 176q0 103 -39.5 199t-109.5 169t-167 117t-211 44q-106 0 -202 -40 t-168 -111.5t-115 -168t-43 -209.5zM311 949l55 55l14 -16l-40 -40l20 -21l34 31l14 -14l-33 -31l21 -23l42 40l14 -16l-56 -53zM344 471q0 96 36 183.5t100.5 155t153 106.5t192.5 39q69 0 127 -17q74 -19 138.5 -61t113 -102.5t77 -137.5t28.5 -166q0 -100 -38 -188.5 t-104 -155t-154.5 -104t-187.5 -37.5q-102 0 -190 39.5t-153 106t-102 154.5t-37 185zM369 -50l20 -19l62 71l23 -21l18 20l-71 60l-21 -21l28 -22zM390 471q0 -84 29.5 -158.5t79.5 -134.5l568 570h-578q-47 -56 -73 -125.5t-26 -151.5zM412 -90l16 -9q0 -1 2 -1h3 q2 0 2.5 -0.5t2.5 0.5h5q3 0 4 1l12 9l40 -23l-2 -15v-5q0 -2 1 -3q0 -1 1 -1v-3q0 -2 2 -2l4 -3l16 -11l18 128l-23 14zM427 1048l65 41l9 -17l-47 -31l17 -26l40 25l10 -17l-40 -25l25 -43l-14 -11zM484 -74l17 15h2q2 0 2 1v1v1h1q1 1 2 1l-3 -2v-2v-3l-2 -23zM511 1100 l18 8l31 -68q0 -7 6 -10q1 -3 9 -7q2 -1 5.5 -1h5.5q6 -1 11 1q7 3 10 7q5 5 6 10q1 2 1 11q0 7 -1 11l-27 68l17 9l30 -70q1 -5 1.5 -9t0.5 -9q0 -10 -3 -20q-2 -4 -4.5 -7.5t-7.5 -6.5q-2 -5 -6 -7t-9 -4t-9.5 -3.5t-9.5 -1.5q-8 0 -19 5q-5 2 -8.5 4t-6.5 6q-7 7 -10 16z M534 797h579q-55 51 -129 81t-158 30q-85 0 -159 -29.5t-133 -81.5zM536 146q58 -50 131.5 -80.5t158.5 -30.5q84 0 159 30.5t134 80.5h-583zM539 -161l26 -12l16 42l39 -15l10 26l-38 15l6 18l49 -18l8 25l-73 27zM585 194h577q46 56 72 126.5t26 150.5q0 82 -27.5 153.5 t-82.5 142.5zM633 1146l20 5l23 -99l50 11l4 -21l-67 -15zM639 -137v-19l3 -15l6 -13l11 -12q3 -4 7.5 -5.5t6.5 -3.5q7 -4 15 -4q5 -1 8.5 -1h8.5t13 2q4 2 8.5 3t6.5 4q6 2 12 11l9 11q4 7 7 17v16q0 3 -1 6.5t-3 8.5q-1 5 -2.5 7.5t-3.5 6.5l-10 12q-3 3 -6.5 5t-7.5 4 t-7 2.5t-8 2.5q-5 1 -9 1h-8q-10 0 -14 -4q-4 -1 -7.5 -2t-7.5 -4l-12 -11q-4 -8 -10 -11q-2 -5 -3.5 -8.5t-1.5 -6.5zM670 -142q0 6 5 11l6 9l13 5h12l12 -5l9 -9q2 -3 3.5 -5t1.5 -6q2 -9 0 -15q0 -3 -1.5 -6.5t-3.5 -5.5q-3 -4 -4.5 -5.5l-4.5 -4.5q-3 -1 -5.5 -2 t-6.5 -1q-6 -3 -12 0q-4 0 -7.5 1t-5.5 2l-8 10q-2 2 -2.5 5.5t-0.5 6.5q-3 5 0 15zM721 1164l20 2l11 -100l52 5v-20l-71 -9zM769 -102l3 -122l28 1v81l52 -81h26v121h-31l4 -77q-1 0 -1 4q0 1 -1.5 1t-1.5 1q0 4 -1 4l-42 61q0 1 -2 3q-2 3 -9 3h-10h-14zM850 1051l12 120 l45 -5q6 0 15 -4q9 -5 11 -10q4 -3 7 -13q3 -7 2 -15q-2 -4 -2.5 -7.5t-2.5 -8.5q-6 -8 -9 -11q-4 -3 -15 -7q-3 -1 -13 -1l-26 3l-5 -44zM876 1110l25 -2h7q3 1 7 6q3 0 4 5q2 1 4 7q0 5 -1 8q-1 2 -2 3.5t-1 2.5q-2 2 -3.5 3t-3.5 2t-3.5 1t-2.5 1l-25 3zM888 -101l4 -27 l35 6l16 -91l27 5l-17 91l32 6l-5 26zM939 1040l32 116l44 -11q6 0 12 -6q5 -4 9 -11q4 -5 4 -13q1 -5 0.5 -8t-0.5 -7q-2 -5 -5 -10t-6 -8q-7 -5 -10 -5q-2 -2 -4.5 -2.5t-4.5 -1.5l22 -58l-15 2q-2 1 -3.5 2.5t-3.5 2.5q-3 1 -5 8l-20 47l-14 4l-13 -46zM976 1100l24 -6 q2 0 3.5 -0.5t3.5 0.5q2 0 3.5 0.5t3.5 0.5t2 1.5t1 2.5q4 4 4 6q1 3 1 7q-1 2 -1 3.5t-1 3.5q-1 1 -2.5 1.5t-1.5 2.5q-3 3 -6 3l-25 6zM996 -99v-5.5t2 -7.5q3 -8 11 -13q1 -1 3.5 -2.5t4.5 -3.5q3 0 6.5 -1t5.5 -1h13h10h2q2 0 4 -2q3 0 3 -2h3v-5q0 -2 -0.5 -3t-0.5 -2 v-1q-2 0 -3 -3t-2 -3q-2 -2 -6 -2q0 -1 -2 -1h-3q-2 0 -3.5 0.5t-3.5 0.5h-6h-8l-4 -2q-1 0 -1 -1.5t-1 -1.5l-5 -8q1 -4 3 -5.5t4 -4.5q3 -1 6.5 -2t6.5 -1q8 -3 13 -2q3 0 7 1t8 1q3 2 6.5 3.5t7.5 4.5q4 4 5.5 6t4.5 7q1 4 3.5 7t2.5 9q0 4 -0.5 7.5t-3.5 6.5q-1 8 -6 11 q-2 6 -9 8l-11 6h-15h-8h-9h-2v1q-3 3 -3 4l-2 1q2 1 2 4q0 1 1 1h2q0 1 5 1v3h1h5h3q4 0 5 1q4 0 8 1q0 2 1 3t1 2l5 10l-7 3q-8 4 -13 4q-2 0 -4.5 1t-4.5 1q-4 0 -6 -1t-4 -1l-13 -7q-2 -2 -4 -4.5t-3 -6.5q-7 -6 -8 -14zM1040 1038v13q1 11 7 22q1 4 3.5 7.5t5.5 6.5 q2 3 5 6t6 5q3 3 6.5 4t8.5 3q4 3 15 3h15q9 -1 17 -6q7 -3 15 -8q3 -4 5.5 -7.5t4.5 -5.5q2 -3 3.5 -6.5t3.5 -7.5q1 -4 2 -7.5t1 -7.5v-8t-2 -9q-1 -4 -1.5 -7.5t-3.5 -7.5l-3.5 -7l-3.5 -7q-4 -3 -7 -5.5t-5 -6.5q-4 -2 -7.5 -4t-7.5 -4q-6 0 -16 -2q-12 0 -17 1t-16 5 q-11 6 -18 16q-8 9 -14 21q-2 6 -2 11zM1059 1043q0 -2 1 -5t2 -5q1 -6 4 -10q2 -2 3.5 -4t3.5 -3q3 -4 9 -6q7 -4 12 -4h11q7 0 12 1q4 4 8 4q3 2 5.5 4t4.5 3q2 3 3 5.5t3 4.5q2 4 2.5 8t1.5 10q0 4 -0.5 7.5t-0.5 7.5q-2 4 -4.5 7.5t-4.5 5.5q-7 7 -15 10q-2 2 -5 2.5 t-6 2.5h-10q-7 0 -10 -3q-4 -2 -6.5 -2.5t-4.5 -1.5l-4 -4t-3 -4q-7 -5 -7 -8q-2 -3 -2.5 -6t-2.5 -6v-11zM1107 -135v-2q0 -3 1 -4q0 -1 1 -1q0 -6 3 -6q2 -5 7 -6h6q5 0 8 2q1 2 3 3t2 3v2q0 2 2 2l3 3v2q0 6 -5 6q0 6 -3 6q-2 3 -5 3q-2 0 -3.5 1t-3.5 1q-1 -2 -6 -2 l-7 -4q-1 -1 -1 -3v-2q-2 -2 -2 -4zM1119 -43v-16q0 -4 1.5 -7.5t1.5 -7.5l6 -15q3 -4 6.5 -6t5.5 -5l14 -11l12 -2q5 -2 17 -2q4 0 7 1t7 2q5 1 8.5 4t6.5 6q2 1 5.5 2.5t5.5 4.5q3 1 5 4t5 6l4 14q4 4 4 14l-12 2h-6l-8 -4q-2 0 -3 -3t-1 -5l-5 -9l-9 -6q-4 -2 -6 -3.5 t-5 -1.5q-7 -3 -14 0q-2 2 -5 2.5t-6 2.5q-6 4 -7 11q-5 2 -5 12q-4 3 0 14q0 2 0.5 4t1.5 7l4 4t5 3q7 4 9 4q3 1 11 1q2 0 10 5q2 3 5 5l2 6v9q-3 4 -12 4h-14l-14 -5l-11 -5q-2 -2 -5.5 -4.5t-6.5 -6.5q-2 -2 -4.5 -6t-4.5 -8zM1196 913l41 127l9 -8q1 -2 2 -3.5t3 -3.5 q0 -5 -2 -8l-27 -88l84 39q1 1 8 1q4 0 6 -3l10 -9l-120 -55zM1206 11q0 -4 2 -8l4 -14l11 -13l14 -10q4 -1 7 -3.5t8 -2.5q4 0 8 -1.5t8 -1.5q2 0 6 1.5t9 1.5q2 0 5.5 2.5t7.5 3.5q7 3 14 10l10 13q1 2 3 5.5t2 8.5q1 4 1 14v17l-6 12q-2 4 -4 7.5t-4 6.5l-14 14l-15 3 q-4 3 -15 3q-4 0 -8 -0.5t-8 -2.5l-13 -3q-4 -3 -8 -7l-7 -7l-4 -6t-5 -5q-3 -4 -4 -7.5t-3 -7.5q0 -4 -1 -7.5t-1 -8.5v-7zM1236 18q0 8 1 12q3 8 7 12l11 8q3 0 6.5 0.5t6.5 0.5q4 0 12 -2q2 -2 4.5 -3.5t5.5 -5.5q3 -1 4.5 -4t3.5 -6t2 -13v-5.5t-2 -5.5q-4 -9 -8 -10 q-7 -7 -10 -8q-3 -2 -6.5 -2h-5.5q-4 0 -7.5 1t-5.5 1l-11 8q-4 4 -7 11q-1 4 -1 11zM1247 866l92 78l50 -57l-15 -15l-38 46l-22 -20l28 -37l-16 -11l-28 36l-24 -22l36 -43l-16 -12zM1268 100l98 -66l16 22l-47 34l62 -13l11 20l-34 51l48 -30l16 24l-101 66l-12 -18 q-1 -2 -2.5 -4t-1.5 -6q0 -2 1.5 -4t2.5 -4l41 -59l-71 10h-10l-9 -6zM1300 800l104 62l23 -38q2 -3 3 -6t3 -8q2 -7 -2 -12q-2 -9 -6 -14l-4.5 -4.5t-6.5 -5.5q-3 -1 -5 -1.5t-5 -1.5q-3 0 -5 -1t-5 1q-4 0 -11 2q-3 1 -5 2t-4 3l-23 -60l-10 13q-4 2 -4 7q0 7 3 10l21 49 l-8 12l-43 -26zM1355 705q0 3 2 13q0 3 3 5l2 4q0 4 2 4q4 2 3 2l4 -2q3 -5 5 -6q0 -2 0.5 -3t0.5 -2q0 -4 -3 -7v-1v-7q0 -5 2 -10q0 -1 1 -2.5t2 -3.5q2 -1 3.5 -2.5t3.5 -2.5q1 -1 3 -1t4 -2h4.5t4.5 2q2 0 5 3q2 4 2 5q1 3 1 8v8v4v12q0 8 2 13q1 2 2.5 4.5t3.5 5.5 q3 2 5 4t7 4q8 3 14 2q6 0 12 -4q3 -2 6.5 -4t5.5 -6q3 -3 7 -11q2 -6 2 -10q0 -6 -1 -10q0 -4 -3 -11q-1 -2 -1.5 -4t-2.5 -4l-6 4q-3 1 -4 2.5t-3 3.5q-1 3 -1.5 5t0.5 5q1 1 1 8q0 3 -1 5q-2 2 -2 6q-3 0 -5 4q-2 1 -5 1q-3 1 -5 0t-2.5 -2t-1.5 -2t-2 -1.5t-2 -2.5v-7 v-10v-3v-2v-11q0 -2 -1 -4.5t-1 -4.5q-4 -14 -19 -21q-4 -2 -7.5 -3.5t-8.5 1.5q-6 0 -15 2q-3 3 -6.5 5t-5.5 6q-3 2 -5 5.5t-4 7.5q-2 10 -2 16zM1369 818l13 -19q3 -5 4 -6q1 0 7 -3h6q2 0 5 3q2 0 6 4q0 2 1 3t1 3q1 1 1 6q-1 1 -1 2.5t-2 3.5l-11 20zM1376 640l117 35 l5 -20l-117 -33zM1394 552q-1 13 1 25q5 12 10 20q7 9 18 16q5 3 11.5 6t11.5 3h19q6 0 15 -5q4 -1 7.5 -3.5t5.5 -4.5q3 -2 6.5 -4.5t5.5 -6.5q4 -8 8 -12q2 -8 5 -19v-15q-2 -10 -5 -15q-2 -5 -4 -9t-4 -7l-10 -10q-4 -4 -7.5 -5t-6.5 -3q-7 -4 -16 -4q-10 -1 -19 0 q-8 0 -15 4q-2 2 -6 3t-8 4q-3 2 -5.5 5.5t-4.5 5.5q-6 5 -8 16q-2 3 -3.5 6.5t-1.5 8.5zM1395 380l2 16l98 62l-93 6l1 19l121 -9l-1 -12q0 -5 -1 -8q-3 -3 -4 -5l-83 -53l84 -6l-2 -19zM1413 555q2 -8 4 -11q0 -6 5 -9q1 -3 3 -5.5t3 -4.5q3 -1 5.5 -2.5t5.5 -2.5 q2 -2 5 -2h5q5 -3 11 0q11 0 18 5q5 2 12 12q6 8 6 15q3 7 1 16q0 6 -2 11q-2 3 -3 5l-2 4l-4 4t-4 3q-5 4 -11 5q-3 4 -11 4q-4 2 -11 0q-7 0 -10 -4q-5 -1 -11 -5q-4 -1 -6 -7q-5 -5 -5 -9q-2 -2 -2.5 -5.5t-1.5 -5.5v-11z" />
<glyph unicode="8" d="M125 431v6.5t1 5.5q2 8 2 14q2 3 3.5 5.5t3.5 5.5q2 2 3.5 5t3.5 5l4 -4q2 -1 3.5 -2t2.5 -1q1 -3 1 -7v-4t-2 -3q-4 -5 -5 -12q-1 -5 -1 -13t3 -17q3 -4 6 -7.5t5 -6.5q5 -5 14 -7q7 -4 17 -3q6 0 13 3l4 2t4 3t4.5 3t4.5 5q1 2 2.5 4t3.5 4q0 4 1 6.5t2 5.5q1 4 1 11 q-1 3 -1.5 7t-2.5 8q0 3 -5 10l-18 -1v-5v-5q0 -2 -3 -6q-1 -1 -1.5 -2t-2.5 -2t-7 -1h-6l-3 38l51 3q2 -2 5 -4t4 -4q2 -2 3.5 -5t1.5 -5q1 -7 4 -12q0 -3 0.5 -6.5t0.5 -5.5q0 -8 -0.5 -14t-3.5 -11q-1 -7 -4 -12.5t-8 -10.5q-7 -9 -19 -13q-11 -7 -22 -7h-19 q-4 2 -7.5 3.5t-7.5 3.5q-4 1 -6.5 3t-6.5 4l-6 6t-5 7q-2 2 -3.5 6t-3.5 8q-1 5 -1.5 9t-1.5 9zM125 506l8 77l20 -1l-7 -58l31 -4l5 47l21 -1l-5 -47l31 -3l5 58l21 -3l-9 -77zM135 597l23 91l19 -5l-10 -38l99 -23l-4 -19l-99 25l-10 -36zM177 740l42 84l17 -8l-16 -33 l91 -46l-8 -17l-92 46l-16 -35zM205 160l46 -80l23 14l-25 46l84 -10q2 0 6 1q2 0 2.5 0.5t2.5 0.5l11 8l-46 79l-23 -14l26 -45l-84 9q-2 0 -5.5 -0.5t-7.5 -3.5zM229 844l12 15l41 -30l35 49l-41 30l12 17l98 -73l-11 -16l-41 30l-36 -48l42 -31l-11 -15zM270 53l53 -59 l19 18l-33 38l18 11l23 -31l23 19l-28 31l14 11l32 -40l22 19l-51 61zM298 471q0 -105 40.5 -200.5t111 -167.5t167.5 -115t209 -43q36 0 72 5.5t70 15.5q80 24 150 70t122 111.5t82.5 147.5t30.5 176q0 103 -39.5 199t-109.5 169t-167 117t-211 44q-106 0 -202 -40 t-168 -111.5t-115 -168t-43 -209.5zM311 949l55 55l14 -16l-40 -40l20 -21l34 31l14 -14l-33 -31l21 -23l42 40l14 -16l-56 -53zM344 471q0 96 36 183.5t100.5 155t153 106.5t192.5 39q69 0 127 -17q74 -19 138.5 -61t113 -102.5t77 -137.5t28.5 -166q0 -100 -38 -188.5 t-104 -155t-154.5 -104t-187.5 -37.5q-102 0 -190 39.5t-153 106t-102 154.5t-37 185zM369 -50l20 -19l62 71l23 -21l18 20l-71 60l-21 -21l28 -22zM390 471q0 -84 29.5 -158.5t79.5 -134.5l568 570h-578q-47 -56 -73 -125.5t-26 -151.5zM412 -90l16 -9q0 -1 2 -1h3 q2 0 2.5 -0.5t2.5 0.5h5q3 0 4 1l12 9l40 -23l-2 -15v-5q0 -2 1 -3q0 -1 1 -1v-3q0 -2 2 -2l4 -3l16 -11l18 128l-23 14zM427 1048l65 41l9 -17l-47 -31l17 -26l40 25l10 -17l-40 -25l25 -43l-14 -11zM484 -74l17 15h2q2 0 2 1v1v1h1q1 1 2 1l-3 -2v-2v-3l-2 -23zM511 1100 l18 8l31 -68q0 -7 6 -10q1 -3 9 -7q2 -1 5.5 -1h5.5q6 -1 11 1q7 3 10 7q5 5 6 10q1 2 1 11q0 7 -1 11l-27 68l17 9l30 -70q1 -5 1.5 -9t0.5 -9q0 -10 -3 -20q-2 -4 -4.5 -7.5t-7.5 -6.5q-2 -5 -6 -7t-9 -4t-9.5 -3.5t-9.5 -1.5q-8 0 -19 5q-5 2 -8.5 4t-6.5 6q-7 7 -10 16z M534 797h579q-55 51 -129 81t-158 30q-85 0 -159 -29.5t-133 -81.5zM536 146q58 -50 131.5 -80.5t158.5 -30.5q84 0 159 30.5t134 80.5h-583zM539 -161l26 -12l16 42l39 -15l10 26l-38 15l6 18l49 -18l8 25l-73 27zM585 194h577q46 56 72 126.5t26 150.5q0 82 -27.5 153.5 t-82.5 142.5zM633 1146l20 5l23 -99l50 11l4 -21l-67 -15zM639 -137v-19l3 -15l6 -13l11 -12q3 -4 7.5 -5.5t6.5 -3.5q7 -4 15 -4q5 -1 8.5 -1h8.5t13 2q4 2 8.5 3t6.5 4q6 2 12 11l9 11q4 7 7 17v16q0 3 -1 6.5t-3 8.5q-1 5 -2.5 7.5t-3.5 6.5l-10 12q-3 3 -6.5 5t-7.5 4 t-7 2.5t-8 2.5q-5 1 -9 1h-8q-10 0 -14 -4q-4 -1 -7.5 -2t-7.5 -4l-12 -11q-4 -8 -10 -11q-2 -5 -3.5 -8.5t-1.5 -6.5zM670 -142q0 6 5 11l6 9l13 5h12l12 -5l9 -9q2 -3 3.5 -5t1.5 -6q2 -9 0 -15q0 -3 -1.5 -6.5t-3.5 -5.5q-3 -4 -4.5 -5.5l-4.5 -4.5q-3 -1 -5.5 -2 t-6.5 -1q-6 -3 -12 0q-4 0 -7.5 1t-5.5 2l-8 10q-2 2 -2.5 5.5t-0.5 6.5q-3 5 0 15zM721 1164l20 2l11 -100l52 5v-20l-71 -9zM769 -102l3 -122l28 1v81l52 -81h26v121h-31l4 -77q-1 0 -1 4q0 1 -1.5 1t-1.5 1q0 4 -1 4l-42 61q0 1 -2 3q-2 3 -9 3h-10h-14zM850 1051l12 120 l45 -5q6 0 15 -4q9 -5 11 -10q4 -3 7 -13q3 -7 2 -15q-2 -4 -2.5 -7.5t-2.5 -8.5q-6 -8 -9 -11q-4 -3 -15 -7q-3 -1 -13 -1l-26 3l-5 -44zM876 1110l25 -2h7q3 1 7 6q3 0 4 5q2 1 4 7q0 5 -1 8q-1 2 -2 3.5t-1 2.5q-2 2 -3.5 3t-3.5 2t-3.5 1t-2.5 1l-25 3zM888 -101l4 -27 l35 6l16 -91l27 5l-17 91l32 6l-5 26zM939 1040l32 116l44 -11q6 0 12 -6q5 -4 9 -11q4 -5 4 -13q1 -5 0.5 -8t-0.5 -7q-2 -5 -5 -10t-6 -8q-7 -5 -10 -5q-2 -2 -4.5 -2.5t-4.5 -1.5l22 -58l-15 2q-2 1 -3.5 2.5t-3.5 2.5q-3 1 -5 8l-20 47l-14 4l-13 -46zM976 1100l24 -6 q2 0 3.5 -0.5t3.5 0.5q2 0 3.5 0.5t3.5 0.5t2 1.5t1 2.5q4 4 4 6q1 3 1 7q-1 2 -1 3.5t-1 3.5q-1 1 -2.5 1.5t-1.5 2.5q-3 3 -6 3l-25 6zM996 -99v-5.5t2 -7.5q3 -8 11 -13q1 -1 3.5 -2.5t4.5 -3.5q3 0 6.5 -1t5.5 -1h13h10h2q2 0 4 -2q3 0 3 -2h3v-5q0 -2 -0.5 -3t-0.5 -2 v-1q-2 0 -3 -3t-2 -3q-2 -2 -6 -2q0 -1 -2 -1h-3q-2 0 -3.5 0.5t-3.5 0.5h-6h-8l-4 -2q-1 0 -1 -1.5t-1 -1.5l-5 -8q1 -4 3 -5.5t4 -4.5q3 -1 6.5 -2t6.5 -1q8 -3 13 -2q3 0 7 1t8 1q3 2 6.5 3.5t7.5 4.5q4 4 5.5 6t4.5 7q1 4 3.5 7t2.5 9q0 4 -0.5 7.5t-3.5 6.5q-1 8 -6 11 q-2 6 -9 8l-11 6h-15h-8h-9h-2v1q-3 3 -3 4l-2 1q2 1 2 4q0 1 1 1h2q0 1 5 1v3h1h5h3q4 0 5 1q4 0 8 1q0 2 1 3t1 2l5 10l-7 3q-8 4 -13 4q-2 0 -4.5 1t-4.5 1q-4 0 -6 -1t-4 -1l-13 -7q-2 -2 -4 -4.5t-3 -6.5q-7 -6 -8 -14zM1040 1038v13q1 11 7 22q1 4 3.5 7.5t5.5 6.5 q2 3 5 6t6 5q3 3 6.5 4t8.5 3q4 3 15 3h15q9 -1 17 -6q7 -3 15 -8q3 -4 5.5 -7.5t4.5 -5.5q2 -3 3.5 -6.5t3.5 -7.5q1 -4 2 -7.5t1 -7.5v-8t-2 -9q-1 -4 -1.5 -7.5t-3.5 -7.5l-3.5 -7l-3.5 -7q-4 -3 -7 -5.5t-5 -6.5q-4 -2 -7.5 -4t-7.5 -4q-6 0 -16 -2q-12 0 -17 1t-16 5 q-11 6 -18 16q-8 9 -14 21q-2 6 -2 11zM1059 1043q0 -2 1 -5t2 -5q1 -6 4 -10q2 -2 3.5 -4t3.5 -3q3 -4 9 -6q7 -4 12 -4h11q7 0 12 1q4 4 8 4q3 2 5.5 4t4.5 3q2 3 3 5.5t3 4.5q2 4 2.5 8t1.5 10q0 4 -0.5 7.5t-0.5 7.5q-2 4 -4.5 7.5t-4.5 5.5q-7 7 -15 10q-2 2 -5 2.5 t-6 2.5h-10q-7 0 -10 -3q-4 -2 -6.5 -2.5t-4.5 -1.5l-4 -4t-3 -4q-7 -5 -7 -8q-2 -3 -2.5 -6t-2.5 -6v-11zM1107 -135v-2q0 -3 1 -4q0 -1 1 -1q0 -6 3 -6q2 -5 7 -6h6q5 0 8 2q1 2 3 3t2 3v2q0 2 2 2l3 3v2q0 6 -5 6q0 6 -3 6q-2 3 -5 3q-2 0 -3.5 1t-3.5 1q-1 -2 -6 -2 l-7 -4q-1 -1 -1 -3v-2q-2 -2 -2 -4zM1119 -43v-16q0 -4 1.5 -7.5t1.5 -7.5l6 -15q3 -4 6.5 -6t5.5 -5l14 -11l12 -2q5 -2 17 -2q4 0 7 1t7 2q5 1 8.5 4t6.5 6q2 1 5.5 2.5t5.5 4.5q3 1 5 4t5 6l4 14q4 4 4 14l-12 2h-6l-8 -4q-2 0 -3 -3t-1 -5l-5 -9l-9 -6q-4 -2 -6 -3.5 t-5 -1.5q-7 -3 -14 0q-2 2 -5 2.5t-6 2.5q-6 4 -7 11q-5 2 -5 12q-4 3 0 14q0 2 0.5 4t1.5 7l4 4t5 3q7 4 9 4q3 1 11 1q2 0 10 5q2 3 5 5l2 6v9q-3 4 -12 4h-14l-14 -5l-11 -5q-2 -2 -5.5 -4.5t-6.5 -6.5q-2 -2 -4.5 -6t-4.5 -8zM1196 913l41 127l9 -8q1 -2 2 -3.5t3 -3.5 q0 -5 -2 -8l-27 -88l84 39q1 1 8 1q4 0 6 -3l10 -9l-120 -55zM1206 11q0 -4 2 -8l4 -14l11 -13l14 -10q4 -1 7 -3.5t8 -2.5q4 0 8 -1.5t8 -1.5q2 0 6 1.5t9 1.5q2 0 5.5 2.5t7.5 3.5q7 3 14 10l10 13q1 2 3 5.5t2 8.5q1 4 1 14v17l-6 12q-2 4 -4 7.5t-4 6.5l-14 14l-15 3 q-4 3 -15 3q-4 0 -8 -0.5t-8 -2.5l-13 -3q-4 -3 -8 -7l-7 -7l-4 -6t-5 -5q-3 -4 -4 -7.5t-3 -7.5q0 -4 -1 -7.5t-1 -8.5v-7zM1236 18q0 8 1 12q3 8 7 12l11 8q3 0 6.5 0.5t6.5 0.5q4 0 12 -2q2 -2 4.5 -3.5t5.5 -5.5q3 -1 4.5 -4t3.5 -6t2 -13v-5.5t-2 -5.5q-4 -9 -8 -10 q-7 -7 -10 -8q-3 -2 -6.5 -2h-5.5q-4 0 -7.5 1t-5.5 1l-11 8q-4 4 -7 11q-1 4 -1 11zM1247 866l92 78l50 -57l-15 -15l-38 46l-22 -20l28 -37l-16 -11l-28 36l-24 -22l36 -43l-16 -12zM1268 100l98 -66l16 22l-47 34l62 -13l11 20l-34 51l48 -30l16 24l-101 66l-12 -18 q-1 -2 -2.5 -4t-1.5 -6q0 -2 1.5 -4t2.5 -4l41 -59l-71 10h-10l-9 -6zM1300 800l104 62l23 -38q2 -3 3 -6t3 -8q2 -7 -2 -12q-2 -9 -6 -14l-4.5 -4.5t-6.5 -5.5q-3 -1 -5 -1.5t-5 -1.5q-3 0 -5 -1t-5 1q-4 0 -11 2q-3 1 -5 2t-4 3l-23 -60l-10 13q-4 2 -4 7q0 7 3 10l21 49 l-8 12l-43 -26zM1355 705q0 3 2 13q0 3 3 5l2 4q0 4 2 4q4 2 3 2l4 -2q3 -5 5 -6q0 -2 0.5 -3t0.5 -2q0 -4 -3 -7v-1v-7q0 -5 2 -10q0 -1 1 -2.5t2 -3.5q2 -1 3.5 -2.5t3.5 -2.5q1 -1 3 -1t4 -2h4.5t4.5 2q2 0 5 3q2 4 2 5q1 3 1 8v8v4v12q0 8 2 13q1 2 2.5 4.5t3.5 5.5 q3 2 5 4t7 4q8 3 14 2q6 0 12 -4q3 -2 6.5 -4t5.5 -6q3 -3 7 -11q2 -6 2 -10q0 -6 -1 -10q0 -4 -3 -11q-1 -2 -1.5 -4t-2.5 -4l-6 4q-3 1 -4 2.5t-3 3.5q-1 3 -1.5 5t0.5 5q1 1 1 8q0 3 -1 5q-2 2 -2 6q-3 0 -5 4q-2 1 -5 1q-3 1 -5 0t-2.5 -2t-1.5 -2t-2 -1.5t-2 -2.5v-7 v-10v-3v-2v-11q0 -2 -1 -4.5t-1 -4.5q-4 -14 -19 -21q-4 -2 -7.5 -3.5t-8.5 1.5q-6 0 -15 2q-3 3 -6.5 5t-5.5 6q-3 2 -5 5.5t-4 7.5q-2 10 -2 16zM1369 818l13 -19q3 -5 4 -6q1 0 7 -3h6q2 0 5 3q2 0 6 4q0 2 1 3t1 3q1 1 1 6q-1 1 -1 2.5t-2 3.5l-11 20zM1376 640l117 35 l5 -20l-117 -33zM1394 552q-1 13 1 25q5 12 10 20q7 9 18 16q5 3 11.5 6t11.5 3h19q6 0 15 -5q4 -1 7.5 -3.5t5.5 -4.5q3 -2 6.5 -4.5t5.5 -6.5q4 -8 8 -12q2 -8 5 -19v-15q-2 -10 -5 -15q-2 -5 -4 -9t-4 -7l-10 -10q-4 -4 -7.5 -5t-6.5 -3q-7 -4 -16 -4q-10 -1 -19 0 q-8 0 -15 4q-2 2 -6 3t-8 4q-3 2 -5.5 5.5t-4.5 5.5q-6 5 -8 16q-2 3 -3.5 6.5t-1.5 8.5zM1395 380l2 16l98 62l-93 6l1 19l121 -9l-1 -12q0 -5 -1 -8q-3 -3 -4 -5l-83 -53l84 -6l-2 -19zM1413 555q2 -8 4 -11q0 -6 5 -9q1 -3 3 -5.5t3 -4.5q3 -1 5.5 -2.5t5.5 -2.5 q2 -2 5 -2h5q5 -3 11 0q11 0 18 5q5 2 12 12q6 8 6 15q3 7 1 16q0 6 -2 11q-2 3 -3 5l-2 4l-4 4t-4 3q-5 4 -11 5q-3 4 -11 4q-4 2 -11 0q-7 0 -10 -4q-5 -1 -11 -5q-4 -1 -6 -7q-5 -5 -5 -9q-2 -2 -2.5 -5.5t-1.5 -5.5v-11z" />
<glyph unicode="9" d="M125 431v6.5t1 5.5q2 8 2 14q2 3 3.5 5.5t3.5 5.5q2 2 3.5 5t3.5 5l4 -4q2 -1 3.5 -2t2.5 -1q1 -3 1 -7v-4t-2 -3q-4 -5 -5 -12q-1 -5 -1 -13t3 -17q3 -4 6 -7.5t5 -6.5q5 -5 14 -7q7 -4 17 -3q6 0 13 3l4 2t4 3t4.5 3t4.5 5q1 2 2.5 4t3.5 4q0 4 1 6.5t2 5.5q1 4 1 11 q-1 3 -1.5 7t-2.5 8q0 3 -5 10l-18 -1v-5v-5q0 -2 -3 -6q-1 -1 -1.5 -2t-2.5 -2t-7 -1h-6l-3 38l51 3q2 -2 5 -4t4 -4q2 -2 3.5 -5t1.5 -5q1 -7 4 -12q0 -3 0.5 -6.5t0.5 -5.5q0 -8 -0.5 -14t-3.5 -11q-1 -7 -4 -12.5t-8 -10.5q-7 -9 -19 -13q-11 -7 -22 -7h-19 q-4 2 -7.5 3.5t-7.5 3.5q-4 1 -6.5 3t-6.5 4l-6 6t-5 7q-2 2 -3.5 6t-3.5 8q-1 5 -1.5 9t-1.5 9zM125 506l8 77l20 -1l-7 -58l31 -4l5 47l21 -1l-5 -47l31 -3l5 58l21 -3l-9 -77zM135 597l23 91l19 -5l-10 -38l99 -23l-4 -19l-99 25l-10 -36zM177 740l42 84l17 -8l-16 -33 l91 -46l-8 -17l-92 46l-16 -35zM205 160l46 -80l23 14l-25 46l84 -10q2 0 6 1q2 0 2.5 0.5t2.5 0.5l11 8l-46 79l-23 -14l26 -45l-84 9q-2 0 -5.5 -0.5t-7.5 -3.5zM229 844l12 15l41 -30l35 49l-41 30l12 17l98 -73l-11 -16l-41 30l-36 -48l42 -31l-11 -15zM270 53l53 -59 l19 18l-33 38l18 11l23 -31l23 19l-28 31l14 11l32 -40l22 19l-51 61zM298 471q0 -105 40.5 -200.5t111 -167.5t167.5 -115t209 -43q36 0 72 5.5t70 15.5q80 24 150 70t122 111.5t82.5 147.5t30.5 176q0 103 -39.5 199t-109.5 169t-167 117t-211 44q-106 0 -202 -40 t-168 -111.5t-115 -168t-43 -209.5zM311 949l55 55l14 -16l-40 -40l20 -21l34 31l14 -14l-33 -31l21 -23l42 40l14 -16l-56 -53zM344 471q0 96 36 183.5t100.5 155t153 106.5t192.5 39q69 0 127 -17q74 -19 138.5 -61t113 -102.5t77 -137.5t28.5 -166q0 -100 -38 -188.5 t-104 -155t-154.5 -104t-187.5 -37.5q-102 0 -190 39.5t-153 106t-102 154.5t-37 185zM369 -50l20 -19l62 71l23 -21l18 20l-71 60l-21 -21l28 -22zM390 471q0 -84 29.5 -158.5t79.5 -134.5l568 570h-578q-47 -56 -73 -125.5t-26 -151.5zM412 -90l16 -9q0 -1 2 -1h3 q2 0 2.5 -0.5t2.5 0.5h5q3 0 4 1l12 9l40 -23l-2 -15v-5q0 -2 1 -3q0 -1 1 -1v-3q0 -2 2 -2l4 -3l16 -11l18 128l-23 14zM427 1048l65 41l9 -17l-47 -31l17 -26l40 25l10 -17l-40 -25l25 -43l-14 -11zM484 -74l17 15h2q2 0 2 1v1v1h1q1 1 2 1l-3 -2v-2v-3l-2 -23zM511 1100 l18 8l31 -68q0 -7 6 -10q1 -3 9 -7q2 -1 5.5 -1h5.5q6 -1 11 1q7 3 10 7q5 5 6 10q1 2 1 11q0 7 -1 11l-27 68l17 9l30 -70q1 -5 1.5 -9t0.5 -9q0 -10 -3 -20q-2 -4 -4.5 -7.5t-7.5 -6.5q-2 -5 -6 -7t-9 -4t-9.5 -3.5t-9.5 -1.5q-8 0 -19 5q-5 2 -8.5 4t-6.5 6q-7 7 -10 16z M534 797h579q-55 51 -129 81t-158 30q-85 0 -159 -29.5t-133 -81.5zM536 146q58 -50 131.5 -80.5t158.5 -30.5q84 0 159 30.5t134 80.5h-583zM539 -161l26 -12l16 42l39 -15l10 26l-38 15l6 18l49 -18l8 25l-73 27zM585 194h577q46 56 72 126.5t26 150.5q0 82 -27.5 153.5 t-82.5 142.5zM633 1146l20 5l23 -99l50 11l4 -21l-67 -15zM639 -137v-19l3 -15l6 -13l11 -12q3 -4 7.5 -5.5t6.5 -3.5q7 -4 15 -4q5 -1 8.5 -1h8.5t13 2q4 2 8.5 3t6.5 4q6 2 12 11l9 11q4 7 7 17v16q0 3 -1 6.5t-3 8.5q-1 5 -2.5 7.5t-3.5 6.5l-10 12q-3 3 -6.5 5t-7.5 4 t-7 2.5t-8 2.5q-5 1 -9 1h-8q-10 0 -14 -4q-4 -1 -7.5 -2t-7.5 -4l-12 -11q-4 -8 -10 -11q-2 -5 -3.5 -8.5t-1.5 -6.5zM670 -142q0 6 5 11l6 9l13 5h12l12 -5l9 -9q2 -3 3.5 -5t1.5 -6q2 -9 0 -15q0 -3 -1.5 -6.5t-3.5 -5.5q-3 -4 -4.5 -5.5l-4.5 -4.5q-3 -1 -5.5 -2 t-6.5 -1q-6 -3 -12 0q-4 0 -7.5 1t-5.5 2l-8 10q-2 2 -2.5 5.5t-0.5 6.5q-3 5 0 15zM721 1164l20 2l11 -100l52 5v-20l-71 -9zM769 -102l3 -122l28 1v81l52 -81h26v121h-31l4 -77q-1 0 -1 4q0 1 -1.5 1t-1.5 1q0 4 -1 4l-42 61q0 1 -2 3q-2 3 -9 3h-10h-14zM850 1051l12 120 l45 -5q6 0 15 -4q9 -5 11 -10q4 -3 7 -13q3 -7 2 -15q-2 -4 -2.5 -7.5t-2.5 -8.5q-6 -8 -9 -11q-4 -3 -15 -7q-3 -1 -13 -1l-26 3l-5 -44zM876 1110l25 -2h7q3 1 7 6q3 0 4 5q2 1 4 7q0 5 -1 8q-1 2 -2 3.5t-1 2.5q-2 2 -3.5 3t-3.5 2t-3.5 1t-2.5 1l-25 3zM888 -101l4 -27 l35 6l16 -91l27 5l-17 91l32 6l-5 26zM939 1040l32 116l44 -11q6 0 12 -6q5 -4 9 -11q4 -5 4 -13q1 -5 0.5 -8t-0.5 -7q-2 -5 -5 -10t-6 -8q-7 -5 -10 -5q-2 -2 -4.5 -2.5t-4.5 -1.5l22 -58l-15 2q-2 1 -3.5 2.5t-3.5 2.5q-3 1 -5 8l-20 47l-14 4l-13 -46zM976 1100l24 -6 q2 0 3.5 -0.5t3.5 0.5q2 0 3.5 0.5t3.5 0.5t2 1.5t1 2.5q4 4 4 6q1 3 1 7q-1 2 -1 3.5t-1 3.5q-1 1 -2.5 1.5t-1.5 2.5q-3 3 -6 3l-25 6zM996 -99v-5.5t2 -7.5q3 -8 11 -13q1 -1 3.5 -2.5t4.5 -3.5q3 0 6.5 -1t5.5 -1h13h10h2q2 0 4 -2q3 0 3 -2h3v-5q0 -2 -0.5 -3t-0.5 -2 v-1q-2 0 -3 -3t-2 -3q-2 -2 -6 -2q0 -1 -2 -1h-3q-2 0 -3.5 0.5t-3.5 0.5h-6h-8l-4 -2q-1 0 -1 -1.5t-1 -1.5l-5 -8q1 -4 3 -5.5t4 -4.5q3 -1 6.5 -2t6.5 -1q8 -3 13 -2q3 0 7 1t8 1q3 2 6.5 3.5t7.5 4.5q4 4 5.5 6t4.5 7q1 4 3.5 7t2.5 9q0 4 -0.5 7.5t-3.5 6.5q-1 8 -6 11 q-2 6 -9 8l-11 6h-15h-8h-9h-2v1q-3 3 -3 4l-2 1q2 1 2 4q0 1 1 1h2q0 1 5 1v3h1h5h3q4 0 5 1q4 0 8 1q0 2 1 3t1 2l5 10l-7 3q-8 4 -13 4q-2 0 -4.5 1t-4.5 1q-4 0 -6 -1t-4 -1l-13 -7q-2 -2 -4 -4.5t-3 -6.5q-7 -6 -8 -14zM1040 1038v13q1 11 7 22q1 4 3.5 7.5t5.5 6.5 q2 3 5 6t6 5q3 3 6.5 4t8.5 3q4 3 15 3h15q9 -1 17 -6q7 -3 15 -8q3 -4 5.5 -7.5t4.5 -5.5q2 -3 3.5 -6.5t3.5 -7.5q1 -4 2 -7.5t1 -7.5v-8t-2 -9q-1 -4 -1.5 -7.5t-3.5 -7.5l-3.5 -7l-3.5 -7q-4 -3 -7 -5.5t-5 -6.5q-4 -2 -7.5 -4t-7.5 -4q-6 0 -16 -2q-12 0 -17 1t-16 5 q-11 6 -18 16q-8 9 -14 21q-2 6 -2 11zM1059 1043q0 -2 1 -5t2 -5q1 -6 4 -10q2 -2 3.5 -4t3.5 -3q3 -4 9 -6q7 -4 12 -4h11q7 0 12 1q4 4 8 4q3 2 5.5 4t4.5 3q2 3 3 5.5t3 4.5q2 4 2.5 8t1.5 10q0 4 -0.5 7.5t-0.5 7.5q-2 4 -4.5 7.5t-4.5 5.5q-7 7 -15 10q-2 2 -5 2.5 t-6 2.5h-10q-7 0 -10 -3q-4 -2 -6.5 -2.5t-4.5 -1.5l-4 -4t-3 -4q-7 -5 -7 -8q-2 -3 -2.5 -6t-2.5 -6v-11zM1107 -135v-2q0 -3 1 -4q0 -1 1 -1q0 -6 3 -6q2 -5 7 -6h6q5 0 8 2q1 2 3 3t2 3v2q0 2 2 2l3 3v2q0 6 -5 6q0 6 -3 6q-2 3 -5 3q-2 0 -3.5 1t-3.5 1q-1 -2 -6 -2 l-7 -4q-1 -1 -1 -3v-2q-2 -2 -2 -4zM1119 -43v-16q0 -4 1.5 -7.5t1.5 -7.5l6 -15q3 -4 6.5 -6t5.5 -5l14 -11l12 -2q5 -2 17 -2q4 0 7 1t7 2q5 1 8.5 4t6.5 6q2 1 5.5 2.5t5.5 4.5q3 1 5 4t5 6l4 14q4 4 4 14l-12 2h-6l-8 -4q-2 0 -3 -3t-1 -5l-5 -9l-9 -6q-4 -2 -6 -3.5 t-5 -1.5q-7 -3 -14 0q-2 2 -5 2.5t-6 2.5q-6 4 -7 11q-5 2 -5 12q-4 3 0 14q0 2 0.5 4t1.5 7l4 4t5 3q7 4 9 4q3 1 11 1q2 0 10 5q2 3 5 5l2 6v9q-3 4 -12 4h-14l-14 -5l-11 -5q-2 -2 -5.5 -4.5t-6.5 -6.5q-2 -2 -4.5 -6t-4.5 -8zM1196 913l41 127l9 -8q1 -2 2 -3.5t3 -3.5 q0 -5 -2 -8l-27 -88l84 39q1 1 8 1q4 0 6 -3l10 -9l-120 -55zM1206 11q0 -4 2 -8l4 -14l11 -13l14 -10q4 -1 7 -3.5t8 -2.5q4 0 8 -1.5t8 -1.5q2 0 6 1.5t9 1.5q2 0 5.5 2.5t7.5 3.5q7 3 14 10l10 13q1 2 3 5.5t2 8.5q1 4 1 14v17l-6 12q-2 4 -4 7.5t-4 6.5l-14 14l-15 3 q-4 3 -15 3q-4 0 -8 -0.5t-8 -2.5l-13 -3q-4 -3 -8 -7l-7 -7l-4 -6t-5 -5q-3 -4 -4 -7.5t-3 -7.5q0 -4 -1 -7.5t-1 -8.5v-7zM1236 18q0 8 1 12q3 8 7 12l11 8q3 0 6.5 0.5t6.5 0.5q4 0 12 -2q2 -2 4.5 -3.5t5.5 -5.5q3 -1 4.5 -4t3.5 -6t2 -13v-5.5t-2 -5.5q-4 -9 -8 -10 q-7 -7 -10 -8q-3 -2 -6.5 -2h-5.5q-4 0 -7.5 1t-5.5 1l-11 8q-4 4 -7 11q-1 4 -1 11zM1247 866l92 78l50 -57l-15 -15l-38 46l-22 -20l28 -37l-16 -11l-28 36l-24 -22l36 -43l-16 -12zM1268 100l98 -66l16 22l-47 34l62 -13l11 20l-34 51l48 -30l16 24l-101 66l-12 -18 q-1 -2 -2.5 -4t-1.5 -6q0 -2 1.5 -4t2.5 -4l41 -59l-71 10h-10l-9 -6zM1300 800l104 62l23 -38q2 -3 3 -6t3 -8q2 -7 -2 -12q-2 -9 -6 -14l-4.5 -4.5t-6.5 -5.5q-3 -1 -5 -1.5t-5 -1.5q-3 0 -5 -1t-5 1q-4 0 -11 2q-3 1 -5 2t-4 3l-23 -60l-10 13q-4 2 -4 7q0 7 3 10l21 49 l-8 12l-43 -26zM1355 705q0 3 2 13q0 3 3 5l2 4q0 4 2 4q4 2 3 2l4 -2q3 -5 5 -6q0 -2 0.5 -3t0.5 -2q0 -4 -3 -7v-1v-7q0 -5 2 -10q0 -1 1 -2.5t2 -3.5q2 -1 3.5 -2.5t3.5 -2.5q1 -1 3 -1t4 -2h4.5t4.5 2q2 0 5 3q2 4 2 5q1 3 1 8v8v4v12q0 8 2 13q1 2 2.5 4.5t3.5 5.5 q3 2 5 4t7 4q8 3 14 2q6 0 12 -4q3 -2 6.5 -4t5.5 -6q3 -3 7 -11q2 -6 2 -10q0 -6 -1 -10q0 -4 -3 -11q-1 -2 -1.5 -4t-2.5 -4l-6 4q-3 1 -4 2.5t-3 3.5q-1 3 -1.5 5t0.5 5q1 1 1 8q0 3 -1 5q-2 2 -2 6q-3 0 -5 4q-2 1 -5 1q-3 1 -5 0t-2.5 -2t-1.5 -2t-2 -1.5t-2 -2.5v-7 v-10v-3v-2v-11q0 -2 -1 -4.5t-1 -4.5q-4 -14 -19 -21q-4 -2 -7.5 -3.5t-8.5 1.5q-6 0 -15 2q-3 3 -6.5 5t-5.5 6q-3 2 -5 5.5t-4 7.5q-2 10 -2 16zM1369 818l13 -19q3 -5 4 -6q1 0 7 -3h6q2 0 5 3q2 0 6 4q0 2 1 3t1 3q1 1 1 6q-1 1 -1 2.5t-2 3.5l-11 20zM1376 640l117 35 l5 -20l-117 -33zM1394 552q-1 13 1 25q5 12 10 20q7 9 18 16q5 3 11.5 6t11.5 3h19q6 0 15 -5q4 -1 7.5 -3.5t5.5 -4.5q3 -2 6.5 -4.5t5.5 -6.5q4 -8 8 -12q2 -8 5 -19v-15q-2 -10 -5 -15q-2 -5 -4 -9t-4 -7l-10 -10q-4 -4 -7.5 -5t-6.5 -3q-7 -4 -16 -4q-10 -1 -19 0 q-8 0 -15 4q-2 2 -6 3t-8 4q-3 2 -5.5 5.5t-4.5 5.5q-6 5 -8 16q-2 3 -3.5 6.5t-1.5 8.5zM1395 380l2 16l98 62l-93 6l1 19l121 -9l-1 -12q0 -5 -1 -8q-3 -3 -4 -5l-83 -53l84 -6l-2 -19zM1413 555q2 -8 4 -11q0 -6 5 -9q1 -3 3 -5.5t3 -4.5q3 -1 5.5 -2.5t5.5 -2.5 q2 -2 5 -2h5q5 -3 11 0q11 0 18 5q5 2 12 12q6 8 6 15q3 7 1 16q0 6 -2 11q-2 3 -3 5l-2 4l-4 4t-4 3q-5 4 -11 5q-3 4 -11 4q-4 2 -11 0q-7 0 -10 -4q-5 -1 -11 -5q-4 -1 -6 -7q-5 -5 -5 -9q-2 -2 -2.5 -5.5t-1.5 -5.5v-11z" />
<glyph unicode=":" horiz-adv-x="587" d="M36 170q0 30 9 57t27 48t43 33.5t58 12.5q47 0 85 -18t64.5 -50.5t41 -76t14.5 -93.5q0 -13 -17 -33t-42 -39t-54 -33t-54 -14q-34 0 -65.5 26.5t-56 61.5t-39 69.5t-14.5 48.5zM228 706q0 19 13 45t36 49.5t54 40.5t69 17q37 0 62 -17t40.5 -43t22 -58t6.5 -63 q0 -32 -11 -60.5t-31.5 -50.5t-49.5 -35.5t-66 -13.5q-20 0 -45.5 21.5t-47.5 52t-37 63t-15 52.5z" />
<glyph unicode=";" horiz-adv-x="529" d="M14 -169q9 7 27 22.5t35.5 35.5t30.5 43.5t13 48.5q0 16 -11 33.5t-24 37.5t-24 42t-11 48q0 28 9 53.5t25 45t39.5 31.5t54.5 12q44 0 77 -17t54.5 -44.5t31.5 -64t10 -76.5q0 -42 -26 -90t-68 -90t-95 -73.5t-109 -39.5zM234 766q0 9 11.5 25t28.5 32t37.5 27t38.5 11 q33 0 61 -17t48 -42t31.5 -53t11.5 -51q0 -24 -8 -44.5t-21.5 -36.5t-33.5 -25.5t-46 -9.5q-35 0 -76 20q-13 6 -27.5 23t-26.5 39.5t-20.5 48.5t-8.5 53z" />
<glyph unicode="&#x3c;" horiz-adv-x="989" d="M134 508q15 31 69.5 69.5t130 78.5t161.5 78.5t165 70.5t141 54t89 29l91 -175q-84 -45 -158 -80.5t-140.5 -66.5t-124.5 -61.5t-111 -64.5q14 -18 38.5 -39.5t53 -44t60 -45l59.5 -42.5t51 -36t36 -25q0 -9 -11.5 -23.5t-29.5 -32t-40 -35t-42 -31.5t-36.5 -23t-23.5 -9 q-37 19 -80.5 51t-87.5 70.5t-86 82t-77 87.5t-61 85.5t-36 77.5z" />
<glyph unicode="=" horiz-adv-x="1245" d="M100 303.5q-8 21.5 4 62.5q10 28 45 47.5t88.5 32.5t121 20t143 8.5t154.5 -1.5t155 -9.5t145 -16.5t124 -22q-1 -3 -11 -22t-22.5 -43t-23 -48t-12.5 -36q-99 -15 -196 -22t-192.5 -8t-190.5 2t-191 8q-32 1 -61.5 3t-50.5 12.5t-29 32zM284 635.5q-8 21.5 5 62.5 q13 37 70 60t141 35t186 14t206 -3.5t201.5 -18t171.5 -27.5q-1 -3 -11.5 -22t-22.5 -43t-23 -48t-13 -36q-99 -15 -195.5 -21.5t-191.5 -8t-190.5 1.5t-192.5 8q-32 1 -61.5 3t-50.5 12t-29 31.5z" />
<glyph unicode="&#x3e;" horiz-adv-x="1045" d="M73 229q84 45 158 80.5t140 67t124.5 61.5t110.5 64q-14 17 -38 39t-53 44.5t-60 45t-59 42.5t-51 36t-37 25v23t3.5 32.5t13.5 35t30.5 31.5t53 23t83.5 9q37 -19 83 -47t94 -61.5t94.5 -70t86 -74.5t67.5 -76.5t38 -73.5q-11 -24 -47 -53.5t-87 -62.5t-114.5 -68 t-129.5 -68t-131.5 -63.5t-121.5 -54.5t-98.5 -40t-61.5 -21z" />
<glyph unicode="?" horiz-adv-x="979" d="M92 156q0 23 15.5 54.5t43 59.5t65.5 48t83 20q32 0 55.5 -15t39.5 -40t24 -57t8 -66q0 -37 -9.5 -73.5t-29 -65t-49.5 -46.5t-70 -18q-25 0 -55.5 21.5t-57 52.5t-45 65.5t-18.5 59.5zM270 1100q0 48 17.5 97t47.5 94t69.5 84t85 68.5t93 45.5t93.5 16q90 0 166.5 -25.5 t131.5 -74t86 -120t31 -161.5q0 -47 -24 -92.5t-63.5 -91t-91.5 -91t-108 -91.5t-113 -93.5t-106 -96t-88 -99t-59 -103.5q-34 6 -57.5 22t-37.5 34.5t-21 34.5t-7 19q2 28 28.5 78t70.5 113.5t102.5 135t125.5 141t138.5 131t141.5 105.5q8 5 8 8q0 8 -19 16t-41.5 14.5 t-41 10.5t-17.5 4q-75 0 -120 -22t-74.5 -55.5t-51.5 -71.5t-51 -71.5t-72 -55.5t-116 -22q-17 0 -28 17t-17.5 42t-8.5 53.5t-2 52.5z" />
<glyph unicode="@" d="M125 431v6.5t1 5.5q2 8 2 14q2 3 3.5 5.5t3.5 5.5q2 2 3.5 5t3.5 5l4 -4q2 -1 3.5 -2t2.5 -1q1 -3 1 -7v-4t-2 -3q-4 -5 -5 -12q-1 -5 -1 -13t3 -17q3 -4 6 -7.5t5 -6.5q5 -5 14 -7q7 -4 17 -3q6 0 13 3l4 2t4 3t4.5 3t4.5 5q1 2 2.5 4t3.5 4q0 4 1 6.5t2 5.5q1 4 1 11 q-1 3 -1.5 7t-2.5 8q0 3 -5 10l-18 -1v-5v-5q0 -2 -3 -6q-1 -1 -1.5 -2t-2.5 -2t-7 -1h-6l-3 38l51 3q2 -2 5 -4t4 -4q2 -2 3.5 -5t1.5 -5q1 -7 4 -12q0 -3 0.5 -6.5t0.5 -5.5q0 -8 -0.5 -14t-3.5 -11q-1 -7 -4 -12.5t-8 -10.5q-7 -9 -19 -13q-11 -7 -22 -7h-19 q-4 2 -7.5 3.5t-7.5 3.5q-4 1 -6.5 3t-6.5 4l-6 6t-5 7q-2 2 -3.5 6t-3.5 8q-1 5 -1.5 9t-1.5 9zM125 506l8 77l20 -1l-7 -58l31 -4l5 47l21 -1l-5 -47l31 -3l5 58l21 -3l-9 -77zM135 597l23 91l19 -5l-10 -38l99 -23l-4 -19l-99 25l-10 -36zM177 740l42 84l17 -8l-16 -33 l91 -46l-8 -17l-92 46l-16 -35zM205 160l46 -80l23 14l-25 46l84 -10q2 0 6 1q2 0 2.5 0.5t2.5 0.5l11 8l-46 79l-23 -14l26 -45l-84 9q-2 0 -5.5 -0.5t-7.5 -3.5zM229 844l12 15l41 -30l35 49l-41 30l12 17l98 -73l-11 -16l-41 30l-36 -48l42 -31l-11 -15zM270 53l53 -59 l19 18l-33 38l18 11l23 -31l23 19l-28 31l14 11l32 -40l22 19l-51 61zM298 471q0 -105 40.5 -200.5t111 -167.5t167.5 -115t209 -43q36 0 72 5.5t70 15.5q80 24 150 70t122 111.5t82.5 147.5t30.5 176q0 103 -39.5 199t-109.5 169t-167 117t-211 44q-106 0 -202 -40 t-168 -111.5t-115 -168t-43 -209.5zM311 949l55 55l14 -16l-40 -40l20 -21l34 31l14 -14l-33 -31l21 -23l42 40l14 -16l-56 -53zM344 471q0 96 36 183.5t100.5 155t153 106.5t192.5 39q69 0 127 -17q74 -19 138.5 -61t113 -102.5t77 -137.5t28.5 -166q0 -100 -38 -188.5 t-104 -155t-154.5 -104t-187.5 -37.5q-102 0 -190 39.5t-153 106t-102 154.5t-37 185zM369 -50l20 -19l62 71l23 -21l18 20l-71 60l-21 -21l28 -22zM390 471q0 -84 29.5 -158.5t79.5 -134.5l568 570h-578q-47 -56 -73 -125.5t-26 -151.5zM412 -90l16 -9q0 -1 2 -1h3 q2 0 2.5 -0.5t2.5 0.5h5q3 0 4 1l12 9l40 -23l-2 -15v-5q0 -2 1 -3q0 -1 1 -1v-3q0 -2 2 -2l4 -3l16 -11l18 128l-23 14zM427 1048l65 41l9 -17l-47 -31l17 -26l40 25l10 -17l-40 -25l25 -43l-14 -11zM484 -74l17 15h2q2 0 2 1v1v1h1q1 1 2 1l-3 -2v-2v-3l-2 -23zM511 1100 l18 8l31 -68q0 -7 6 -10q1 -3 9 -7q2 -1 5.5 -1h5.5q6 -1 11 1q7 3 10 7q5 5 6 10q1 2 1 11q0 7 -1 11l-27 68l17 9l30 -70q1 -5 1.5 -9t0.5 -9q0 -10 -3 -20q-2 -4 -4.5 -7.5t-7.5 -6.5q-2 -5 -6 -7t-9 -4t-9.5 -3.5t-9.5 -1.5q-8 0 -19 5q-5 2 -8.5 4t-6.5 6q-7 7 -10 16z M534 797h579q-55 51 -129 81t-158 30q-85 0 -159 -29.5t-133 -81.5zM536 146q58 -50 131.5 -80.5t158.5 -30.5q84 0 159 30.5t134 80.5h-583zM539 -161l26 -12l16 42l39 -15l10 26l-38 15l6 18l49 -18l8 25l-73 27zM585 194h577q46 56 72 126.5t26 150.5q0 82 -27.5 153.5 t-82.5 142.5zM633 1146l20 5l23 -99l50 11l4 -21l-67 -15zM639 -137v-19l3 -15l6 -13l11 -12q3 -4 7.5 -5.5t6.5 -3.5q7 -4 15 -4q5 -1 8.5 -1h8.5t13 2q4 2 8.5 3t6.5 4q6 2 12 11l9 11q4 7 7 17v16q0 3 -1 6.5t-3 8.5q-1 5 -2.5 7.5t-3.5 6.5l-10 12q-3 3 -6.5 5t-7.5 4 t-7 2.5t-8 2.5q-5 1 -9 1h-8q-10 0 -14 -4q-4 -1 -7.5 -2t-7.5 -4l-12 -11q-4 -8 -10 -11q-2 -5 -3.5 -8.5t-1.5 -6.5zM670 -142q0 6 5 11l6 9l13 5h12l12 -5l9 -9q2 -3 3.5 -5t1.5 -6q2 -9 0 -15q0 -3 -1.5 -6.5t-3.5 -5.5q-3 -4 -4.5 -5.5l-4.5 -4.5q-3 -1 -5.5 -2 t-6.5 -1q-6 -3 -12 0q-4 0 -7.5 1t-5.5 2l-8 10q-2 2 -2.5 5.5t-0.5 6.5q-3 5 0 15zM721 1164l20 2l11 -100l52 5v-20l-71 -9zM769 -102l3 -122l28 1v81l52 -81h26v121h-31l4 -77q-1 0 -1 4q0 1 -1.5 1t-1.5 1q0 4 -1 4l-42 61q0 1 -2 3q-2 3 -9 3h-10h-14zM850 1051l12 120 l45 -5q6 0 15 -4q9 -5 11 -10q4 -3 7 -13q3 -7 2 -15q-2 -4 -2.5 -7.5t-2.5 -8.5q-6 -8 -9 -11q-4 -3 -15 -7q-3 -1 -13 -1l-26 3l-5 -44zM876 1110l25 -2h7q3 1 7 6q3 0 4 5q2 1 4 7q0 5 -1 8q-1 2 -2 3.5t-1 2.5q-2 2 -3.5 3t-3.5 2t-3.5 1t-2.5 1l-25 3zM888 -101l4 -27 l35 6l16 -91l27 5l-17 91l32 6l-5 26zM939 1040l32 116l44 -11q6 0 12 -6q5 -4 9 -11q4 -5 4 -13q1 -5 0.5 -8t-0.5 -7q-2 -5 -5 -10t-6 -8q-7 -5 -10 -5q-2 -2 -4.5 -2.5t-4.5 -1.5l22 -58l-15 2q-2 1 -3.5 2.5t-3.5 2.5q-3 1 -5 8l-20 47l-14 4l-13 -46zM976 1100l24 -6 q2 0 3.5 -0.5t3.5 0.5q2 0 3.5 0.5t3.5 0.5t2 1.5t1 2.5q4 4 4 6q1 3 1 7q-1 2 -1 3.5t-1 3.5q-1 1 -2.5 1.5t-1.5 2.5q-3 3 -6 3l-25 6zM996 -99v-5.5t2 -7.5q3 -8 11 -13q1 -1 3.5 -2.5t4.5 -3.5q3 0 6.5 -1t5.5 -1h13h10h2q2 0 4 -2q3 0 3 -2h3v-5q0 -2 -0.5 -3t-0.5 -2 v-1q-2 0 -3 -3t-2 -3q-2 -2 -6 -2q0 -1 -2 -1h-3q-2 0 -3.5 0.5t-3.5 0.5h-6h-8l-4 -2q-1 0 -1 -1.5t-1 -1.5l-5 -8q1 -4 3 -5.5t4 -4.5q3 -1 6.5 -2t6.5 -1q8 -3 13 -2q3 0 7 1t8 1q3 2 6.5 3.5t7.5 4.5q4 4 5.5 6t4.5 7q1 4 3.5 7t2.5 9q0 4 -0.5 7.5t-3.5 6.5q-1 8 -6 11 q-2 6 -9 8l-11 6h-15h-8h-9h-2v1q-3 3 -3 4l-2 1q2 1 2 4q0 1 1 1h2q0 1 5 1v3h1h5h3q4 0 5 1q4 0 8 1q0 2 1 3t1 2l5 10l-7 3q-8 4 -13 4q-2 0 -4.5 1t-4.5 1q-4 0 -6 -1t-4 -1l-13 -7q-2 -2 -4 -4.5t-3 -6.5q-7 -6 -8 -14zM1040 1038v13q1 11 7 22q1 4 3.5 7.5t5.5 6.5 q2 3 5 6t6 5q3 3 6.5 4t8.5 3q4 3 15 3h15q9 -1 17 -6q7 -3 15 -8q3 -4 5.5 -7.5t4.5 -5.5q2 -3 3.5 -6.5t3.5 -7.5q1 -4 2 -7.5t1 -7.5v-8t-2 -9q-1 -4 -1.5 -7.5t-3.5 -7.5l-3.5 -7l-3.5 -7q-4 -3 -7 -5.5t-5 -6.5q-4 -2 -7.5 -4t-7.5 -4q-6 0 -16 -2q-12 0 -17 1t-16 5 q-11 6 -18 16q-8 9 -14 21q-2 6 -2 11zM1059 1043q0 -2 1 -5t2 -5q1 -6 4 -10q2 -2 3.5 -4t3.5 -3q3 -4 9 -6q7 -4 12 -4h11q7 0 12 1q4 4 8 4q3 2 5.5 4t4.5 3q2 3 3 5.5t3 4.5q2 4 2.5 8t1.5 10q0 4 -0.5 7.5t-0.5 7.5q-2 4 -4.5 7.5t-4.5 5.5q-7 7 -15 10q-2 2 -5 2.5 t-6 2.5h-10q-7 0 -10 -3q-4 -2 -6.5 -2.5t-4.5 -1.5l-4 -4t-3 -4q-7 -5 -7 -8q-2 -3 -2.5 -6t-2.5 -6v-11zM1107 -135v-2q0 -3 1 -4q0 -1 1 -1q0 -6 3 -6q2 -5 7 -6h6q5 0 8 2q1 2 3 3t2 3v2q0 2 2 2l3 3v2q0 6 -5 6q0 6 -3 6q-2 3 -5 3q-2 0 -3.5 1t-3.5 1q-1 -2 -6 -2 l-7 -4q-1 -1 -1 -3v-2q-2 -2 -2 -4zM1119 -43v-16q0 -4 1.5 -7.5t1.5 -7.5l6 -15q3 -4 6.5 -6t5.5 -5l14 -11l12 -2q5 -2 17 -2q4 0 7 1t7 2q5 1 8.5 4t6.5 6q2 1 5.5 2.5t5.5 4.5q3 1 5 4t5 6l4 14q4 4 4 14l-12 2h-6l-8 -4q-2 0 -3 -3t-1 -5l-5 -9l-9 -6q-4 -2 -6 -3.5 t-5 -1.5q-7 -3 -14 0q-2 2 -5 2.5t-6 2.5q-6 4 -7 11q-5 2 -5 12q-4 3 0 14q0 2 0.5 4t1.5 7l4 4t5 3q7 4 9 4q3 1 11 1q2 0 10 5q2 3 5 5l2 6v9q-3 4 -12 4h-14l-14 -5l-11 -5q-2 -2 -5.5 -4.5t-6.5 -6.5q-2 -2 -4.5 -6t-4.5 -8zM1196 913l41 127l9 -8q1 -2 2 -3.5t3 -3.5 q0 -5 -2 -8l-27 -88l84 39q1 1 8 1q4 0 6 -3l10 -9l-120 -55zM1206 11q0 -4 2 -8l4 -14l11 -13l14 -10q4 -1 7 -3.5t8 -2.5q4 0 8 -1.5t8 -1.5q2 0 6 1.5t9 1.5q2 0 5.5 2.5t7.5 3.5q7 3 14 10l10 13q1 2 3 5.5t2 8.5q1 4 1 14v17l-6 12q-2 4 -4 7.5t-4 6.5l-14 14l-15 3 q-4 3 -15 3q-4 0 -8 -0.5t-8 -2.5l-13 -3q-4 -3 -8 -7l-7 -7l-4 -6t-5 -5q-3 -4 -4 -7.5t-3 -7.5q0 -4 -1 -7.5t-1 -8.5v-7zM1236 18q0 8 1 12q3 8 7 12l11 8q3 0 6.5 0.5t6.5 0.5q4 0 12 -2q2 -2 4.5 -3.5t5.5 -5.5q3 -1 4.5 -4t3.5 -6t2 -13v-5.5t-2 -5.5q-4 -9 -8 -10 q-7 -7 -10 -8q-3 -2 -6.5 -2h-5.5q-4 0 -7.5 1t-5.5 1l-11 8q-4 4 -7 11q-1 4 -1 11zM1247 866l92 78l50 -57l-15 -15l-38 46l-22 -20l28 -37l-16 -11l-28 36l-24 -22l36 -43l-16 -12zM1268 100l98 -66l16 22l-47 34l62 -13l11 20l-34 51l48 -30l16 24l-101 66l-12 -18 q-1 -2 -2.5 -4t-1.5 -6q0 -2 1.5 -4t2.5 -4l41 -59l-71 10h-10l-9 -6zM1300 800l104 62l23 -38q2 -3 3 -6t3 -8q2 -7 -2 -12q-2 -9 -6 -14l-4.5 -4.5t-6.5 -5.5q-3 -1 -5 -1.5t-5 -1.5q-3 0 -5 -1t-5 1q-4 0 -11 2q-3 1 -5 2t-4 3l-23 -60l-10 13q-4 2 -4 7q0 7 3 10l21 49 l-8 12l-43 -26zM1355 705q0 3 2 13q0 3 3 5l2 4q0 4 2 4q4 2 3 2l4 -2q3 -5 5 -6q0 -2 0.5 -3t0.5 -2q0 -4 -3 -7v-1v-7q0 -5 2 -10q0 -1 1 -2.5t2 -3.5q2 -1 3.5 -2.5t3.5 -2.5q1 -1 3 -1t4 -2h4.5t4.5 2q2 0 5 3q2 4 2 5q1 3 1 8v8v4v12q0 8 2 13q1 2 2.5 4.5t3.5 5.5 q3 2 5 4t7 4q8 3 14 2q6 0 12 -4q3 -2 6.5 -4t5.5 -6q3 -3 7 -11q2 -6 2 -10q0 -6 -1 -10q0 -4 -3 -11q-1 -2 -1.5 -4t-2.5 -4l-6 4q-3 1 -4 2.5t-3 3.5q-1 3 -1.5 5t0.5 5q1 1 1 8q0 3 -1 5q-2 2 -2 6q-3 0 -5 4q-2 1 -5 1q-3 1 -5 0t-2.5 -2t-1.5 -2t-2 -1.5t-2 -2.5v-7 v-10v-3v-2v-11q0 -2 -1 -4.5t-1 -4.5q-4 -14 -19 -21q-4 -2 -7.5 -3.5t-8.5 1.5q-6 0 -15 2q-3 3 -6.5 5t-5.5 6q-3 2 -5 5.5t-4 7.5q-2 10 -2 16zM1369 818l13 -19q3 -5 4 -6q1 0 7 -3h6q2 0 5 3q2 0 6 4q0 2 1 3t1 3q1 1 1 6q-1 1 -1 2.5t-2 3.5l-11 20zM1376 640l117 35 l5 -20l-117 -33zM1394 552q-1 13 1 25q5 12 10 20q7 9 18 16q5 3 11.5 6t11.5 3h19q6 0 15 -5q4 -1 7.5 -3.5t5.5 -4.5q3 -2 6.5 -4.5t5.5 -6.5q4 -8 8 -12q2 -8 5 -19v-15q-2 -10 -5 -15q-2 -5 -4 -9t-4 -7l-10 -10q-4 -4 -7.5 -5t-6.5 -3q-7 -4 -16 -4q-10 -1 -19 0 q-8 0 -15 4q-2 2 -6 3t-8 4q-3 2 -5.5 5.5t-4.5 5.5q-6 5 -8 16q-2 3 -3.5 6.5t-1.5 8.5zM1395 380l2 16l98 62l-93 6l1 19l121 -9l-1 -12q0 -5 -1 -8q-3 -3 -4 -5l-83 -53l84 -6l-2 -19zM1413 555q2 -8 4 -11q0 -6 5 -9q1 -3 3 -5.5t3 -4.5q3 -1 5.5 -2.5t5.5 -2.5 q2 -2 5 -2h5q5 -3 11 0q11 0 18 5q5 2 12 12q6 8 6 15q3 7 1 16q0 6 -2 11q-2 3 -3 5l-2 4l-4 4t-4 3q-5 4 -11 5q-3 4 -11 4q-4 2 -11 0q-7 0 -10 -4q-5 -1 -11 -5q-4 -1 -6 -7q-5 -5 -5 -9q-2 -2 -2.5 -5.5t-1.5 -5.5v-11z" />
<glyph unicode="A" horiz-adv-x="1299" d="M-203 104q35 53 89.5 127t125.5 162.5t155.5 188.5t179 205.5t196.5 213.5t207.5 212.5t212 202.5t209.5 183q28 0 63 -6t65 -15q29 -10 48 -20q17 -10 17 -16l-81 -290q-40 -152 -72 -308.5t-52 -310.5t-20 -294q0 -48 4 -99q4 -50 6 -96q2 -39 2 -74v-14q0 -40 -9 -70 q-9 -28 -29 -44q-16 -13 -42 -13h-11q-69 7 -115.5 26.5t-76 49.5t-45 67.5t-22.5 79.5t-8.5 87t-2.5 90q-52 13 -110.5 23t-118.5 18.5t-118.5 14.5t-110.5 9q-29 -40 -69.5 -94t-83.5 -113t-83.5 -118.5t-69.5 -108.5q-9 -1 -37.5 13.5t-63.5 37t-70 48t-59 45.5zM449 547 l348 -46q5 22 15.5 68t24.5 104.5t30 123t30.5 121t27.5 99t22 56.5q-24 -18 -58 -53t-75 -79.5t-87.5 -95.5t-93.5 -103.5t-94 -102.5t-90 -92z" />
<glyph unicode="B" horiz-adv-x="1458" d="M-131 -46q0 32 25 79q2 5 17.5 43.5t41 100.5t59 143t70 171.5t74 185t71.5 183t62.5 167t46.5 136.5q-27 46 -49 84.5t-45 79.5q158 78 334 118t354 40q75 0 142.5 -17t116.5 -54q49 -36 76 -96q24 -52 23 -124v-22q-3 -48 -27 -93.5t-60 -84.5t-79 -70.5t-83 -52.5 q81 -8 151 -28.5t120 -57t77 -90.5q24 -47 23 -109v-19q-5 -87 -45.5 -161t-106 -137t-150 -115t-176.5 -93t-186.5 -72t-179.5 -52.5t-155 -34.5t-114 -17q-62 -6 -123.5 -11.5t-115.5 -6.5h-14q-44 -1 -82 5q-42 6 -67 26q-26 20 -26 56zM236 66q86 11 181.5 32.5 t189.5 52.5t180 72.5t153 92.5t108 110.5t45 127.5v10q1 34 -11 58q-14 28 -38 44t-56 20q-14 2 -29 2q-19 0 -39 -3q-48 -9 -112.5 -26t-134.5 -39t-142 -46t-137 -47zM474 845q36 9 85.5 24t102.5 35t105 44.5t94 54t69 64.5q31 40 31 78q1 25 -23 32q-16 5 -38 5 q-13 0 -29 -2q-41 -5 -91 -18.5t-96.5 -29t-84.5 -28.5t-53 -18z" />
<glyph unicode="C" horiz-adv-x="1388" d="M-24 502q0 109 41.5 224t115 224t174.5 205.5t220 169.5t252.5 115.5t271.5 42.5q59 0 104.5 -19.5t77 -54t47 -81.5t15.5 -102q0 -28 -9.5 -52.5t-25.5 -45.5t-36 -39t-40 -32q-49 -34 -112 -59l-176 216q-61 -16 -125.5 -55.5t-125.5 -94.5t-115.5 -122.5t-95 -140.5 t-64 -147.5t-23.5 -144.5q0 -26 19 -61t49 -73t69.5 -75t81 -66.5t81 -47.5t71.5 -18q18 0 56.5 19t90 49.5t112.5 69.5t123 80.5t122 80.5t110.5 69.5t87.5 49.5t53 19q22 0 22 -21q0 -10 -5 -29q-11 -40 -43 -86t-77.5 -94.5t-102.5 -97.5t-119.5 -94t-127.5 -84 t-126 -67.5t-116.5 -45t-99.5 -16.5q-28 0 -73 15t-99 41.5t-114.5 62t-119.5 76.5t-112.5 85.5t-94 88.5t-65 85.5t-24.5 77.5z" />
<glyph unicode="D" horiz-adv-x="1235" d="M-220 83q30 12 37.5 14.5t10.5 2.5t10 1.5t36 11.5q10 10 26 55t35 111.5t39.5 149.5t41 169t39.5 170.5t34.5 154t26.5 119.5t15 66q-26 7 -42 20.5t-26 31.5t-14 39.5t-4 42.5q0 22 4.5 44t16.5 41.5t33 35t54 27.5q18 6 24 21t10 32.5t11.5 32t25.5 18.5q46 9 94 16.5 t96 7.5q19 0 38 -1t38 -6l4 -69q79 8 160 15q35 3 73.5 5.5t78.5 5t80 4t77 1.5q86 0 163.5 -15t137.5 -50q60 -36 94 -96q34 -58 33 -146v-5q-2 -129 -51 -249.5t-131 -231t-190 -207.5t-228.5 -178.5t-247.5 -146.5t-246.5 -110.5t-224 -69.5t-180.5 -24q-25 0 -41.5 9 t-28.5 27t-22 44t-20 59zM198 200q114 56 215 112t189 117t162.5 131.5t135.5 155t107.5 187t77.5 226.5q-46 24 -111 35t-137 11q-57 0 -114.5 -6t-111 -15t-98.5 -22t-76 -26q-11 -49 -29.5 -121t-41 -156.5t-47 -174.5t-47.5 -174.5t-42.5 -157t-31.5 -122.5z" />
<glyph unicode="E" horiz-adv-x="1249" d="M-124 142q18 71 41 155.5t48.5 176t53.5 188t56.5 190t57 182t55 165.5t50.5 140t45 105q9 18 49 35.5t101.5 33.5t137.5 29.5t157.5 25t162.5 20.5t150.5 15.5t123 10t78.5 3.5q58 0 93.5 -24t35.5 -82v-9q-181 -49 -357.5 -95t-360.5 -76q-23 -3 -35.5 -9.5t-20 -17 t-12 -25t-9.5 -36.5q-9 -40 -19.5 -70t-20.5 -58t-20 -57.5t-20 -69.5q29 2 74 9.5t94.5 15t96 13.5t78.5 6q43 0 70.5 -11t44 -30.5t22.5 -46t6 -56.5v-14q-66 -20 -120 -33t-106 -22t-105.5 -16.5t-116.5 -20.5q-42 -8 -64 -11.5t-34 -10.5t-19 -22t-20 -47 q-24 -57 -46.5 -118.5t-44 -121t-39.5 -114t-31 -98.5q72 7 149 24t158 38t162.5 43.5t162.5 40.5t159 30t150 12q36 0 50 -16.5t14 -39.5q0 -17 -4 -33.5t-9 -34.5q-84 -28 -171.5 -62t-178.5 -70.5t-185 -72t-190 -65.5q-28 -9 -87 -21.5t-131 -25t-149.5 -23 t-141.5 -16.5z" />
<glyph unicode="F" horiz-adv-x="1043" d="M-163 30q16 70 46.5 161.5t66.5 197t74.5 222t73 236.5t60.5 239.5t38 232.5q4 39 22 63.5t63 35.5q104 26 204 49t198 47t197 50t202 59q21 6 39 6h9q22 -2 41.5 -10t36 -22t30.5 -30q26 -29 44 -64t42 -71q-202 -58 -394.5 -116t-386.5 -116q-4 -16 -18 -53 t-30.5 -84.5t-33 -101.5t-26.5 -104q52 23 113.5 43t123.5 31t121 12h7q56 0 100 -15q48 -16 80 -50t40 -94q-83 -24 -183 -53.5t-197 -64t-183.5 -73.5t-144.5 -81q-16 -55 -37.5 -112.5t-45.5 -115.5t-47.5 -114t-45.5 -111q-14 -36 -40 -68t-56 -74q-17 13 -45.5 27 t-58.5 29t-56.5 29t-42.5 28z" />
<glyph unicode="G" horiz-adv-x="1479" d="M-57 478q0 70 13 159.5t41 178t69.5 166t97.5 123.5q59 48 141.5 98.5t179.5 98.5t203 89.5t214 72.5t213 49t198 18q25 0 48 -9.5t46 -31t45.5 -57t45.5 -88.5q-91 -36 -181.5 -64.5t-181.5 -54t-179.5 -51.5t-174.5 -59t-169 -75t-160 -98q-18 -13 -39.5 -41t-42 -65 t-40 -81.5t-34 -91.5t-23.5 -92.5t-9 -85.5q0 -32 17 -66.5t42 -69t56 -65.5t60 -55t53 -38.5t36 -14.5q24 2 67 16t98.5 35.5t117.5 49t124 59t119 63.5t100 63.5t69 58.5t26 48q0 12 -3 30t-9 35t-15.5 29.5t-20.5 12.5q-63 0 -112 -9t-98 -23t-107.5 -32.5t-141.5 -39.5 q-14 -3 -26 -3q-27 0 -49 19.5t-39 51.5t-29 72t-18 81q106 33 206.5 65t198 57.5t194 41.5t195.5 16q41 0 64 -9.5t25 -35.5q2 -22 4 -49.5t4.5 -56t4 -56.5t2.5 -50q-29 -4 -52.5 -6.5t-51.5 -7.5q14 -22 23.5 -37.5t15 -29t7.5 -27t2 -29.5q0 -50 -35 -103.5t-95 -106.5 t-138.5 -104t-164.5 -96.5t-174.5 -84t-168 -66t-145 -43.5t-105.5 -16q-34 0 -71.5 20t-77 51t-78 70.5t-72 78t-61.5 73t-45 55.5q-27 32 -38 75t-11 95z" />
<glyph unicode="H" horiz-adv-x="1474" d="M-128 132q-1 4 -1 10q0 22 12 68q15 58 43 140.5t67 186t85 216.5t95.5 231.5t99.5 230t96 212t85 179.5q17 36 34.5 53t39.5 17q13 0 43.5 -4t66 -11.5t68.5 -19.5t54 -26q-14 -40 -36.5 -96.5t-48 -122.5t-53.5 -137.5t-53.5 -143t-47.5 -137.5t-37 -119 q97 11 177.5 24t157.5 28t158.5 32.5t180.5 37.5q28 60 65.5 143.5t76 174t76 177t64.5 152.5q25 61 49 91t55 30q9 0 29.5 -4.5t45.5 -13t52 -20t48.5 -26.5t35.5 -33t14 -37q-37 -124 -84 -255t-101 -266.5t-112 -272.5t-115 -273t-110.5 -269t-98.5 -257q-51 0 -90.5 8 t-74.5 23t-66.5 36.5t-67.5 48.5l240 642q-70 -7 -153 -18.5t-170.5 -26.5t-174 -31t-163.5 -31l-290 -667q-8 -1 -16 -1q-13 1 -29 3q-26 4 -55 14t-57.5 23t-52 28.5t-39 31t-17.5 27.5z" />
<glyph unicode="I" horiz-adv-x="525" d="M-74 70q0 33 11.5 94t31 141.5t46.5 176t58.5 196t66.5 204t71.5 199.5t71.5 180.5t68 149t61.5 104.5t50.5 47q30 -22 64 -40.5t68.5 -36t65 -34t54.5 -35.5q2 -2 2 -7q0 -13 -11 -47q-15 -48 -43.5 -125t-69 -176t-85.5 -207t-92.5 -217t-91 -205.5t-80 -175.5 t-59.5 -125q-11 -24 -29.5 -48.5t-41.5 -44.5t-50 -33t-57 -13q-48 0 -64.5 19.5t-16.5 58.5z" />
<glyph unicode="J" horiz-adv-x="562" d="M-828 -496q1 10 22.5 23t49.5 26t56 24t44 19q70 34 120 70t91.5 77t79 86.5t82.5 98.5q54 65 104 147.5t94.5 176t84.5 194t75.5 200t66 195t56.5 179.5t48.5 152.5t39.5 113.5q-25 -14 -50 -21.5t-48.5 -9.5t-45 -1.5t-41.5 1.5q-28 1 -48.5 8t-36 17t-25 23t-16.5 26 q-14 31 -15 68q158 69 326 124.5t345 80.5q38 5 73 10q21 2 39 2q12 0 23 -1q26 -3 40 -17q14 -12 14 -39q0 -61 -15 -97q-13 -30 -37 -45.5t-57 -23.5t-75 -24q-14 -47 -35 -125.5t-50.5 -178t-66.5 -216.5t-84 -241.5t-104 -252t-126 -248.5t-150 -232.5t-176 -202.5 t-204 -158t-234 -101q-33 -9 -75.5 -9t-79 10.5t-60.5 33.5q-20 18 -20 46q0 6 1 12z" />
<glyph unicode="K" horiz-adv-x="1579" d="M-90 57q0 43 15 116t41 166t60.5 203t75 228t83.5 239t85.5 237t81.5 223t72 195q28 76 67 107.5t84 31.5q39 0 72 -22.5t57 -51.5t37.5 -58t13.5 -41q0 -26 -11 -68t-28.5 -95t-39 -111.5t-43 -114.5t-40.5 -107.5t-31 -90.5q37 25 88.5 65.5t112.5 90t128 105 t135.5 109.5t134.5 103.5t125.5 86.5t109 59t84.5 22q22 0 47.5 -7.5t48.5 -22t39 -34t16 -43.5q0 -11 -8.5 -23.5t-22.5 -25t-30 -25.5t-31 -25q-150 -120 -298 -237t-291 -247q31 -77 73 -156.5t93 -158t110.5 -152t126.5 -137t140.5 -115t151.5 -84.5q25 -10 39 -20 t24 -22.5t18 -29.5t17 -40q-17 -2 -35 -3t-36 -1q-132 0 -257.5 59.5t-241.5 162.5t-223 242.5t-202 299.5l-293 -219q-25 -70 -47 -148t-43.5 -153.5t-45.5 -145t-51.5 -121.5t-62 -83t-77.5 -31q-29 0 -66 9t-71 25t-57.5 38t-23.5 47z" />
<glyph unicode="L" horiz-adv-x="1205" d="M-88 253q12 59 41 141.5t68 177.5t85.5 197t93.5 202t91 192t78.5 167.5t57.5 127.5t27 73q10 57 36 79t60 22h2q35 0 74 -19.5t74.5 -45.5t64.5 -53.5t43 -46.5q-7 -67 -29.5 -146t-55.5 -164.5t-73 -174.5t-83 -175.5t-86.5 -167.5t-83 -150.5t-72.5 -125.5t-53 -91 q-2 -3 43.5 2t121.5 15.5t174.5 25.5t203 32t205 34.5t182.5 34.5q25 5 46.5 3t38.5 -12.5t26.5 -29.5t9.5 -47q0 -20 -7.5 -28.5t-29.5 -14.5q-82 -24 -170.5 -53t-179 -58.5t-181 -58t-175 -51.5t-161.5 -38.5t-140 -18.5q-5 0 -11.5 1.5t-20.5 9t-37 22t-62 42t-96.5 69 t-139.5 100.5z" />
<glyph unicode="M" horiz-adv-x="1646" d="M-63 237q0 86 17 180.5t45.5 193.5t64 201t73 204.5t72.5 203.5t61 197q7 26 13 46.5t14.5 34t24 21.5t42.5 10q36 -25 83.5 -76t99 -114t103 -129.5t96.5 -121.5t79 -90t51 -35q11 6 42 32.5t76 66.5t101.5 89t118 101t125.5 102t124.5 92t114 71.5t95.5 41.5 q25 -18 52 -39.5t51.5 -45.5t43 -52t26.5 -60q-31 -63 -69.5 -151.5t-81 -192t-88 -216.5t-89.5 -225.5t-85.5 -218.5t-76.5 -195.5t-61.5 -157t-42.5 -102.5q-36 0 -77 8.5t-77 25.5t-59.5 43t-23.5 62q0 37 15.5 100t40 141t56 166t64.5 174q78 202 176 434l-458 -336 q-20 0 -52.5 22t-71.5 57t-80.5 78.5t-81 87t-73 81.5t-55.5 64q-22 -73 -49 -158t-56.5 -174.5t-58.5 -180.5t-56.5 -176t-51 -160t-40.5 -132q-8 -30 -14 -44.5t-25 -14.5q-33 0 -69.5 17.5t-67.5 44t-50.5 54.5t-19.5 50z" />
<glyph unicode="N" horiz-adv-x="1376" d="M-106 121q52 175 118.5 354t142 356.5t158 350.5t165.5 335q20 33 46 32q25 0 45 -30q71 -113 123 -234.5t91.5 -247.5t69 -254.5t53.5 -255.5q33 99 75.5 203.5t90 208t100 203.5t104.5 192q28 49 63 98.5t79.5 89t99.5 64.5t121 25q4 0 13.5 -4.5t18.5 -11t18 -11.5 t14 -5q-45 -76 -94.5 -171t-101 -202.5t-102.5 -223.5t-99 -232.5t-90 -229.5t-75.5 -215.5t-56.5 -190t-31 -153.5q-2 -11 -11 -23.5t-23.5 -22.5t-33.5 -17t-42 -7q-27 0 -57 12.5t-60 45.5q-30 51 -59.5 138t-57.5 191.5t-54.5 218.5t-50.5 220t-46.5 195t-41.5 145 q-13 -43 -34.5 -106.5t-48.5 -140.5t-58 -161.5t-62 -170t-61.5 -166.5t-57 -150t-47.5 -121.5t-33 -81.5q-36 9 -63.5 27t-53.5 40.5t-50.5 47t-52.5 47.5z" />
<glyph unicode="O" horiz-adv-x="1481" d="M-55 571q0 127 29 233.5t81.5 195.5t124.5 160t156.5 125.5t178.5 93.5t191.5 64.5t194.5 37.5t188 12q52 0 104.5 -27t100 -71.5t88.5 -101.5t71.5 -116.5t48 -115.5t17.5 -100q0 -126 -41.5 -246.5t-114.5 -228t-171.5 -198t-214.5 -156t-242.5 -102.5t-255.5 -37 q-30 0 -68 22.5t-81 60.5t-88 86t-88 100t-81 103t-67 93.5t-45 72.5t-16 40zM296 510q0 -8 15 -33.5t38 -60t50.5 -71.5t52 -68t42.5 -51.5t22 -20.5q87 0 181 38.5t183.5 103t170.5 147.5t141.5 171.5t96.5 176.5t36 162q0 30 -26 64t-63 63t-76 48.5t-63 19.5 q-84 -1 -176.5 -24t-181 -66.5t-169.5 -104.5t-141.5 -137t-96.5 -166.5t-36 -190.5z" />
<glyph unicode="P" horiz-adv-x="1251" d="M-134 -36q0 17 4.5 41t16.5 60.5t31.5 92.5t49.5 139t71.5 197t96.5 269.5t126 355.5t159 454q8 25 22.5 40t33 24t41 12t46.5 3q19 0 40.5 -0.5t40 -6.5t33 -18.5t22.5 -37.5q78 18 168 26q43 4 87 4q45 -1 91 -5q88 -8 169 -35t143 -77t99 -126.5t37 -183.5 q0 -100 -42 -182t-112 -148t-161.5 -117.5t-190 -90.5t-197 -66t-183.5 -45t-149 -27.5t-93 -12.5q-27 -70 -57 -147.5t-61 -156.5t-59.5 -155.5t-52.5 -141.5q-5 -15 -16.5 -21.5t-26.5 -8.5q-10 -1 -21 -1h-11q-17 1 -33 1q-39 0 -69.5 8t-51 21.5t-31 30t-10.5 32.5z M467 769q41 3 109.5 17t147.5 39.5t160.5 62.5t147 85.5t107 109t41.5 132.5q0 48 -33 74q-33 25 -83 35q-40 8 -88 8h-25q-62 -2 -120 -9.5t-104.5 -16t-68.5 -10.5z" />
<glyph unicode="Q" horiz-adv-x="1400" d="M-79 563q0 128 42.5 247t116 221.5t171 186.5t207 143.5t225 92.5t224.5 33t206 -35.5t169.5 -111t115 -195t42.5 -287.5q0 -69 -21.5 -143.5t-58.5 -149.5t-86.5 -145.5t-106 -129.5t-116.5 -103.5t-118 -66.5q25 -77 46 -141t41 -123t39 -115t40.5 -116t45.5 -127.5 t53 -148.5q-16 -2 -32 -2q-41 0 -80 11q-56 15 -102.5 48t-81 79t-49.5 101q-15 56 -27 99t-21 78t-17 65.5t-15.5 61.5t-15 67.5t-18.5 82.5q-80 -36 -152 -52t-135 -16q-74 0 -141.5 26.5t-126.5 71t-107.5 103t-83 124t-53.5 134.5t-19 132zM298 569q0 -48 6.5 -105.5 t23 -107.5t44.5 -83t71 -33q54 0 98 4.5t74 10.5q36 6 65 15v-1l-4 25q-4 24 -10 61.5t-10.5 81t-4.5 80.5q0 38 7 63t24 25q29 0 72 -62t85 -190q49 28 101.5 61t102.5 72t94 84t77 96.5t52.5 108t19.5 120.5q0 84 -18.5 143t-51 96t-77.5 54t-98 17q-74 0 -157 -28.5 t-165.5 -77t-159 -112.5t-134 -135t-92.5 -143.5t-35 -139.5z" />
<glyph unicode="R" horiz-adv-x="1208" d="M-86 142q0 27 7.5 72.5t20.5 104t31.5 128t39.5 146t44.5 155.5t46.5 158q84 276 191 602q100 34 200 61q42 11 88 22.5t91.5 20t89 13.5t81.5 5q110 0 195 -23t143.5 -70t89 -118t30.5 -168q0 -98 -33 -175t-85 -136t-118 -101.5t-131 -72t-123.5 -47t-97.5 -24.5 q44 -76 88 -172t93 -195.5t105 -193t122 -164.5q12 -12 39.5 -31.5t56 -41t50 -42t21.5 -34.5q0 -15 -15 -27t-36.5 -19.5t-44 -11.5t-35.5 -4q-111 0 -191.5 29.5t-139 79t-98.5 115.5t-69 139.5t-50.5 150t-44 148.5t-49.5 133t-64 104q-33 0 -57.5 -1t-57.5 -3 q-22 -79 -40.5 -161t-39 -166.5t-45 -170t-55.5 -169.5q-42 0 -85 6.5t-78.5 24.5t-58 48t-22.5 76zM406 851q24 -2 50 -2q48 -1 99 7q78 12 153 37t144 60t121 75t82.5 82t30.5 81q0 38 -25.5 63.5t-67 41.5t-94.5 23t-108 7q-40 0 -79 -3t-73.5 -9t-63.5 -14.5t-47 -17.5 q-13 -50 -33.5 -114t-40.5 -126t-34 -113.5t-14 -77.5z" />
<glyph unicode="S" horiz-adv-x="1335" d="M-81 204q0 12 4.5 27t18 27.5t38 21.5t63.5 9q37 0 72 -18.5t75.5 -40.5t91.5 -40.5t121 -18.5q42 0 97 11.5t112.5 33t113 53t101.5 72.5t77.5 91t39.5 109v8q0 30 -27 60t-71 61.5t-100.5 64.5t-116 68.5t-115.5 73.5t-100 79.5t-71.5 87t-27.5 95.5q0 58 33.5 108 t87.5 92t122 74t137 54.5t132 33.5t108 11q56 0 103 -11t81 -35.5t53 -63t19 -92.5v-20t-2 -21q-79 -8 -163 -10t-159.5 -8t-136.5 -22t-93 -53q66 -37 140 -75.5t146 -79.5t138 -86t116.5 -95t80 -106.5t29.5 -120.5v-19.5t-2 -20.5q-13 -104 -53 -190.5t-99.5 -155 t-134.5 -119.5t-158 -84.5t-170.5 -50t-172.5 -16.5q-131 0 -237.5 27t-182.5 65.5t-117 81t-41 73.5z" />
<glyph unicode="T" horiz-adv-x="687" d="M-183 1433q0 18 15 31t49 16q169 16 337 33.5t336 32.5t336.5 24.5t338.5 11.5l26 -133l-530 -60q-48 -163 -106 -334t-117.5 -342t-116 -339.5t-100.5 -328.5q-17 -58 -49.5 -84.5t-68.5 -26.5q-27 0 -53.5 13t-47 35.5t-33.5 54t-13 67.5v8q3 84 24.5 185t53 210.5 t69.5 224.5t75 226t68.5 214.5t50.5 191.5q-61 -8 -122 -15q-52 -6 -111.5 -12t-108.5 -8q-56 0 -95 8.5t-62.5 22.5t-34 32.5t-10.5 40.5z" />
<glyph unicode="U" horiz-adv-x="1282" d="M31 604q0 82 17.5 165.5t47.5 166.5t69.5 164t83 157.5t88.5 148.5t86 135q37 58 68 86t66 28q16 0 42.5 -11t55 -26.5t55 -35t44.5 -37.5q-12 -51 -43 -119t-70.5 -147.5t-82.5 -167t-79 -177.5t-59 -179.5t-23 -173.5q0 -42 13 -90t37.5 -93.5t60 -83.5t79.5 -63 q82 17 154.5 77t137 146.5t120.5 191.5t104.5 212t89.5 208t75 179t62 126.5t49 49.5q11 1 27 -5t29 -17q-20 -140 -56.5 -287t-89.5 -290.5t-124.5 -277t-164 -247t-205.5 -201.5t-250 -140q-131 61 -227.5 133.5t-160.5 152.5t-95 166.5t-31 175.5z" />
<glyph unicode="V" horiz-adv-x="835" d="M2 106v69q0 153 2.5 299.5t5 291.5t5 291t2.5 299q0 47 17 75.5t49 28.5q26 0 55.5 -25t60 -61t59.5 -75t52 -68q6 -8 8.5 -19.5t1.5 -20.5q-12 -80 -20 -155t-12 -150.5t-4 -153.5v-31q0 -63 1 -130q41 58 94 122t110.5 125.5t115 117t108.5 97.5q68 56 122 101t102 82 t93.5 70.5t96.5 68t110.5 71.5t136.5 83q2 -2 18 -8t35.5 -13t35.5 -13.5t18 -8.5q-73 -62 -158 -143.5t-186 -187t-218.5 -238t-255.5 -297.5q-24 -29 -61.5 -78.5t-79.5 -109.5t-85 -125.5t-77 -125t-56 -107t-22 -72.5q0 -20 -7 -31.5t-16 -18t-20.5 -8t-21.5 -1.5 q-23 0 -51.5 12.5t-58 30t-57 37.5t-47.5 34q-1 35 -1 69z" />
<glyph unicode="W" horiz-adv-x="1448" d="M-7 608q0 141 1.5 278t1.5 265q0 15 2 31t8 29t17.5 21t29.5 8q31 0 61 -26.5t57.5 -62.5t49 -73t34.5 -57q10 -17 10 -35v-287.5t-3 -229.5q27 58 56 123t61.5 127.5t67.5 118t74 95.5l121 -85q10 -33 22.5 -78.5t27.5 -93.5t31.5 -94.5t36.5 -81.5q88 151 213 289 t271.5 258t306 221t318.5 177q13 0 37 -6t47.5 -14t42 -14.5t20.5 -8.5q-48 -42 -95 -83t-97 -87t-104 -100t-116.5 -120.5t-134.5 -149.5t-158 -187q-24 -29 -62.5 -80.5t-83 -115.5t-90 -132.5t-82 -131.5t-60 -113t-23.5 -75q0 -17 -6.5 -26.5t-16.5 -14.5t-22 -6.5 t-22 -1.5q-25 0 -48.5 2t-43 3.5t-31.5 3.5l-11 2l-125 106q-18 50 -37.5 117.5t-36 136.5t-30.5 133t-20 108q-17 -32 -39 -77.5t-44 -98t-43 -107.5t-37 -105t-26 -90.5t-10 -64.5q0 -28 -6 -44t-17 -25t-26 -11.5t-33 -2.5q-11 0 -21 2t-15 7l-139 135q-7 123 -9 248 t-2 252z" />
<glyph unicode="X" horiz-adv-x="1166" d="M-230 -181q28 92 87 192.5t142.5 209.5t186.5 227.5t216 248.5q-33 43 -57 77t-47 65t-44.5 65t-47 78.5t-56.5 103t-73 139.5q-24 45 -24 75q1 4 1 8q4 32 25 48t55 16h3q31 0 65 -10t62.5 -30.5t38.5 -47.5q16 -42 37.5 -90t50.5 -103.5t65.5 -118.5t83.5 -134 q161 156 336.5 299.5t350.5 266.5l165 -204q-104 -89 -206 -182t-190.5 -179t-160 -159.5t-118.5 -122.5q55 -92 104.5 -166.5t95.5 -135.5t88.5 -113t82 -99.5t78 -93.5t77.5 -96q23 -30 27 -47t-2 -30t-18 -24.5t-19 -29.5q-55 39 -117 94t-125 118t-124.5 129.5 t-116 129.5t-99 118.5t-74.5 95.5q-19 -16 -54.5 -53.5t-81 -87.5t-97.5 -109.5t-104 -122.5t-100.5 -124.5t-87 -114.5t-63.5 -95t-30 -66q-14 14 -44.5 33t-61 41.5t-54.5 50t-27 60.5z" />
<glyph unicode="Y" horiz-adv-x="912" d="M-326 -569q71 119 151 265t162 305t162.5 322t155.5 316q-13 -1 -25.5 -1.5t-24.5 -0.5q-78 0 -130 20.5t-83.5 56.5t-44.5 84.5t-13 104.5q0 66 14 137.5t35 140.5t44 131t41 108q10 29 18.5 51.5t18.5 38t21.5 23t30.5 7.5q23 0 64 -15q72 -28 116 -77.5t44 -124.5 q0 -33 -9 -69.5t-30 -78.5q-7 -15 -24.5 -52t-36 -82.5t-32 -93t-13.5 -85.5q0 -35 14.5 -56.5t50.5 -21.5q1 0 7 -0.5t12 -1.5t11 -1.5t7 -0.5q83 115 151.5 230.5t136 231t139 229.5t158.5 227q40 -31 67 -54.5t45.5 -48t29 -55.5t17.5 -75q2 -8 2 -18q0 -27 -12 -67 q-16 -56 -45.5 -126.5t-69 -150.5t-80 -158t-78.5 -149t-66 -123q-77 -147 -156.5 -298.5t-164 -291.5t-174.5 -262t-188 -210.5t-204 -136.5q-94 -44 -197 -44q-12 0 -25 1z" />
<glyph unicode="Z" horiz-adv-x="1643" d="M-262 -25q0 14 6 29.5t20 30.5q154 154 321.5 293t339.5 273.5t345 267.5t337 274q-84 -9 -162 -31t-152 -43.5t-145 -37.5q-63 -14 -126 -14h-16q-31 1 -70 31.5t-76 75t-68.5 94.5t-44.5 89q127 8 248 17q51 4 106 8t108.5 9t103 9t89.5 9q30 3 76 10t101.5 15.5 t116 18.5t119.5 19l294 49q3 -23 8 -51t8.5 -59.5t5 -63.5t-3 -61.5t-16.5 -53.5t-33 -39q-76 -52 -150 -103t-154 -93q-87 -48 -185.5 -114t-193 -135.5t-177 -137t-138.5 -119.5q97 5 178 12t158 7q74 0 154 -26t160.5 -69t159 -99t150 -115.5t132.5 -118.5t107 -108 q-6 -25 -18.5 -44t-40.5 -19q-13 0 -26 4q-70 20 -146.5 51t-156.5 64t-162.5 66t-163 59t-158.5 42.5t-148 16.5q-63 0 -134 -13t-144.5 -35t-148 -51.5t-143.5 -64.5t-131.5 -73t-112.5 -75q-17 -13 -30 -19t-26 -6q-6 0 -30.5 12.5t-51 33.5t-48 47.5t-21.5 54.5z" />
<glyph unicode="[" horiz-adv-x="1229" d="M163 -126q60 128 112 238t97 207.5t85.5 186t79 175t78 173.5t82.5 182.5t91 201t103 229.5q131 8 254 4.5t247 -15.5l-85 -199q-33 1 -61 2.5t-54.5 2.5t-52.5 1.5t-54 1.5q-20 -41 -53 -111t-72 -158.5t-84 -189.5t-89.5 -205t-87.5 -205t-78.5 -189t-63.5 -157 t-42 -109q37 -1 79 -0.5t85 1t85.5 0t81.5 -3.5l-90 -235q-120 3 -218 4.5t-191 4.5z" />
<glyph unicode="\" horiz-adv-x="1197" d="M44 1631q0 20 4 30q2 6 21 10.5t42.5 8t47 5.5t34.5 2q10 0 39 -40.5t71 -111.5t94.5 -165.5t109.5 -202.5t116.5 -224t115 -228.5t104.5 -217t86 -189.5t59.5 -145t24.5 -84q2 -19 -2 -33t-7 -23q-2 -5 -21 -11.5t-42 -11t-45 -6t-28 2.5q-14 9 -46 56.5t-77 123.5 t-98.5 174.5t-111 209t-116.5 227t-113.5 228.5t-102.5 215t-83.5 185t-55.5 139t-20 76z" />
<glyph unicode="]" horiz-adv-x="991" d="M-165 -274l96 222q33 -2 61 -2.5t54.5 -1.5t52.5 -1.5t54 -1.5q20 41 52.5 109.5t71 155.5t82 186.5t87 200.5t85 200.5t77 185.5t62.5 154t42 108q-37 1 -79 0.5t-85 -1t-85.5 0t-81.5 3.5l85 195q40 -1 92.5 -2.5t110.5 -3.5t118.5 -5t115.5 -5t102 -3.5t77 -2.5 l-33 -106q-81 -171 -144.5 -310.5t-118.5 -262t-104 -236t-101.5 -234t-111.5 -255t-133 -299.5q-131 -8 -254 -4.5t-247 16.5z" />
<glyph unicode="^" horiz-adv-x="1087" d="M157 335q-1 16 16 48.5t47 75t68.5 91.5t81 99.5t85.5 99.5t80.5 89.5t67.5 70.5t45 43l151 6q15 -60 34.5 -127.5t41.5 -135.5t47 -132.5t53 -119.5q2 -3 2 -8q0 -10 -13 -23t-33 -25.5t-44.5 -24.5t-47 -21t-40.5 -14.5t-26 -5.5q-36 0 -61.5 15.5t-44 41.5t-30.5 60 t-21 69.5t-15.5 70.5t-12.5 64q-23 -25 -51.5 -58.5t-62 -70t-69.5 -71.5t-73.5 -63t-76 -45.5t-74.5 -17.5q-24 0 -24 19z" />
<glyph unicode="_" horiz-adv-x="889" d="M-80 -145q4 14 11 28.5t11.5 28t-2.5 25.5q58 8 125.5 12t140.5 6t148.5 2.5t149.5 2.5t144 5.5t131 11.5l-31 -179q-53 -5 -122.5 -8.5t-146 -4.5t-155.5 1t-153 7t-138.5 14.5t-110.5 23.5q-6 10 -2 24z" />
<glyph unicode="`" horiz-adv-x="546" d="M80 1339.5q5 29.5 30 50.5q27 22 51 17t48 -26t49 -55t51.5 -70.5t55 -72t61.5 -59.5q7 -6 18 -16.5t18 -24.5t8 -29t-9 -28q-82 30 -156 71t-147 81q-27 14 -47 41.5t-28 59t-3 61z" />
<glyph unicode="a" horiz-adv-x="1326" d="M-42 441q10 72 43 134.5t82 115.5q75 80 151 126.5t155 54.5q14 1 29 2q65 0 134 -30q84 -36 174 -120q11 12 28 21.5t36 11t39.5 -7t38.5 -29.5q33 -39 50.5 -63t19 -47t-13.5 -51.5t-45 -75.5q-56 -84 -92.5 -160t-54.5 -160q-8 -38 21 -35t81.5 34t120 82.5t137 110.5 t133.5 118t109 107q31 -32 44 -64q14 -32 15 -60v-6q0 -26 -7 -46q-8 -24 -18 -38q-82 -123 -192 -219.5t-240 -163.5q-54 -29 -111 -44t-111.5 -15t-104 14.5t-90.5 44.5q-25 18 -34.5 37.5t-9.5 40t6 41t14 40.5q-73 -48 -151 -66q-73 -17 -136 -18h-10q-67 2 -113.5 18 t-56.5 35q-48 93 -64 175q-10 51 -10 98q0 29 4 57zM242 327l-2 -18q0 -17 6 -30q10 -19 39 -21q9 -1 17 -1q54 -1 103 27q57 32 105 84.5t87.5 117t67.5 123.5q1 3 1 6q0 9 -10 21q-14 16 -36 29t-52 19q-15 3 -31 4q-14 0 -26 -3q-18 -4 -44.5 -24t-55 -50t-56.5 -67 t-51.5 -75.5t-40.5 -75.5t-21 -66z" />
<glyph unicode="b" horiz-adv-x="963" d="M-97 49q0 62 8.5 133t24 146t36.5 152t46 153q58 173 143 341.5t179.5 325.5t190 300t174.5 265q10 0 27 -16t35 -38.5t36 -46.5t31 -40q7 -9 10.5 -28t3.5 -25q-61 -125 -130 -246.5t-137.5 -242t-134 -239.5t-121.5 -236q13 16 32 25.5t41.5 15.5t45.5 7.5t43 1.5 q51 0 100.5 -21.5t88.5 -54t62.5 -70t24.5 -69.5q21 -2 41 -2q56 0 108 16q72 22 138 58q12 7 21 12t18 4t16 -10.5t15 -28.5q7 -19 8 -44v-8q0 -21 -4 -41q-6 -24 -16.5 -45t-25.5 -33q-84 -66 -179 -95.5t-201 -37.5q0 -8 -15.5 -32.5t-41 -56.5t-57.5 -68t-65 -67 q-61 -57 -130 -104.5t-140 -90.5q-16 4 -48.5 15t-71.5 25t-80 32t-74 36.5t-54.5 37.5t-21.5 35zM170 179q0 -11 5 -21t18 -10q42 0 88 19t89 47.5t79 61t61 59.5q-25 7 -56 24t-66 39t-71.5 48.5t-72.5 53.5q-27 -42 -42 -82t-22 -80t-8.5 -79.5t-1.5 -79.5z" />
<glyph unicode="c" horiz-adv-x="950" d="M-52 298q0 88 17.5 164.5t51 145.5t83.5 131.5t114 122.5q31 29 72 61.5t86.5 61t92.5 47t90 18.5q50 0 90.5 -19t68.5 -51.5t43 -74.5t15 -88q0 -45 -12 -79.5t-33 -63.5t-48.5 -55.5t-56.5 -57.5q-14 2 -21 12l-14 20l-104 146q-42 -22 -80 -59t-68 -81.5t-48 -93.5 t-18 -94q0 -24 2.5 -49.5t9 -50t16.5 -46.5t26 -39q55 16 113.5 38.5t131 60t166 97t218.5 151.5q14 5 29.5 6.5t29.5 -0.5t24.5 -6.5t14.5 -10.5q10 -14 14 -32q3 -12 3 -26q0 -6 -1 -13q-2 -20 -11 -40t-25 -37q-37 -40 -83 -78t-91.5 -71t-86 -58.5t-64.5 -40.5 q-19 -12 -48.5 -32.5t-66 -43t-77 -45.5t-80.5 -39q-41 -16 -79 -24q-19 -4 -35 -4q-18 0 -34 4q-40 9 -87.5 32t-86.5 49q-43 30 -74.5 54.5t-51 51t-28.5 57t-9 72.5z" />
<glyph unicode="d" horiz-adv-x="1119" d="M-98 278q0 5 -1 10q-1 50 13 100q14 56 43.5 111.5t64 106.5t72 96.5t70.5 79.5q56 60 119.5 98.5t127.5 47.5q18 3 36 3q45 -1 91 -17q62 -22 117 -81q18 38 39 90.5t41 109.5t36 111t27 95q3 14 9.5 44t16 66.5t20.5 76t24.5 73t28 55.5t30.5 25q24 -14 52.5 -40 t56 -55.5t50.5 -59.5t36 -54q-20 -68 -51 -149.5t-67.5 -174t-77.5 -190.5t-80.5 -198.5t-76 -200t-64.5 -191.5q20 -9 53 4.5t72 41t82.5 66t85.5 78.5t79.5 77.5l65.5 65.5l37 -28q18 -21 22 -45q3 -15 2 -29q0 -9 -1 -19q-3 -24 -11.5 -45t-15.5 -34q-47 -74 -101.5 -133 t-109 -105t-106 -78.5t-93.5 -52.5t-71.5 -27.5t-39.5 -4.5q-30 11 -54 22.5t-47 25t-42.5 31.5t-39.5 44q-5 -2 -4 -4.5t3.5 -3.5t3.5 0.5t-3 7.5q-31 -16 -60 -39.5t-59 -44.5q-31 -21 -63 -34q-26 -11 -55 -11q-7 0 -14 1q-14 1 -39.5 11.5t-55.5 26.5t-61.5 35.5 t-59 39.5t-47 38t-27.5 30q-27 49 -29 104zM203 266q-1 -4 -1 -8q0 -16 11 -32q39 15 85.5 45.5t92 70t86.5 86.5t68 97q27 49 37 101q4 21 5 42q0 29 -9 57q-56 -26 -111.5 -72t-104.5 -103t-87.5 -121t-61.5 -125q-7 -18 -10 -38z" />
<glyph unicode="e" horiz-adv-x="869" d="M-40 386q0 66 22 137t60 140t90 131t112.5 109.5t126.5 75.5t133 28q105 0 160 -49.5t55 -145.5q0 -57 -20 -104.5t-54 -86.5t-78.5 -70.5t-93 -57.5t-98.5 -47t-94 -39q-16 -28 -24.5 -50.5t-8.5 -60.5q0 -40 18.5 -63t76.5 -23t122.5 31t126.5 77.5t118.5 98t98.5 93.5 q11 11 30 31.5t42.5 40.5t50 35t53.5 15q9 0 20 1t20 -2t15 -12t6 -28q0 -49 -17 -91.5t-43 -78.5q-23 -32 -62.5 -76t-90.5 -92t-108 -95t-114 -84.5t-109 -60.5t-92 -23q-9 0 -29.5 6t-46.5 16t-55 22t-56.5 24.5t-50 23t-36.5 18.5q-39 23 -71.5 51.5t-55.5 64t-36 77.5 t-13 93zM368 659q32 3 61.5 20.5t55.5 43.5t47 56.5t35 59.5q-5 2 -9 5t-8 3q-34 -4 -63.5 -24.5t-53 -48.5t-40.5 -58.5t-25 -56.5z" />
<glyph unicode="f" horiz-adv-x="829" d="M-481 -993q27 68 67 153.5t88 186.5t101 216t104.5 242.5t99.5 265t84 282.5q0 1 -13 19.5t-30.5 41t-33.5 41.5t-21 22q0 6 -0.5 12t-0.5 11q0 14 3 25.5t14 25.5q27 37 64.5 66.5t73.5 54t63 44.5t33 38q47 112 109 242.5t138.5 260t166.5 247t191 202.5l106 7 q-54 -114 -118 -222t-127.5 -218.5t-121 -228.5t-99.5 -251q-15 -48 -30.5 -94.5t-29 -90t-22 -84t-9.5 -75.5q38 -6 88 -7q43 0 92 7.5t103 26t110.5 51t115.5 83.5l30 -39q11 -14 16.5 -31.5t5.5 -33.5q0 -34 -16 -64.5t-30 -48.5q-63 -72 -129.5 -114t-133 -65 t-131.5 -30t-126 -7h-16q-44 -125 -85 -239.5t-82 -223t-85 -211.5t-93.5 -205.5t-107.5 -206t-127 -210.5q-6 0 -25 7.5t-45.5 20t-55.5 27.5t-54.5 29t-44.5 25.5t-24 16.5z" />
<glyph unicode="g" horiz-adv-x="1121" d="M-426 -580q0 62 30.5 120.5t82.5 111t119 100t140 90t147 79.5t139 68t115.5 57t77.5 45q-41 -16 -77.5 -23.5t-68.5 -7.5q-57 0 -115 20.5t-104.5 56.5t-75.5 84.5t-29 104.5q0 44 7.5 99.5t25.5 114t46.5 114.5t70 101t97 74t126.5 34q28 2 43 -2t25.5 -11t18 -14.5 t18.5 -11.5q13 25 24 34.5t24 11.5q7 2 16 2q6 0 13 -1q17 -2 44 -2q56 0 106 -35t86.5 -87t57.5 -110t21 -105q0 -38 -6 -72t-15.5 -63.5t-20.5 -53.5t-20 -40l390 295l28 -45q11 -27 11 -56v-9q-2 -33 -13 -64t-25.5 -56t-26.5 -37q-41 -45 -88 -85t-94.5 -75t-93.5 -64 t-85 -52t-67.5 -39t-42.5 -24q-33 -52 -70.5 -130.5t-87 -170t-116 -190t-156.5 -190.5q-50 -51 -123.5 -84t-158.5 -33q-69 0 -135.5 15.5t-118.5 44t-84 70.5t-32 96zM-106 -606q0 -16 16.5 -24t41.5 -8q28 0 59 9t55 29q52 43 94.5 93.5t80 106t72.5 116t73 123.5 q-22 -16 -67 -47t-99.5 -70.5t-112.5 -85t-105.5 -89.5t-77.5 -83.5t-30 -69.5zM259 285q0 -30 8 -51t32 -21q26 0 58 13t65.5 35t65 50.5t56.5 59.5t40.5 63t15.5 61q0 46 -13.5 79t-34 53.5t-45 30.5t-46.5 10q-8 0 -23.5 -12t-31 -27t-27.5 -28t-15 -16 q-52 -57 -78.5 -137t-26.5 -163z" />
<glyph unicode="h" horiz-adv-x="1148" d="M-117 41q3 22 11 62t18 90.5t22 106t24 108.5t24 99t22 76q41 120 90 239t89 228q17 46 48 115t72.5 145t91.5 153t107 138t118 99.5t123 38.5q29 0 63 -18t63 -45t49 -58.5t21 -57.5q0 -86 -30.5 -182t-77.5 -188.5t-101 -176.5t-101 -147q-11 -14 -35.5 -39t-54.5 -55 t-63 -62t-61 -62t-47.5 -55t-23.5 -39l5 -2.5t6 0.5q18 7 49.5 32t72 58t87 69.5t95.5 66.5t98 50t93 20q19 0 33 -16t22.5 -40.5t13 -54t4.5 -56.5q0 -45 -14 -90.5t-35.5 -91t-48.5 -90.5t-53.5 -90.5t-49 -89.5t-35.5 -87q40 26 98 75.5t125 113.5t137.5 137t137.5 143 l28 -42l54 -81q-17 -27 -36.5 -54t-39.5 -54q-61 -84 -128.5 -162t-133.5 -138t-128 -96t-112 -36q-40 0 -83 4.5t-78 20t-58 44.5t-23 78q0 5 1 11.5t2 12.5q9 61 34 118.5t56.5 114t64 111.5t55.5 111q-32 -1 -69 -17.5t-75.5 -45t-77.5 -63t-73 -70t-63 -69t-47 -57.5 q-34 -44 -62.5 -92t-60 -88t-70 -66t-93.5 -26q-10 0 -14.5 0.5t-8.5 1.5t-10.5 3.5t-18.5 6.5q-20 7 -28 20q-6 10 -6 23v6zM387 791q56 69 99.5 126.5t77.5 107t59.5 95t46 90t37 91.5t31.5 100q-18 -1 -18 -2q-27 -32 -61 -79t-71.5 -102t-73.5 -113.5t-64 -115 t-45.5 -106.5t-17.5 -86v-6z" />
<glyph unicode="i" horiz-adv-x="661" d="M-68 270q0 53 15.5 124.5t41.5 146t60 147.5t70 130.5t71.5 92.5t65.5 35q16 0 35 -12q28 -20 47.5 -43.5t34 -49t25 -54t19.5 -60.5q-17 -19 -37.5 -51.5t-41 -72.5t-39 -84.5t-33.5 -89t-24 -87t-9 -76.5q0 -28 7 -47q51 26 112.5 73.5t123 103t118.5 112t101 99.5 q14 -20 29.5 -36.5t28 -28t20 -18.5t7.5 -9q-15 -34 -48.5 -86t-77 -111.5t-93 -119.5t-97.5 -108.5t-91.5 -78.5t-74.5 -30q-19 0 -49.5 8.5t-65.5 22.5t-70 30.5t-65.5 33.5t-52 32.5t-28.5 24.5q-18 27 -26.5 61.5t-8.5 75.5zM279 1178q0 32 10.5 61t29.5 59q20 1 41 4 q17 1 38 2t38 1q23 0 47.5 -17t45 -47t33.5 -69.5t13 -86.5q0 -34 -18 -56.5t-64 -22.5q-44 0 -83 12.5t-68.5 35.5t-46 55t-16.5 69z" />
<glyph unicode="j" horiz-adv-x="618" d="M-1004 -529q12 31 37 48t55 27.5t62.5 15.5t59.5 10q88 16 170 35.5t156 54t138.5 89t119 142t98 212.5t75.5 302q6 33 18.5 94.5t29.5 135t36.5 149t40.5 136t41 97t38 31.5q27 -8 55.5 -22.5t55.5 -33t49 -40.5t35 -47q15 -31 20 -62.5t3.5 -62.5t-7 -60.5t-12.5 -53.5 q-12 -38 -23 -71t-22.5 -64.5t-23.5 -65t-28 -73.5h10q60 0 111 21q57 23 105 57.5t88 72.5t73 67l76 -83q-74 -132 -149.5 -208t-146.5 -114t-134 -46q-46 -6 -83 -6q-14 0 -27 1q-62 -197 -162 -355.5t-238.5 -262.5t-316.5 -146q-95 -22 -201 -22q-94 0 -197 17 q-33 5 -55 25.5t-30 58.5zM161 1276q10 35 32 62.5t54 44.5t71 21q11 1 22 1q30 0 63 -8q28 -7 50 -21.5t36 -35.5t19 -48q1 -10 1 -20q0 -18 -5 -38q-12 -40 -38.5 -69.5t-60 -47.5t-73.5 -23q-12 -1 -24 -1q-27 0 -54 7q-38 9 -60 28t-32 43q-9 23 -9 48q0 28 8 57z" />
<glyph unicode="k" horiz-adv-x="1142" d="M-83 22q0 48 12 147t37.5 234.5t65.5 298.5t95 339.5t128 358t163 352.5l222 43q-48 -139 -93.5 -280t-85 -274t-70 -254t-47.5 -220q31 38 61 70t65.5 56.5t79 38t100.5 13.5q33 0 62 -10t51 -32t35 -56t13 -81q0 -71 -28.5 -126t-74.5 -95.5t-102.5 -67t-111.5 -39.5 q38 -51 68.5 -93t58.5 -71t57 -45t62 -16q43 0 88 25t89.5 65t85.5 88.5t76.5 94.5t63 85t45.5 60l77 -102q-29 -50 -64.5 -111t-77 -124t-89 -122t-99.5 -105.5t-110 -74.5t-119 -28q-72 0 -128 14t-99.5 37t-76.5 54.5t-60.5 67.5t-51 74.5t-45.5 75.5 q-26 -24 -42.5 -58.5t-29.5 -73.5l-26 -78t-31.5 -70.5t-45 -50.5t-66.5 -19q-20 0 -36.5 2t-28 10.5t-17 25.5t-5.5 47zM402 598l23 -46q38 10 69 25q26 12 47 29.5t21 40.5q0 13 -14 20.5t-28 7.5q-17 0 -35 -9.5t-34.5 -21.5t-29 -25.5t-19.5 -20.5z" />
<glyph unicode="l" horiz-adv-x="787" d="M-43 239q0 113 20 223t54.5 218t80 213.5t96.5 207.5t105 200.5t104 191.5q28 51 71 114.5t98 120t118 94.5t129 38q27 0 55 -19.5t54.5 -49t50 -64.5t41 -67.5t27.5 -56t10 -30.5q-2 -108 -41.5 -223t-104 -229t-148.5 -222.5t-173.5 -203.5t-178.5 -171.5t-166 -125.5 q0 -8 4 -34.5t13.5 -55t24.5 -52t37 -23.5q29 0 64.5 17.5t76 46.5t83.5 66.5t85.5 77.5t84.5 80t79 74q11 11 23.5 14t21.5 3q20 0 31.5 -16t11.5 -39q0 -27 -16 -65.5t-43 -85t-64 -96.5t-79 -98t-86.5 -91t-87.5 -76t-82 -52.5t-71 -19.5q-27 0 -67.5 15.5t-86.5 40 t-92 54.5t-83 59.5t-60.5 55t-23.5 41.5zM343 719q1 -11 9 -11q38 24 79 60t80.5 79.5t77.5 92t71 97.5t59.5 96t44.5 86q23 50 49.5 104t50 108t40.5 106.5t20 99.5q-10 -4 -20.5 -6t-15.5 -9q-71 -85 -137 -180t-131.5 -206t-133.5 -239.5t-143 -277.5z" />
<glyph unicode="m" horiz-adv-x="1765" d="M-62 471q23 33 52 84t65 108.5t78 115.5t90 104.5t102.5 75.5t113.5 29q35 0 70.5 -11t65.5 -33.5t51.5 -56t29.5 -77.5q10 20 26.5 40.5t39 37t51 27t61.5 10.5q31 0 64.5 -10t62 -30t48 -50.5t21.5 -72.5q29 26 55.5 46t53.5 35.5t58 25t70 11.5q37 -13 79 -44 t77 -72.5t58 -90.5t23 -101q0 -41 -19.5 -87t-43 -90.5t-43 -84.5t-19.5 -67q0 -9 3.5 -18t13.5 -9q19 0 52.5 24t73 61.5t81 82t77.5 86.5t64 76t40 48l121 -65q-22 -43 -53.5 -98t-71.5 -114t-87.5 -116t-100.5 -101.5t-110 -71.5t-115 -27q-42 0 -81 15t-68 41 t-46.5 61.5t-17.5 77.5q0 50 16.5 104.5t36 109t35.5 104.5t16 92q0 8 -8 14t-14 6q-17 0 -37 -19.5t-41.5 -50t-42.5 -66.5t-39 -70.5t-32 -62t-21 -40.5q-50 -88 -87.5 -178.5t-79.5 -175.5q-26 9 -48.5 17.5t-43.5 18t-41.5 22.5t-40.5 30q4 58 28.5 123.5t53 133.5 t51 138t22.5 139q0 16 -9 19.5t-20 3.5q-29 0 -61 -26.5t-66 -70.5t-68 -101.5t-67.5 -118.5t-65 -121.5t-59 -112.5t-50 -89.5t-38.5 -51.5q-29 8 -51 17t-40 19.5t-33 24.5t-30 32q0 56 16.5 110.5t41 108t53.5 106t54 106.5t41 109t16 114q0 24 -3 50q-51 -22 -93 -52.5 t-76.5 -63.5t-63 -65.5t-51.5 -58.5t-43 -41.5t-38 -15.5q-23 0 -45.5 10t-49.5 45z" />
<glyph unicode="n" horiz-adv-x="1221" d="M-35 519q16 28 43 64.5t59 69t67.5 55t71.5 22.5q24 0 44 -13.5t36 -33t27 -43.5t14 -45q20 34 54 70t71.5 66t74 49t62.5 19q46 0 86.5 -25.5t71 -64t48.5 -84t18 -84.5q0 -38 -7.5 -76t-17 -77.5t-17 -80t-7.5 -83.5q0 -32 8 -45.5t23 -13.5q20 0 54 23t76 60t88 83.5 t89.5 93t82.5 89.5t65 74l82 -120q-25 -36 -60.5 -88t-81.5 -110.5t-102 -117t-120.5 -104.5t-136 -75t-150.5 -29q-53 0 -84.5 30.5t-48 78.5t-21.5 106.5t-5 113.5q0 37 1 70t1 58q0 27 -2 43t-9 16q-32 -8 -59.5 -47.5t-52.5 -93t-49.5 -114t-50 -111.5t-52 -84.5 t-56.5 -33.5q-25 0 -51.5 6t-50 14.5t-41.5 20t-25 23.5q5 14 16 41t24.5 60.5t28 71t26 73t19 65.5t7.5 48q0 43 -8.5 56.5t-11.5 13.5q-5 0 -18 -9t-27 -20.5t-26 -21.5t-14 -12z" />
<glyph unicode="o" horiz-adv-x="888" d="M-72 338q0 52 17.5 107.5t44.5 108t60.5 101t65.5 86.5q26 34 69 70.5t95 65.5t106.5 48t102.5 19q52 0 101 -30.5t87 -76t61 -98t22 -96.5q0 -9 -0.5 -21t-2 -23.5t-4 -23t-5.5 -18.5q4 -3 6.5 -4.5t6 -3t11 -2t22.5 -0.5t31.5 1.5t34.5 8.5t36 21.5t39 38.5l107 -108 q-15 -39 -43 -72t-63.5 -56.5t-74.5 -36t-76 -12.5q-48 0 -84 22q-30 -71 -68 -126.5t-85.5 -101t-103.5 -83.5t-118 -73q-9 -5 -24 -5q-24 0 -55.5 14.5t-67 37t-71 50t-67.5 54t-57.5 49.5t-39.5 35q-3 15 -6.5 34t-5.5 38t-3 35.5t-1 25.5zM228 289q0 -11 8.5 -18.5 t19.5 -7.5q16 0 41 14.5t50.5 35.5t49.5 44.5t39 41.5q27 32 47.5 64.5t38.5 67.5q-16 13 -24 28t-11 31t-2.5 33t-0.5 34q-14 9 -28 10q-12 0 -24 -6.5t-21 -15.5q-38 -40 -71.5 -85t-58 -91.5t-39 -92.5t-14.5 -87z" />
<glyph unicode="p" horiz-adv-x="1068" d="M-473 -586q7 17 22 48.5t40.5 87.5t62.5 140.5t87 209t116 292.5t149 391q7 19 18.5 48t24.5 63.5t27.5 71.5t27.5 71t23.5 64t17.5 49q11 33 36 45.5t54 12.5q30 0 61 -7.5t57 -12.5q65 18 120 19q82 0 144 -35.5t103.5 -93t62.5 -130.5t21 -149q0 -52 -11.5 -107.5 t-36.5 -109t-65 -102.5t-96 -85q65 8 127.5 41.5t126 89t128 130t132.5 165.5q33 -5 54.5 -28t21.5 -63q0 -28 -12 -62.5t-39 -77.5t-70 -92.5t-106 -106.5q-92 -83 -183 -133t-173 -50q-43 0 -81 15t-70 48q-43 -27 -92 -39t-99 -12q-52 0 -103.5 11t-98.5 28 q-69 -205 -148.5 -403.5t-160.5 -382.5zM130 290q52 -28 115 -28q37 0 74.5 10.5t73 32t67 54.5t57.5 79q16 30 25.5 67t9.5 73q0 34 -8 64t-25 53t-44.5 36.5t-64.5 13.5h-30t-22.5 -1.5t-22 -4t-30.5 -7.5q-25 -67 -48 -121t-44.5 -104.5t-41.5 -102.5t-41 -114z" />
<glyph unicode="q" horiz-adv-x="1186" d="M-162 -849l440 883q-6 -1 -12 -1h-12q-74 0 -133.5 29.5t-102 77t-65.5 107t-23 118.5q0 43 16.5 91.5t44 98t64 98t75.5 91.5t78.5 78t73.5 57q42 27 79.5 37t73.5 10q37 0 65 -8t55.5 -17t57 -16.5t69.5 -7.5q30 0 62.5 -19.5t60.5 -50t46 -66.5t18 -69q0 -27 -10 -62 t-26.5 -73.5t-36.5 -78t-39 -74t-35 -61t-25 -39.5q-7 -11 -7 -20q0 -12 22 -12q20 0 54.5 10.5t73.5 28.5t78.5 42t71.5 51q65 54 119.5 107t110.5 117l78 -120q-87 -120 -168 -200.5t-155.5 -132t-139.5 -78t-119 -38.5t-95.5 -14t-68.5 -5q-78 -126 -144 -241.5 t-130.5 -229t-131.5 -229.5t-147 -241q-49 0 -90 17.5t-71 54.5zM289 334q0 -24 7 -38.5t20.5 -24.5t30.5 -15.5t39 -9.5q38 27 84.5 79t88 117t69.5 136t28 136q0 7 -1 19t-3 24.5t-5 21t-8 8.5q-13 0 -44 -19.5t-70 -53.5t-81 -79.5t-76 -96t-56.5 -103t-22.5 -101.5z" />
<glyph unicode="r" horiz-adv-x="1030" d="M-16 544q6 17 20.5 35t25.5 33q10 16 14.5 42t6.5 56.5t3 63t4 61.5t9 52.5t18 36.5q18 6 34 6q23 0 38.5 -11.5t32 -25t35 -25t45.5 -11.5q96 0 187 21t169 70q43 27 88 64.5t84 69.5q8 6 18.5 9t19.5 6q17 -11 34.5 -34t30.5 -49.5t21.5 -52t8.5 -42.5q0 -18 -26 -26 q-25 -8 -52.5 -33t-56.5 -61t-58 -78t-56 -83.5t-50 -79.5t-39 -63q-39 -61 -66.5 -126.5t-27.5 -132.5q0 -49 8 -68.5t18 -19.5q24 0 60.5 20t79 52.5t88 73t88 80.5t78 76t58.5 61q35 37 55.5 63t24.5 30q12 12 30 8t35.5 -15.5t29.5 -26.5t12 -25q0 -18 -7.5 -39.5 t-20.5 -45t-29 -48.5t-34 -50q-39 -55 -78 -117t-87.5 -124.5t-110.5 -121.5t-147 -110q-48 12 -99 32t-101 44t-96.5 52t-85.5 58q-67 50 -67 136q0 60 20.5 128t49 131.5t59 116.5t50.5 84q-19 -12 -41 -18t-43 -6q-27 0 -50.5 8.5t-37.5 23.5q-6 -37 -22 -80t-38.5 -79.5 t-50 -60.5t-56.5 -24q-15 0 -23 10z" />
<glyph unicode="s" horiz-adv-x="908" d="M-233 316q0 14 10 30.5t34 40.5q36 38 65.5 66.5t55.5 52.5t50 45.5t49.5 46t54.5 53t64 66.5q55 59 103 123.5t83 139.5q16 35 19.5 72.5t6.5 74.5t8.5 73.5t25.5 69.5q2 1 7 1q16 0 44 -15.5t60.5 -40t65.5 -55.5t61 -60.5t46 -55t21 -40.5q1 -5 1.5 -10t0.5 -10 q0 -26 -5.5 -55.5t-5.5 -57.5q0 -12 14.5 -54t31 -101t27.5 -128q7 -45 7 -88q0 -24 -2 -47l-13 -33l45 59q19 16 35 29.5t33 29t37.5 35t49.5 47.5q0 -3 14 -19.5t31 -35.5t30.5 -35t11.5 -16q-29 -44 -68 -97t-88.5 -107.5t-108.5 -105.5t-126.5 -90.5t-143 -63.5 t-156.5 -24q-45 0 -96.5 23t-101 59.5t-90.5 83.5t-67 95q-25 -20 -53.5 -30t-41.5 -10t-36.5 2.5t-45.5 10t-38 21.5t-16 35zM168 391q9 -20 23.5 -35.5t31.5 -27t34.5 -17t34.5 -5.5q52 0 96.5 21t77.5 55.5t51.5 78t18.5 88.5q0 30 -4 61.5t-9.5 61t-13.5 56t-17 45.5 q-27 -60 -64 -112.5t-79.5 -99.5t-89 -89t-91.5 -81z" />
<glyph unicode="t" horiz-adv-x="825" d="M-328 763q0 16 24 32q24 17 64.5 34t87 32t90.5 26t72 17q61 12 95 20.5t54.5 20.5t36 32t40.5 56q14 20 34.5 54.5t45 74t52.5 79.5t57 72t57.5 52t55.5 20q60 0 108.5 -20t95.5 -56q-55 -78 -114.5 -159t-102.5 -169q29 2 69 7t86 12t95 14.5t95 14.5t87 13.5t71 9.5 l-31 -98q-32 -16 -86 -31t-112 -27.5t-109.5 -22t-79.5 -14.5q-35 -6 -58 -9t-38 -5.5t-25.5 -8.5t-20 -16.5t-20 -30t-25.5 -50.5q-15 -32 -41 -88t-50.5 -121.5t-42 -133t-17.5 -122.5q0 -24 4.5 -44t14.5 -35q32 0 77 18t97 49.5t107.5 72.5t106.5 86t95 91t74 87 l135 -83q-24 -49 -63.5 -110t-89.5 -123t-107 -121t-115 -104q-60 -46 -116 -73q-54 -26 -101 -26h-3q-35 12 -81 25t-95.5 29.5t-97.5 37t-86 48t-61.5 64t-23.5 82.5q0 129 38.5 269t119.5 270q-25 -3 -60 -9t-75 -12.5t-80.5 -13.5t-75.5 -11.5t-62 -6t-37 2.5 q-39 12 -39 29z" />
<glyph unicode="u" horiz-adv-x="1137" d="M-92 328q0 53 19.5 102.5t46 98.5t53.5 97.5t43 100.5q6 19 15 32t20 21t21.5 13t19.5 8l179 -161q-8 -27 -23.5 -69t-32 -86t-28.5 -82t-12 -56v-24.5t1 -25t5 -20.5t10 -10q27 9 55.5 42t57.5 78t58 97.5t55 100t48 86t38 55.5q12 13 35 13q22 0 38 -13t24 -33 q10 -24 19.5 -42t20.5 -34t24.5 -31.5t32.5 -33.5q13 -13 13 -28q0 -27 -6.5 -59.5t-15.5 -66.5t-15.5 -68t-6.5 -63q0 -11 7 -22.5t22 -10.5q13 1 39 17.5t58.5 44t69.5 61t73.5 69t70.5 69t60 60t42 41.5t17 14l93 -97q-69 -96 -127 -179q-26 -36 -51.5 -71.5t-48.5 -66.5 t-41.5 -55t-29.5 -37q-18 -20 -44.5 -43t-55.5 -43t-59 -33.5t-55 -13.5q-51 0 -96.5 15t-81 43t-59 68t-30.5 90q-16 -23 -39.5 -47.5t-51 -45.5t-59 -35t-62.5 -14q-32 0 -66.5 9t-66.5 22.5t-61.5 27t-51.5 22.5q-66 26 -96.5 80.5t-30.5 121.5z" />
<glyph unicode="v" horiz-adv-x="1260" d="M-59 469q0 23 21 54.5t55.5 66t80 68.5t95 61t98.5 44t91 17q45 0 82 -14t65 -46t49 -82.5t35 -123.5q-29 -68 -62.5 -120t-62 -99.5t-48 -94.5t-19.5 -103q0 -24 5 -47.5t14 -51.5q58 6 105 41.5t83.5 89t63 119.5t46 134t32 130.5t21.5 111.5q-12 16 -23 47t-11 59 q0 19 7 32.5t27 13.5q13 0 24 -6.5t22 -14.5q11 -9 32.5 -27.5t49.5 -40.5t61.5 -45.5t68.5 -42t70 -31t67 -12.5q28 0 54 8t53.5 18.5t57.5 18.5t66 8q33 0 55.5 -12.5t22.5 -44.5q0 -39 -19 -72t-50.5 -59.5t-71 -46.5t-80.5 -33.5t-79.5 -21t-68.5 -7.5q-22 0 -41 7.5 t-37 18t-33.5 24.5t-27.5 27q-16 -62 -40.5 -130t-57.5 -133.5t-74 -124.5t-90.5 -103.5t-107.5 -71.5t-123 -27q-59 0 -126 16.5t-123 50t-92.5 84t-36.5 118.5q0 67 21.5 129.5t54.5 123t71.5 119t72.5 115.5l-3 18q-36 -1 -61 -5.5t-47.5 -15.5t-45 -29.5t-53.5 -47.5 q-10 -9 -24 -21.5t-28.5 -23t-28 -17.5t-23.5 -7q-14 0 -29 4.5t-26 12.5t-18.5 20t-7.5 26z" />
<glyph unicode="w" horiz-adv-x="1514" d="M-139 81q0 53 13 128.5t39.5 156.5t64 161t87 143.5t109 103t129.5 39.5q20 0 36.5 -3.5t33 -11.5t34 -22t38.5 -36q-57 -57 -103 -128t-78.5 -146t-49.5 -146.5t-17 -129.5q0 -43 11 -76q59 16 120 68t121 129t116.5 173.5t105.5 200.5q19 8 48 8q26 0 56 -6.5t55 -20.5 t42 -35t17 -49q0 -14 -14.5 -46.5t-36.5 -75.5t-47.5 -94.5t-47.5 -103.5t-36.5 -102t-14.5 -92q0 -4 0.5 -13t1.5 -17t3.5 -15t5.5 -7q20 0 50.5 29.5t66.5 77t75.5 108.5t78 124.5t73.5 124.5t64 108.5t48.5 76.5t25.5 29q18 -15 44 -43.5t55.5 -57t58.5 -49.5t54 -21 q33 0 68.5 17t77.5 57l120 -167q-16 -17 -48 -43t-73 -49.5t-87.5 -40t-91.5 -16.5q-25 0 -42 5t-30.5 13t-24.5 19.5t-22 22.5q-8 -31 -28.5 -84t-51 -115.5t-70 -126.5t-86.5 -116.5t-100 -85.5t-110 -33q-37 0 -81.5 21.5t-88 53.5t-80.5 69t-58 68q-38 -31 -79 -59 t-85.5 -48.5t-91.5 -33t-95 -12.5q-55 0 -105.5 16.5t-89 47t-61 76t-22.5 102.5z" />
<glyph unicode="x" horiz-adv-x="836" d="M-508 -522q14 51 50.5 118.5t86.5 145.5t112 163t127.5 169.5t133.5 166t129 152.5q-4 9 -9 18.5t-16 24.5t-29.5 38t-49 60.5t-76 93.5l-110.5 136q-24 17 -33.5 30t-9.5 21q0 11 14.5 17t37.5 6q19 0 44 -4t49 -10.5t46 -15.5t37 -20q28 -20 49.5 -43.5t44 -56.5 t50 -78t66.5 -108q50 65 111.5 142t128 153.5t137 146.5t141.5 120l175 -231q-85 -74 -166 -158t-151.5 -163.5t-128 -147t-95.5 -107.5q67 -121 112.5 -203.5t74.5 -136.5t45.5 -85.5t25 -48.5t13.5 -26.5t10.5 -20t15 -27.5t29.5 -51q15 -16 21.5 -27.5t6.5 -19.5 q0 -14 -11.5 -24.5t-19.5 -28.5q-45 32 -88.5 79t-84.5 101t-79.5 112t-73 111.5t-64 101t-53.5 79.5q-15 -13 -50 -50.5t-81.5 -89.5t-100.5 -115.5t-109.5 -130t-106.5 -131t-92 -120t-67.5 -97t-30.5 -60.5q-11 12 -33.5 24t-44.5 26t-40 33.5t-20 46.5z" />
<glyph unicode="y" horiz-adv-x="980" d="M-446 -517q0 51 27 101.5t73 100.5t106 96.5t125.5 89.5t132 82t126 72t107 60t74.5 46q-63 -26 -110.5 -37t-84.5 -11q-33 0 -69 12.5t-67.5 35t-52 55t-20.5 74.5q0 38 8 87.5t24.5 104.5t41.5 111.5t59.5 107.5t79 93t98.5 70l172 -159q-42 -40 -75 -95.5t-56 -112 t-35.5 -108t-12.5 -84.5q0 -41 18 -41q29 0 65 29t75.5 75t79.5 104.5t76 117t67 112.5t50 92q16 31 47 45.5t64 14.5q28 0 47 -8t31 -21.5t17 -28.5t5 -30q0 -11 -10.5 -41.5t-27.5 -72t-37.5 -88.5t-39 -89t-33.5 -74.5t-20 -45.5q25 18 66.5 53.5t88 77t93 84.5t81.5 76 l107 -109q-33 -51 -80.5 -103.5t-101.5 -102t-110 -95t-105 -82t-87 -62.5t-55 -37q-16 -27 -41.5 -73t-58.5 -103.5t-74 -121t-89 -126t-102.5 -119t-115 -100.5t-126 -69.5t-135.5 -25.5q-58 0 -112.5 12.5t-96 37t-66.5 61t-25 85.5zM-155 -536q0 -7 13 -7q9 0 23.5 4.5 t31 12.5t34 18.5t33.5 23.5q52 43 97 84t85 85.5t76.5 94.5t72.5 111q-41 -30 -91.5 -69t-102 -81.5t-100.5 -85.5t-87.5 -80.5t-61.5 -67t-23 -43.5z" />
<glyph unicode="z" horiz-adv-x="1218" d="M-153 -29q0 34 32 77t87 105q46 51 88 98t82.5 92t80.5 89.5t80 92.5l-175 -3l-7 -5q-38 -30 -67.5 -40.5t-50.5 -10.5q-17 0 -29.5 4.5t-20.5 10.5q-10 7 -16 16q36 33 69 75.5t58.5 89t40.5 94t15 89.5q-11 15 -21.5 29t-21.5 28q12 32 33 50q20 17 59 16h5 q24 -29 48 -49t59 -20q62 0 147.5 21.5t173.5 59.5t169 89t136 111q10 11 18.5 16.5t18.5 5.5q15 0 30.5 -11.5t28 -29t20 -37.5t7.5 -37q0 -14 -6 -23q-44 -63 -91.5 -120.5t-95.5 -113t-93.5 -111t-86.5 -116.5h46q18 0 38 -1t35 -4t25 -8.5t10 -16.5q0 -10 -14 -17 t-35.5 -12t-47.5 -8.5t-49.5 -5t-42.5 -2.5t-25 -2q-23 -28 -46 -53.5t-48.5 -51.5t-53.5 -56t-61 -67q52 -1 100 -8t94.5 -16t90.5 -16t87 -7q76 0 145 36.5t132 91t119.5 118t107.5 118.5q12 13 24 14q8 0 16.5 -7.5t18 -18.5t21.5 -25.5t27 -28.5q-15 -32 -40 -76.5 t-56.5 -95t-70 -104.5t-80 -102.5t-85 -89t-87.5 -66.5q-40 -24 -83 -32.5t-86 -8.5q-54 0 -108.5 10.5t-106.5 22.5t-102 22.5t-94 10.5q-60 0 -103 -21t-77.5 -53t-66.5 -69t-70 -70q-108 40 -155 72.5t-47 71.5zM153 548l41 19q15 2 37 6q19 3 48.5 6.5t68.5 7.5 q31 37 62 76.5t65 84.5q-23 -8 -52.5 -15t-60.5 -12.5t-61 -8.5t-52 -3q-11 -30 -20.5 -53t-20 -41.5t-24 -34.5t-31.5 -32z" />
<glyph unicode="{" horiz-adv-x="960" d="M-63 -233q11 61 37.5 114.5t63 101t81 89.5t91 80.5t93 75t87.5 73.5q-37 11 -81 24t-82 28t-63.5 30t-24.5 32q2 40 18.5 61.5t38.5 33.5q70 35 130 71q26 15 51.5 32t49 34.5t42 35t28.5 33.5q7 37 -1.5 70t-19.5 66t-19 66t0 69q12 58 47 113t84.5 103t109.5 88.5 t123 71t125.5 48t115.5 22.5q25 0 46 -4.5t36.5 -12.5t23.5 -21t3 -31q-7 -34 -42.5 -62t-85.5 -55t-105 -54.5t-100.5 -58t-75 -66t-25.5 -79.5q-3 -23 4.5 -45t18.5 -44t24.5 -45.5t23.5 -47t14 -49t-2 -52.5q-5 -22 -26 -49t-50.5 -56t-64.5 -56.5t-68 -51.5 q46 -31 73 -53t22 -52q-7 -42 -40 -83t-78.5 -81.5t-98 -82t-98.5 -84t-79.5 -87.5t-42.5 -93q-6 -33 14 -55t55 -35.5t78 -22t85 -14.5q-7 -34 -37 -60.5t-73 -44.5t-95.5 -27t-105.5 -9t-101.5 9t-85 28.5t-55.5 49.5t-11 71z" />
<glyph unicode="|" horiz-adv-x="794" d="M-89 -216q29 94 78.5 206.5t112.5 233t133.5 244t140.5 238t135.5 216.5t115.5 180t81 126.5t34 56.5q27 2 71.5 -10.5t102.5 -35.5q-13 -30 -47 -95.5t-83.5 -154.5t-109 -196t-123 -219t-126 -223.5t-118 -211t-100.5 -180t-72 -129.5q-25 -46 -65.5 -72t-81.5 -33 q-15 -2 -31.5 1t-29 10.5t-18 19.5t-0.5 28z" />
<glyph unicode="}" horiz-adv-x="865" d="M-227 -355q26 5 41.5 8.5t32.5 8t41.5 12t67.5 20.5q67 20 112.5 43t73.5 46.5t42 46.5t19 41t3.5 32t-3.5 19q-20 42 -22.5 88t9 93.5t34.5 93t52.5 85.5t64 72.5t67.5 52.5q-25 13 -43 47t-11 81q20 91 60 161.5t84 127t85 102t64 87.5t20 83t-46 88q-15 16 -34.5 22.5 l-34.5 11.5t-23 12t-1 25q24 60 66 93.5t89.5 43t96 -2.5t86.5 -40.5t59.5 -71.5t15.5 -95q-7 -74 -30.5 -129.5t-55.5 -101t-67.5 -84.5t-69 -79t-59.5 -86t-37 -104q10 -12 30 -19t44.5 -12.5t49.5 -10.5t45.5 -13.5t33 -22.5t10.5 -37q-4 -35 -32 -60t-68 -46.5t-86 -43 t-87 -49t-70 -65t-34 -90.5q-2 -25 3.5 -46t13.5 -40.5t16 -40.5t9 -46q4 -93 -30 -162t-93 -116.5t-136 -72.5t-159.5 -29t-163 13.5t-145.5 55.5z" />
<glyph unicode="~" horiz-adv-x="1104" d="M177 340q0 19 14 46.5t36.5 57.5t51 61.5t57.5 59t55.5 49t45.5 33.5q0 -1 3 -1q6 0 25.5 -15.5t47.5 -42.5t61.5 -63t69.5 -75q23 25 47.5 45.5t48.5 41.5t46.5 42.5t42.5 47.5l121 -100q10 -7 11 -22q0 -41 -30.5 -82t-73.5 -73.5t-91 -52t-84 -19.5q-41 0 -71.5 15 t-52 35.5t-36 42.5t-21.5 36q-9 -9 -37.5 -31t-65 -45t-74 -40.5t-65.5 -17.5q-13 0 -27.5 6t-26.5 15t-20 21t-8 25z" />
<glyph unicode="&#xa1;" horiz-adv-x="836" d="M-131 -411q60 147 115 279.5t116 255t133.5 237.5t168.5 229q14 -11 35.5 -24t41 -25.5t33 -23.5t13.5 -19q0 -17 -12 -66.5t-33.5 -119t-51 -154t-62 -171.5t-67.5 -171.5t-68.5 -155.5t-64.5 -121t-55 -69q-12 -10 -45.5 -8.5t-71 16.5t-73 42.5t-52.5 68.5zM453 809 q0 9 10.5 29.5t28 44t40.5 46.5t47 40q42 -8 82.5 -24.5t67 -42t32.5 -61t-21 -81.5q-36 -61 -69 -96t-77 -35q-5 0 -14.5 1.5t-19.5 4.5t-20.5 6.5t-16.5 7.5q-14 22 -26.5 40t-22.5 36t-15.5 38t-5.5 46z" />
<glyph unicode="&#xa2;" horiz-adv-x="1769" d="M181 431v6.5t1 5.5q2 8 2 14q2 3 3.5 5.5t3.5 5.5q2 2 4 5t4 5l4 -4q2 -1 3 -2t2 -1q1 -3 1 -7v-4t-2 -3q-4 -5 -4 -12q-1 -5 -1 -13t3 -17q3 -4 5.5 -7.5t4.5 -6.5q5 -5 14 -7q7 -4 18 -3q6 0 12 3l4 2t4 3t4.5 3t4.5 5q1 2 3 4l4 4q0 4 1 6.5t2 5.5q1 4 1 11 q-1 3 -1.5 7t-2.5 8q0 3 -5 10l-19 -1v-5v-5q0 -2 -3 -6q-1 -1 -1.5 -2t-2.5 -2t-6 -1h-6l-3 38l51 3q2 -2 4.5 -4t3.5 -4q2 -2 3.5 -5t1.5 -5q1 -7 4 -12q0 -3 0.5 -6.5t0.5 -5.5q0 -8 -0.5 -14t-3.5 -11q-1 -7 -4 -12.5t-7 -10.5q-7 -9 -20 -13q-11 -7 -22 -7h-19 q-4 2 -7.5 3.5t-7.5 3.5q-4 1 -6.5 3t-5.5 4l-6 6t-6 7q-2 2 -3.5 6t-3.5 8q-1 5 -1.5 9t-1.5 9zM181 506l8 77l20 -1l-6 -58l30 -4l6 47l20 -1l-5 -47l32 -3l5 58l20 -3l-9 -77zM191 597l23 91l19 -5l-10 -38l100 -23l-5 -19l-99 25l-10 -36zM233 740l42 84l17 -8l-16 -33 l92 -46l-9 -17l-92 46l-16 -35zM261 160l46 -80l24 14l-26 46l84 -10q2 0 6 1q2 0 2.5 0.5t2.5 0.5l12 8l-46 79l-24 -14l27 -45l-84 9q-2 0 -6 -0.5t-8 -3.5zM286 844l11 15l41 -30l36 49l-41 30l11 17l98 -73l-11 -16l-41 30l-36 -48l42 -31l-11 -15zM327 53l52 -59l19 18 l-32 38l17 11l24 -31l22 19l-28 31l15 11l31 -40l22 19l-50 61zM354 471q0 -105 40.5 -200.5t111.5 -167.5t167.5 -115t209.5 -43q36 0 71.5 5.5t69.5 15.5q80 24 150 70t122.5 111.5t82.5 147.5t30 176q0 103 -39.5 199t-109.5 169t-166.5 117t-210.5 44q-106 0 -202 -40 t-168.5 -111.5t-115.5 -168t-43 -209.5zM368 949l54 55l14 -16l-40 -40l21 -21l34 31l13 -14l-33 -31l22 -23l42 40l13 -16l-55 -53zM400 471q0 96 36 183.5t100.5 155t153 106.5t193.5 39q69 0 127 -17q74 -19 138 -61t113 -102.5t77 -137.5t28 -166q0 -100 -38 -188.5 t-104 -155t-154 -104t-187 -37.5q-102 0 -190.5 39.5t-153.5 106t-102 154.5t-37 185zM425 -50l20 -19l62 71l23 -21l18 20l-71 60l-20 -21l27 -22zM446 471q0 -84 29.5 -158.5t79.5 -134.5l568 570h-577q-47 -56 -73.5 -125.5t-26.5 -151.5zM468 -90l16 -9q0 -1 2 -1h3 q2 0 3 -0.5t3 0.5h5q3 0 4 1l11 9l40 -23l-2 -15v-5q0 -2 1 -3q0 -1 1 -1v-3q0 -2 2 -2l4 -3l17 -11l17 128l-23 14zM483 1048l65 41l9 -17l-47 -31l17 -26l40 25l11 -17l-40 -25l24 -43l-14 -11zM541 -74l16 15h2q2 0 2 1v1v1h1q1 1 2 1l-3 -2v-2v-3l-2 -23zM567 1100l19 8 l30 -68q0 -7 7 -10q1 -3 9 -7q2 -1 5 -1h5q6 -1 11 1q7 3 11 7q5 5 6 10q1 2 1 11q0 7 -1 11l-28 68l17 9l30 -70q1 -5 1.5 -9t0.5 -9q0 -10 -3 -20q-2 -4 -4.5 -7.5t-7.5 -6.5q-2 -5 -5.5 -7t-8.5 -4t-10 -3.5t-10 -1.5q-8 0 -18 5q-5 2 -9 4t-7 6q-7 7 -10 16zM590 797 h579q-55 51 -128.5 81t-157.5 30q-85 0 -159.5 -29.5t-133.5 -81.5zM592 146q58 -50 132 -80.5t159 -30.5q84 0 158.5 30.5t134.5 80.5h-584zM595 -161l27 -12l15 42l39 -15l10 26l-38 15l6 18l49 -18l9 25l-74 27zM641 194h578q46 56 71.5 126.5t25.5 150.5q0 82 -27 153.5 t-83 142.5zM689 1146l21 5l22 -99l50 11l4 -21l-67 -15zM695 -137v-19l3 -15l7 -13l11 -12q3 -4 7 -5.5t6 -3.5q7 -4 15 -4q5 -1 9 -1h8q5 0 13 2q4 2 8.5 3t7.5 4q6 2 12 11l8 11q4 7 7 17v16q0 3 -1 6.5t-3 8.5q-1 5 -2.5 7.5t-3.5 6.5l-9 12q-3 3 -7 5l-8 4t-7 2.5 t-8 2.5q-5 1 -8.5 1h-7.5q-10 0 -15 -4q-4 -1 -7.5 -2t-7.5 -4l-11 -11q-4 -8 -11 -11q-2 -5 -3.5 -8.5t-1.5 -6.5zM726 -142q0 6 5 11l6 9l14 5h11l12 -5l9 -9q2 -3 3.5 -5t1.5 -6q2 -9 0 -15q0 -3 -1.5 -6.5t-3.5 -5.5q-3 -4 -4.5 -5.5l-4.5 -4.5q-3 -1 -5.5 -2t-6.5 -1 q-6 -3 -11 0q-4 0 -8 1t-6 2l-8 10q-2 2 -2.5 5.5t-0.5 6.5q-3 5 0 15zM777 1164l21 2l10 -100l52 5v-20l-70 -9zM825 -102l3 -122l28 1v81l52 -81h26v121h-31l4 -77q-1 0 -1 4q0 1 -1.5 1t-1.5 1q0 4 -1 4l-42 61q0 1 -2 3q-2 3 -9 3h-9h-15zM906 1051l13 120l45 -5 q6 0 14 -4q9 -5 11 -10q4 -3 7 -13q3 -7 2 -15q-2 -4 -2.5 -7.5t-2.5 -8.5q-6 -8 -9 -11q-4 -3 -14 -7q-3 -1 -14 -1l-25 3l-5 -44zM932 1110l25 -2h8q3 1 7 6q3 0 3 5q2 1 4 7q0 5 -1 8q-1 2 -2 3.5t-1 2.5l-3 3t-3 2t-3.5 1t-2.5 1l-26 3zM944 -101l4 -27l35 6l16 -91 l27 5l-16 91l31 6l-5 26zM995 1040l32 116l44 -11q6 0 12 -6q5 -4 10 -11q4 -5 4 -13q1 -5 0.5 -8t-0.5 -7q-2 -5 -5 -10t-7 -8q-7 -5 -10 -5q-2 -2 -4.5 -2.5t-4.5 -1.5l23 -58l-16 2q-2 1 -3.5 2.5t-3.5 2.5q-3 1 -5 8l-20 47l-14 4l-12 -46zM1032 1100l25 -6q2 0 3 -0.5 t3 0.5q2 0 3.5 0.5t3.5 0.5t2 1.5t1 2.5q4 4 4 6q1 3 1 7q-1 2 -1 3.5t-1 3.5q-1 1 -2.5 1.5t-1.5 2.5q-3 3 -6 3l-25 6zM1053 -99v-5.5t2 -7.5q3 -8 10 -13q1 -1 3.5 -2.5t4.5 -3.5q3 0 6.5 -1t5.5 -1h14h9h2q2 0 4 -2q3 0 3 -2h3v-5q0 -2 -0.5 -3t-0.5 -2v-1q-2 0 -3 -3 t-2 -3q-2 -2 -6 -2q0 -1 -2 -1h-3q-2 0 -3 0.5t-3 0.5h-6h-9l-4 -2q-1 0 -1 -1.5t-1 -1.5l-5 -8q1 -4 3 -5.5t4 -4.5q3 -1 7 -2t7 -1q8 -3 12 -2q3 0 7 1t8 1q3 2 6.5 3.5t8.5 4.5q4 4 5.5 6t4.5 7q1 4 3 7t2 9q0 4 -0.5 7.5t-3.5 6.5q0 8 -5 11q-2 6 -10 8l-11 6h-15h-7 h-10h-2v1q-3 3 -3 4l-2 1q2 1 2 4q0 1 1 1h2q0 1 6 1v3h1h5h3q4 0 4 1q4 0 8 1q0 2 1 3t1 2l5 10l-7 3q-8 4 -12 4q-2 0 -4.5 1t-4.5 1q-4 0 -6.5 -1t-4.5 -1l-13 -7q-2 -2 -4 -4.5t-3 -6.5q-7 -6 -7 -14zM1097 1038v13q0 11 6 22q1 4 3.5 7.5t5.5 6.5q2 3 5 6t6 5q3 3 7 4 t9 3q4 3 14 3h15q9 -1 18 -6q7 -3 14 -8q3 -4 5.5 -7.5t4.5 -5.5q2 -3 3.5 -6.5t4.5 -7.5q1 -4 2 -7.5t1 -7.5v-8t-2 -9q-1 -4 -1.5 -7.5t-4.5 -7.5l-3.5 -7l-3.5 -7q-4 -3 -7 -5.5t-5 -6.5q-4 -2 -7 -4t-7 -4q-6 0 -17 -2q-12 0 -17 1t-16 5q-11 6 -18 16q-8 9 -13 21 q-2 6 -2 11zM1115 1043q0 -2 1 -5t2 -5q1 -6 4 -10q2 -2 3.5 -4t3.5 -3q3 -4 10 -6q7 -4 11 -4h11q7 0 13 1q4 4 8 4q3 2 5 4t4 3q2 3 3 5.5t3 4.5q2 4 2.5 8t1.5 10q0 4 -0.5 7.5t-0.5 7.5q-2 4 -4.5 7.5t-4.5 5.5q-7 7 -14 10q-2 2 -5.5 2.5t-6.5 2.5h-10q-7 0 -10 -3 q-4 -2 -6 -2.5t-4 -1.5q-2 -2 -4.5 -4t-3.5 -4q-7 -5 -7 -8q-2 -3 -2.5 -6t-2.5 -6v-11zM1163 -135v-2q0 -3 1 -4q0 -1 1 -1q0 -6 3 -6q2 -5 8 -6h6q5 0 7 2q1 2 3 3t2 3v2q0 2 2 2l3 3v2q0 6 -5 6q0 6 -3 6q-2 3 -4 3t-3.5 1t-3.5 1q-1 -2 -6 -2l-8 -4q-1 -1 -1 -3v-2 q-2 -2 -2 -4zM1176 -43v-16q0 -4 1.5 -7.5t1.5 -7.5l6 -15q3 -4 6 -6t5 -5l14 -11l13 -2q5 -2 16 -2q4 0 7 1t7 2q5 1 9 4t7 6l5 2.5t5 4.5q3 1 5 4t5 6l4 14q4 4 4 14l-12 2h-6l-7 -4q-2 0 -3 -3t-1 -5l-5 -9l-10 -6q-4 -2 -6 -3.5t-5 -1.5q-7 -3 -13 0q-2 2 -5 2.5t-6 2.5 q-6 4 -8 11q-5 2 -5 12q-4 3 0 14q0 2 0.5 4t1.5 7l4 4t6 3q7 4 9 4q3 1 10 1q2 0 10 5q2 3 5 5l2 6v9q-3 4 -12 4h-13l-15 -5l-11 -5q-2 -2 -5.5 -4.5t-6.5 -6.5q-2 -2 -4 -6l-4 -8zM1252 913l41 127l10 -8q1 -2 2 -3.5t3 -3.5q0 -5 -2 -8l-28 -88l84 39q1 1 8 1q4 0 6 -3 l10 -9l-119 -55zM1263 11q0 -4 2 -8l4 -14l10 -13l14 -10q4 -1 7.5 -3.5t8.5 -2.5q4 0 7.5 -1.5t7.5 -1.5q2 0 6 1.5t9 1.5q2 0 6 2.5t8 3.5q7 3 13 10l10 13q1 2 3 5.5t2 8.5q1 4 1 14v17l-6 12q-2 4 -4 7.5t-4 6.5l-13 14l-16 3q-4 3 -15 3q-4 0 -7.5 -0.5t-7.5 -2.5 l-14 -3q-4 -3 -8 -7l-7 -7l-4 -6t-4 -5q-3 -4 -4 -7.5t-3 -7.5q0 -4 -1 -7.5t-1 -8.5v-7zM1292 18q0 8 1 12q3 8 7 12l12 8q3 0 6 0.5t6 0.5q4 0 12 -2q2 -2 4.5 -3.5t6.5 -5.5q3 -1 4.5 -4t3.5 -6t2 -13v-5.5t-2 -5.5q-4 -9 -8 -10q-7 -7 -11 -8q-3 -2 -6.5 -2h-5.5 q-4 0 -7 1t-5 1l-12 8q-4 4 -7 11q-1 4 -1 11zM1304 866l92 78l49 -57l-14 -15l-38 46l-23 -20l29 -37l-17 -11l-27 36l-25 -22l36 -43l-15 -12zM1324 100l98 -66l17 22l-47 34l61 -13l11 20l-33 51l48 -30l15 24l-100 66l-13 -18q-1 -2 -2.5 -4t-1.5 -6q0 -2 1.5 -4t2.5 -4 l41 -59l-70 10h-11l-9 -6zM1357 800l103 62l24 -38q2 -3 2.5 -6t2.5 -8q2 -7 -2 -12q-2 -9 -5 -14l-4.5 -4.5t-7.5 -5.5q-3 -1 -5 -1.5t-5 -1.5q-3 0 -5 -1t-5 1q-4 0 -10 2q-3 1 -5 2t-4 3l-24 -60l-9 13q-4 2 -4 7q0 7 3 10l20 49l-8 12l-43 -26zM1411 705q0 3 2 13 q0 3 3 5l2 4q0 4 2 4q4 2 3 2l4 -2q3 -5 6 -6q0 -2 0.5 -3t0.5 -2q0 -4 -3 -7v-1v-7q0 -5 2 -10q0 -1 1 -2.5t2 -3.5q2 -1 3.5 -2.5t3.5 -2.5q1 -1 2.5 -1t3.5 -2h4.5t4.5 2q2 0 5 3q2 4 2 5q1 3 1 8v8v4v12q0 8 2 13q1 2 3 4.5t4 5.5q3 2 5 4t6 4q8 3 14 2q6 0 12 -4 q3 -2 7 -4t6 -6q3 -3 6 -11q2 -6 2 -10q0 -6 -1 -10q0 -4 -3 -11q-1 -2 -1 -4t-2 -4l-6 4q-3 1 -4.5 2.5l-3.5 3.5q-1 3 -1.5 5t0.5 5q1 1 1 8q0 3 -1 5q-2 2 -2 6q-3 0 -5 4q-2 1 -5 1q-3 1 -5 0t-2.5 -2t-1.5 -2t-2 -1.5t-2 -2.5v-7v-10v-3v-2v-11q0 -2 -0.5 -4.5 t-0.5 -4.5q-4 -14 -20 -21q-4 -2 -7.5 -3.5t-8.5 1.5q-6 0 -14 2q-3 3 -7 5t-6 6q-3 2 -5 5.5t-4 7.5q-2 10 -2 16zM1425 818l14 -19q3 -5 4 -6q1 0 6 -3h6q2 0 5 3q2 0 6 4q0 2 1 3t1 3q1 1 1 6q-1 1 -1 2.5t-2 3.5l-11 20zM1433 640l116 35l5 -20l-116 -33zM1450 552 q-1 13 1 25q5 12 10 20q7 9 19 16q5 3 11 6t11 3h20q6 0 14 -5q4 -1 7.5 -3.5t5.5 -4.5q3 -2 7 -4.5t6 -6.5q4 -8 8 -12q2 -8 4 -19v-15q-2 -10 -4 -15t-4 -9t-4 -7l-11 -10q-4 -4 -7.5 -5t-6.5 -3q-7 -4 -15 -4q-10 -1 -20 0q-8 0 -15 4q-2 2 -5.5 3t-7.5 4q-3 2 -6 5.5 t-5 5.5q-6 5 -8 16q-2 3 -3.5 6.5t-1.5 8.5zM1451 380l2 16l98 62l-93 6l1 19l121 -9l-1 -12q0 -5 -1 -8q-3 -3 -4 -5l-83 -53l84 -6l-2 -19zM1469 555q2 -8 5 -11q0 -6 5 -9q1 -3 3 -5.5t3 -4.5q3 -1 5 -2.5t5 -2.5q2 -2 5 -2h5q5 -3 12 0q11 0 17 5q5 2 12 12q6 8 6 15 q3 7 1 16q0 6 -2 11q-2 3 -3 5l-2 4l-4 4t-4 3q-5 4 -10 5q-3 4 -11 4q-5 2 -12 0q-7 0 -10 -4q-5 -1 -10 -5q-4 -1 -6 -7q-5 -5 -5 -9q-2 -2 -3 -5.5t-2 -5.5v-11z" />
<glyph unicode="&#xa3;" d="M125 431v6.5t1 5.5q2 8 2 14q2 3 3.5 5.5t3.5 5.5q2 2 3.5 5t3.5 5l4 -4q2 -1 3.5 -2t2.5 -1q1 -3 1 -7v-4t-2 -3q-4 -5 -5 -12q-1 -5 -1 -13t3 -17q3 -4 6 -7.5t5 -6.5q5 -5 14 -7q7 -4 17 -3q6 0 13 3l4 2t4 3t4.5 3t4.5 5q1 2 2.5 4t3.5 4q0 4 1 6.5t2 5.5q1 4 1 11 q-1 3 -1.5 7t-2.5 8q0 3 -5 10l-18 -1v-5v-5q0 -2 -3 -6q-1 -1 -1.5 -2t-2.5 -2t-7 -1h-6l-3 38l51 3q2 -2 5 -4t4 -4q2 -2 3.5 -5t1.5 -5q1 -7 4 -12q0 -3 0.5 -6.5t0.5 -5.5q0 -8 -0.5 -14t-3.5 -11q-1 -7 -4 -12.5t-8 -10.5q-7 -9 -19 -13q-11 -7 -22 -7h-19 q-4 2 -7.5 3.5t-7.5 3.5q-4 1 -6.5 3t-6.5 4l-6 6t-5 7q-2 2 -3.5 6t-3.5 8q-1 5 -1.5 9t-1.5 9zM125 506l8 77l20 -1l-7 -58l31 -4l5 47l21 -1l-5 -47l31 -3l5 58l21 -3l-9 -77zM135 597l23 91l19 -5l-10 -38l99 -23l-4 -19l-99 25l-10 -36zM177 740l42 84l17 -8l-16 -33 l91 -46l-8 -17l-92 46l-16 -35zM205 160l46 -80l23 14l-25 46l84 -10q2 0 6 1q2 0 2.5 0.5t2.5 0.5l11 8l-46 79l-23 -14l26 -45l-84 9q-2 0 -5.5 -0.5t-7.5 -3.5zM229 844l12 15l41 -30l35 49l-41 30l12 17l98 -73l-11 -16l-41 30l-36 -48l42 -31l-11 -15zM270 53l53 -59 l19 18l-33 38l18 11l23 -31l23 19l-28 31l14 11l32 -40l22 19l-51 61zM298 471q0 -105 40.5 -200.5t111 -167.5t167.5 -115t209 -43q36 0 72 5.5t70 15.5q80 24 150 70t122 111.5t82.5 147.5t30.5 176q0 103 -39.5 199t-109.5 169t-167 117t-211 44q-106 0 -202 -40 t-168 -111.5t-115 -168t-43 -209.5zM311 949l55 55l14 -16l-40 -40l20 -21l34 31l14 -14l-33 -31l21 -23l42 40l14 -16l-56 -53zM344 471q0 96 36 183.5t100.5 155t153 106.5t192.5 39q69 0 127 -17q74 -19 138.5 -61t113 -102.5t77 -137.5t28.5 -166q0 -100 -38 -188.5 t-104 -155t-154.5 -104t-187.5 -37.5q-102 0 -190 39.5t-153 106t-102 154.5t-37 185zM369 -50l20 -19l62 71l23 -21l18 20l-71 60l-21 -21l28 -22zM390 471q0 -84 29.5 -158.5t79.5 -134.5l568 570h-578q-47 -56 -73 -125.5t-26 -151.5zM412 -90l16 -9q0 -1 2 -1h3 q2 0 2.5 -0.5t2.5 0.5h5q3 0 4 1l12 9l40 -23l-2 -15v-5q0 -2 1 -3q0 -1 1 -1v-3q0 -2 2 -2l4 -3l16 -11l18 128l-23 14zM427 1048l65 41l9 -17l-47 -31l17 -26l40 25l10 -17l-40 -25l25 -43l-14 -11zM484 -74l17 15h2q2 0 2 1v1v1h1q1 1 2 1l-3 -2v-2v-3l-2 -23zM511 1100 l18 8l31 -68q0 -7 6 -10q1 -3 9 -7q2 -1 5.5 -1h5.5q6 -1 11 1q7 3 10 7q5 5 6 10q1 2 1 11q0 7 -1 11l-27 68l17 9l30 -70q1 -5 1.5 -9t0.5 -9q0 -10 -3 -20q-2 -4 -4.5 -7.5t-7.5 -6.5q-2 -5 -6 -7t-9 -4t-9.5 -3.5t-9.5 -1.5q-8 0 -19 5q-5 2 -8.5 4t-6.5 6q-7 7 -10 16z M534 797h579q-55 51 -129 81t-158 30q-85 0 -159 -29.5t-133 -81.5zM536 146q58 -50 131.5 -80.5t158.5 -30.5q84 0 159 30.5t134 80.5h-583zM539 -161l26 -12l16 42l39 -15l10 26l-38 15l6 18l49 -18l8 25l-73 27zM585 194h577q46 56 72 126.5t26 150.5q0 82 -27.5 153.5 t-82.5 142.5zM633 1146l20 5l23 -99l50 11l4 -21l-67 -15zM639 -137v-19l3 -15l6 -13l11 -12q3 -4 7.5 -5.5t6.5 -3.5q7 -4 15 -4q5 -1 8.5 -1h8.5t13 2q4 2 8.5 3t6.5 4q6 2 12 11l9 11q4 7 7 17v16q0 3 -1 6.5t-3 8.5q-1 5 -2.5 7.5t-3.5 6.5l-10 12q-3 3 -6.5 5t-7.5 4 t-7 2.5t-8 2.5q-5 1 -9 1h-8q-10 0 -14 -4q-4 -1 -7.5 -2t-7.5 -4l-12 -11q-4 -8 -10 -11q-2 -5 -3.5 -8.5t-1.5 -6.5zM670 -142q0 6 5 11l6 9l13 5h12l12 -5l9 -9q2 -3 3.5 -5t1.5 -6q2 -9 0 -15q0 -3 -1.5 -6.5t-3.5 -5.5q-3 -4 -4.5 -5.5l-4.5 -4.5q-3 -1 -5.5 -2 t-6.5 -1q-6 -3 -12 0q-4 0 -7.5 1t-5.5 2l-8 10q-2 2 -2.5 5.5t-0.5 6.5q-3 5 0 15zM721 1164l20 2l11 -100l52 5v-20l-71 -9zM769 -102l3 -122l28 1v81l52 -81h26v121h-31l4 -77q-1 0 -1 4q0 1 -1.5 1t-1.5 1q0 4 -1 4l-42 61q0 1 -2 3q-2 3 -9 3h-10h-14zM850 1051l12 120 l45 -5q6 0 15 -4q9 -5 11 -10q4 -3 7 -13q3 -7 2 -15q-2 -4 -2.5 -7.5t-2.5 -8.5q-6 -8 -9 -11q-4 -3 -15 -7q-3 -1 -13 -1l-26 3l-5 -44zM876 1110l25 -2h7q3 1 7 6q3 0 4 5q2 1 4 7q0 5 -1 8q-1 2 -2 3.5t-1 2.5q-2 2 -3.5 3t-3.5 2t-3.5 1t-2.5 1l-25 3zM888 -101l4 -27 l35 6l16 -91l27 5l-17 91l32 6l-5 26zM939 1040l32 116l44 -11q6 0 12 -6q5 -4 9 -11q4 -5 4 -13q1 -5 0.5 -8t-0.5 -7q-2 -5 -5 -10t-6 -8q-7 -5 -10 -5q-2 -2 -4.5 -2.5t-4.5 -1.5l22 -58l-15 2q-2 1 -3.5 2.5t-3.5 2.5q-3 1 -5 8l-20 47l-14 4l-13 -46zM976 1100l24 -6 q2 0 3.5 -0.5t3.5 0.5q2 0 3.5 0.5t3.5 0.5t2 1.5t1 2.5q4 4 4 6q1 3 1 7q-1 2 -1 3.5t-1 3.5q-1 1 -2.5 1.5t-1.5 2.5q-3 3 -6 3l-25 6zM996 -99v-5.5t2 -7.5q3 -8 11 -13q1 -1 3.5 -2.5t4.5 -3.5q3 0 6.5 -1t5.5 -1h13h10h2q2 0 4 -2q3 0 3 -2h3v-5q0 -2 -0.5 -3t-0.5 -2 v-1q-2 0 -3 -3t-2 -3q-2 -2 -6 -2q0 -1 -2 -1h-3q-2 0 -3.5 0.5t-3.5 0.5h-6h-8l-4 -2q-1 0 -1 -1.5t-1 -1.5l-5 -8q1 -4 3 -5.5t4 -4.5q3 -1 6.5 -2t6.5 -1q8 -3 13 -2q3 0 7 1t8 1q3 2 6.5 3.5t7.5 4.5q4 4 5.5 6t4.5 7q1 4 3.5 7t2.5 9q0 4 -0.5 7.5t-3.5 6.5q-1 8 -6 11 q-2 6 -9 8l-11 6h-15h-8h-9h-2v1q-3 3 -3 4l-2 1q2 1 2 4q0 1 1 1h2q0 1 5 1v3h1h5h3q4 0 5 1q4 0 8 1q0 2 1 3t1 2l5 10l-7 3q-8 4 -13 4q-2 0 -4.5 1t-4.5 1q-4 0 -6 -1t-4 -1l-13 -7q-2 -2 -4 -4.5t-3 -6.5q-7 -6 -8 -14zM1040 1038v13q1 11 7 22q1 4 3.5 7.5t5.5 6.5 q2 3 5 6t6 5q3 3 6.5 4t8.5 3q4 3 15 3h15q9 -1 17 -6q7 -3 15 -8q3 -4 5.5 -7.5t4.5 -5.5q2 -3 3.5 -6.5t3.5 -7.5q1 -4 2 -7.5t1 -7.5v-8t-2 -9q-1 -4 -1.5 -7.5t-3.5 -7.5l-3.5 -7l-3.5 -7q-4 -3 -7 -5.5t-5 -6.5q-4 -2 -7.5 -4t-7.5 -4q-6 0 -16 -2q-12 0 -17 1t-16 5 q-11 6 -18 16q-8 9 -14 21q-2 6 -2 11zM1059 1043q0 -2 1 -5t2 -5q1 -6 4 -10q2 -2 3.5 -4t3.5 -3q3 -4 9 -6q7 -4 12 -4h11q7 0 12 1q4 4 8 4q3 2 5.5 4t4.5 3q2 3 3 5.5t3 4.5q2 4 2.5 8t1.5 10q0 4 -0.5 7.5t-0.5 7.5q-2 4 -4.5 7.5t-4.5 5.5q-7 7 -15 10q-2 2 -5 2.5 t-6 2.5h-10q-7 0 -10 -3q-4 -2 -6.5 -2.5t-4.5 -1.5l-4 -4t-3 -4q-7 -5 -7 -8q-2 -3 -2.5 -6t-2.5 -6v-11zM1107 -135v-2q0 -3 1 -4q0 -1 1 -1q0 -6 3 -6q2 -5 7 -6h6q5 0 8 2q1 2 3 3t2 3v2q0 2 2 2l3 3v2q0 6 -5 6q0 6 -3 6q-2 3 -5 3q-2 0 -3.5 1t-3.5 1q-1 -2 -6 -2 l-7 -4q-1 -1 -1 -3v-2q-2 -2 -2 -4zM1119 -43v-16q0 -4 1.5 -7.5t1.5 -7.5l6 -15q3 -4 6.5 -6t5.5 -5l14 -11l12 -2q5 -2 17 -2q4 0 7 1t7 2q5 1 8.5 4t6.5 6q2 1 5.5 2.5t5.5 4.5q3 1 5 4t5 6l4 14q4 4 4 14l-12 2h-6l-8 -4q-2 0 -3 -3t-1 -5l-5 -9l-9 -6q-4 -2 -6 -3.5 t-5 -1.5q-7 -3 -14 0q-2 2 -5 2.5t-6 2.5q-6 4 -7 11q-5 2 -5 12q-4 3 0 14q0 2 0.5 4t1.5 7l4 4t5 3q7 4 9 4q3 1 11 1q2 0 10 5q2 3 5 5l2 6v9q-3 4 -12 4h-14l-14 -5l-11 -5q-2 -2 -5.5 -4.5t-6.5 -6.5q-2 -2 -4.5 -6t-4.5 -8zM1196 913l41 127l9 -8q1 -2 2 -3.5t3 -3.5 q0 -5 -2 -8l-27 -88l84 39q1 1 8 1q4 0 6 -3l10 -9l-120 -55zM1206 11q0 -4 2 -8l4 -14l11 -13l14 -10q4 -1 7 -3.5t8 -2.5q4 0 8 -1.5t8 -1.5q2 0 6 1.5t9 1.5q2 0 5.5 2.5t7.5 3.5q7 3 14 10l10 13q1 2 3 5.5t2 8.5q1 4 1 14v17l-6 12q-2 4 -4 7.5t-4 6.5l-14 14l-15 3 q-4 3 -15 3q-4 0 -8 -0.5t-8 -2.5l-13 -3q-4 -3 -8 -7l-7 -7l-4 -6t-5 -5q-3 -4 -4 -7.5t-3 -7.5q0 -4 -1 -7.5t-1 -8.5v-7zM1236 18q0 8 1 12q3 8 7 12l11 8q3 0 6.5 0.5t6.5 0.5q4 0 12 -2q2 -2 4.5 -3.5t5.5 -5.5q3 -1 4.5 -4t3.5 -6t2 -13v-5.5t-2 -5.5q-4 -9 -8 -10 q-7 -7 -10 -8q-3 -2 -6.5 -2h-5.5q-4 0 -7.5 1t-5.5 1l-11 8q-4 4 -7 11q-1 4 -1 11zM1247 866l92 78l50 -57l-15 -15l-38 46l-22 -20l28 -37l-16 -11l-28 36l-24 -22l36 -43l-16 -12zM1268 100l98 -66l16 22l-47 34l62 -13l11 20l-34 51l48 -30l16 24l-101 66l-12 -18 q-1 -2 -2.5 -4t-1.5 -6q0 -2 1.5 -4t2.5 -4l41 -59l-71 10h-10l-9 -6zM1300 800l104 62l23 -38q2 -3 3 -6t3 -8q2 -7 -2 -12q-2 -9 -6 -14l-4.5 -4.5t-6.5 -5.5q-3 -1 -5 -1.5t-5 -1.5q-3 0 -5 -1t-5 1q-4 0 -11 2q-3 1 -5 2t-4 3l-23 -60l-10 13q-4 2 -4 7q0 7 3 10l21 49 l-8 12l-43 -26zM1355 705q0 3 2 13q0 3 3 5l2 4q0 4 2 4q4 2 3 2l4 -2q3 -5 5 -6q0 -2 0.5 -3t0.5 -2q0 -4 -3 -7v-1v-7q0 -5 2 -10q0 -1 1 -2.5t2 -3.5q2 -1 3.5 -2.5t3.5 -2.5q1 -1 3 -1t4 -2h4.5t4.5 2q2 0 5 3q2 4 2 5q1 3 1 8v8v4v12q0 8 2 13q1 2 2.5 4.5t3.5 5.5 q3 2 5 4t7 4q8 3 14 2q6 0 12 -4q3 -2 6.5 -4t5.5 -6q3 -3 7 -11q2 -6 2 -10q0 -6 -1 -10q0 -4 -3 -11q-1 -2 -1.5 -4t-2.5 -4l-6 4q-3 1 -4 2.5t-3 3.5q-1 3 -1.5 5t0.5 5q1 1 1 8q0 3 -1 5q-2 2 -2 6q-3 0 -5 4q-2 1 -5 1q-3 1 -5 0t-2.5 -2t-1.5 -2t-2 -1.5t-2 -2.5v-7 v-10v-3v-2v-11q0 -2 -1 -4.5t-1 -4.5q-4 -14 -19 -21q-4 -2 -7.5 -3.5t-8.5 1.5q-6 0 -15 2q-3 3 -6.5 5t-5.5 6q-3 2 -5 5.5t-4 7.5q-2 10 -2 16zM1369 818l13 -19q3 -5 4 -6q1 0 7 -3h6q2 0 5 3q2 0 6 4q0 2 1 3t1 3q1 1 1 6q-1 1 -1 2.5t-2 3.5l-11 20zM1376 640l117 35 l5 -20l-117 -33zM1394 552q-1 13 1 25q5 12 10 20q7 9 18 16q5 3 11.5 6t11.5 3h19q6 0 15 -5q4 -1 7.5 -3.5t5.5 -4.5q3 -2 6.5 -4.5t5.5 -6.5q4 -8 8 -12q2 -8 5 -19v-15q-2 -10 -5 -15q-2 -5 -4 -9t-4 -7l-10 -10q-4 -4 -7.5 -5t-6.5 -3q-7 -4 -16 -4q-10 -1 -19 0 q-8 0 -15 4q-2 2 -6 3t-8 4q-3 2 -5.5 5.5t-4.5 5.5q-6 5 -8 16q-2 3 -3.5 6.5t-1.5 8.5zM1395 380l2 16l98 62l-93 6l1 19l121 -9l-1 -12q0 -5 -1 -8q-3 -3 -4 -5l-83 -53l84 -6l-2 -19zM1413 555q2 -8 4 -11q0 -6 5 -9q1 -3 3 -5.5t3 -4.5q3 -1 5.5 -2.5t5.5 -2.5 q2 -2 5 -2h5q5 -3 11 0q11 0 18 5q5 2 12 12q6 8 6 15q3 7 1 16q0 6 -2 11q-2 3 -3 5l-2 4l-4 4t-4 3q-5 4 -11 5q-3 4 -11 4q-4 2 -11 0q-7 0 -10 -4q-5 -1 -11 -5q-4 -1 -6 -7q-5 -5 -5 -9q-2 -2 -2.5 -5.5t-1.5 -5.5v-11z" />
<glyph unicode="&#xa4;" d="M125 431v6.5t1 5.5q2 8 2 14q2 3 3.5 5.5t3.5 5.5q2 2 3.5 5t3.5 5l4 -4q2 -1 3.5 -2t2.5 -1q1 -3 1 -7v-4t-2 -3q-4 -5 -5 -12q-1 -5 -1 -13t3 -17q3 -4 6 -7.5t5 -6.5q5 -5 14 -7q7 -4 17 -3q6 0 13 3l4 2t4 3t4.5 3t4.5 5q1 2 2.5 4t3.5 4q0 4 1 6.5t2 5.5q1 4 1 11 q-1 3 -1.5 7t-2.5 8q0 3 -5 10l-18 -1v-5v-5q0 -2 -3 -6q-1 -1 -1.5 -2t-2.5 -2t-7 -1h-6l-3 38l51 3q2 -2 5 -4t4 -4q2 -2 3.5 -5t1.5 -5q1 -7 4 -12q0 -3 0.5 -6.5t0.5 -5.5q0 -8 -0.5 -14t-3.5 -11q-1 -7 -4 -12.5t-8 -10.5q-7 -9 -19 -13q-11 -7 -22 -7h-19 q-4 2 -7.5 3.5t-7.5 3.5q-4 1 -6.5 3t-6.5 4l-6 6t-5 7q-2 2 -3.5 6t-3.5 8q-1 5 -1.5 9t-1.5 9zM125 506l8 77l20 -1l-7 -58l31 -4l5 47l21 -1l-5 -47l31 -3l5 58l21 -3l-9 -77zM135 597l23 91l19 -5l-10 -38l99 -23l-4 -19l-99 25l-10 -36zM177 740l42 84l17 -8l-16 -33 l91 -46l-8 -17l-92 46l-16 -35zM205 160l46 -80l23 14l-25 46l84 -10q2 0 6 1q2 0 2.5 0.5t2.5 0.5l11 8l-46 79l-23 -14l26 -45l-84 9q-2 0 -5.5 -0.5t-7.5 -3.5zM229 844l12 15l41 -30l35 49l-41 30l12 17l98 -73l-11 -16l-41 30l-36 -48l42 -31l-11 -15zM270 53l53 -59 l19 18l-33 38l18 11l23 -31l23 19l-28 31l14 11l32 -40l22 19l-51 61zM298 471q0 -105 40.5 -200.5t111 -167.5t167.5 -115t209 -43q36 0 72 5.5t70 15.5q80 24 150 70t122 111.5t82.5 147.5t30.5 176q0 103 -39.5 199t-109.5 169t-167 117t-211 44q-106 0 -202 -40 t-168 -111.5t-115 -168t-43 -209.5zM311 949l55 55l14 -16l-40 -40l20 -21l34 31l14 -14l-33 -31l21 -23l42 40l14 -16l-56 -53zM344 471q0 96 36 183.5t100.5 155t153 106.5t192.5 39q69 0 127 -17q74 -19 138.5 -61t113 -102.5t77 -137.5t28.5 -166q0 -100 -38 -188.5 t-104 -155t-154.5 -104t-187.5 -37.5q-102 0 -190 39.5t-153 106t-102 154.5t-37 185zM369 -50l20 -19l62 71l23 -21l18 20l-71 60l-21 -21l28 -22zM390 471q0 -84 29.5 -158.5t79.5 -134.5l568 570h-578q-47 -56 -73 -125.5t-26 -151.5zM412 -90l16 -9q0 -1 2 -1h3 q2 0 2.5 -0.5t2.5 0.5h5q3 0 4 1l12 9l40 -23l-2 -15v-5q0 -2 1 -3q0 -1 1 -1v-3q0 -2 2 -2l4 -3l16 -11l18 128l-23 14zM427 1048l65 41l9 -17l-47 -31l17 -26l40 25l10 -17l-40 -25l25 -43l-14 -11zM484 -74l17 15h2q2 0 2 1v1v1h1q1 1 2 1l-3 -2v-2v-3l-2 -23zM511 1100 l18 8l31 -68q0 -7 6 -10q1 -3 9 -7q2 -1 5.5 -1h5.5q6 -1 11 1q7 3 10 7q5 5 6 10q1 2 1 11q0 7 -1 11l-27 68l17 9l30 -70q1 -5 1.5 -9t0.5 -9q0 -10 -3 -20q-2 -4 -4.5 -7.5t-7.5 -6.5q-2 -5 -6 -7t-9 -4t-9.5 -3.5t-9.5 -1.5q-8 0 -19 5q-5 2 -8.5 4t-6.5 6q-7 7 -10 16z M534 797h579q-55 51 -129 81t-158 30q-85 0 -159 -29.5t-133 -81.5zM536 146q58 -50 131.5 -80.5t158.5 -30.5q84 0 159 30.5t134 80.5h-583zM539 -161l26 -12l16 42l39 -15l10 26l-38 15l6 18l49 -18l8 25l-73 27zM585 194h577q46 56 72 126.5t26 150.5q0 82 -27.5 153.5 t-82.5 142.5zM633 1146l20 5l23 -99l50 11l4 -21l-67 -15zM639 -137v-19l3 -15l6 -13l11 -12q3 -4 7.5 -5.5t6.5 -3.5q7 -4 15 -4q5 -1 8.5 -1h8.5t13 2q4 2 8.5 3t6.5 4q6 2 12 11l9 11q4 7 7 17v16q0 3 -1 6.5t-3 8.5q-1 5 -2.5 7.5t-3.5 6.5l-10 12q-3 3 -6.5 5t-7.5 4 t-7 2.5t-8 2.5q-5 1 -9 1h-8q-10 0 -14 -4q-4 -1 -7.5 -2t-7.5 -4l-12 -11q-4 -8 -10 -11q-2 -5 -3.5 -8.5t-1.5 -6.5zM670 -142q0 6 5 11l6 9l13 5h12l12 -5l9 -9q2 -3 3.5 -5t1.5 -6q2 -9 0 -15q0 -3 -1.5 -6.5t-3.5 -5.5q-3 -4 -4.5 -5.5l-4.5 -4.5q-3 -1 -5.5 -2 t-6.5 -1q-6 -3 -12 0q-4 0 -7.5 1t-5.5 2l-8 10q-2 2 -2.5 5.5t-0.5 6.5q-3 5 0 15zM721 1164l20 2l11 -100l52 5v-20l-71 -9zM769 -102l3 -122l28 1v81l52 -81h26v121h-31l4 -77q-1 0 -1 4q0 1 -1.5 1t-1.5 1q0 4 -1 4l-42 61q0 1 -2 3q-2 3 -9 3h-10h-14zM850 1051l12 120 l45 -5q6 0 15 -4q9 -5 11 -10q4 -3 7 -13q3 -7 2 -15q-2 -4 -2.5 -7.5t-2.5 -8.5q-6 -8 -9 -11q-4 -3 -15 -7q-3 -1 -13 -1l-26 3l-5 -44zM876 1110l25 -2h7q3 1 7 6q3 0 4 5q2 1 4 7q0 5 -1 8q-1 2 -2 3.5t-1 2.5q-2 2 -3.5 3t-3.5 2t-3.5 1t-2.5 1l-25 3zM888 -101l4 -27 l35 6l16 -91l27 5l-17 91l32 6l-5 26zM939 1040l32 116l44 -11q6 0 12 -6q5 -4 9 -11q4 -5 4 -13q1 -5 0.5 -8t-0.5 -7q-2 -5 -5 -10t-6 -8q-7 -5 -10 -5q-2 -2 -4.5 -2.5t-4.5 -1.5l22 -58l-15 2q-2 1 -3.5 2.5t-3.5 2.5q-3 1 -5 8l-20 47l-14 4l-13 -46zM976 1100l24 -6 q2 0 3.5 -0.5t3.5 0.5q2 0 3.5 0.5t3.5 0.5t2 1.5t1 2.5q4 4 4 6q1 3 1 7q-1 2 -1 3.5t-1 3.5q-1 1 -2.5 1.5t-1.5 2.5q-3 3 -6 3l-25 6zM996 -99v-5.5t2 -7.5q3 -8 11 -13q1 -1 3.5 -2.5t4.5 -3.5q3 0 6.5 -1t5.5 -1h13h10h2q2 0 4 -2q3 0 3 -2h3v-5q0 -2 -0.5 -3t-0.5 -2 v-1q-2 0 -3 -3t-2 -3q-2 -2 -6 -2q0 -1 -2 -1h-3q-2 0 -3.5 0.5t-3.5 0.5h-6h-8l-4 -2q-1 0 -1 -1.5t-1 -1.5l-5 -8q1 -4 3 -5.5t4 -4.5q3 -1 6.5 -2t6.5 -1q8 -3 13 -2q3 0 7 1t8 1q3 2 6.5 3.5t7.5 4.5q4 4 5.5 6t4.5 7q1 4 3.5 7t2.5 9q0 4 -0.5 7.5t-3.5 6.5q-1 8 -6 11 q-2 6 -9 8l-11 6h-15h-8h-9h-2v1q-3 3 -3 4l-2 1q2 1 2 4q0 1 1 1h2q0 1 5 1v3h1h5h3q4 0 5 1q4 0 8 1q0 2 1 3t1 2l5 10l-7 3q-8 4 -13 4q-2 0 -4.5 1t-4.5 1q-4 0 -6 -1t-4 -1l-13 -7q-2 -2 -4 -4.5t-3 -6.5q-7 -6 -8 -14zM1040 1038v13q1 11 7 22q1 4 3.5 7.5t5.5 6.5 q2 3 5 6t6 5q3 3 6.5 4t8.5 3q4 3 15 3h15q9 -1 17 -6q7 -3 15 -8q3 -4 5.5 -7.5t4.5 -5.5q2 -3 3.5 -6.5t3.5 -7.5q1 -4 2 -7.5t1 -7.5v-8t-2 -9q-1 -4 -1.5 -7.5t-3.5 -7.5l-3.5 -7l-3.5 -7q-4 -3 -7 -5.5t-5 -6.5q-4 -2 -7.5 -4t-7.5 -4q-6 0 -16 -2q-12 0 -17 1t-16 5 q-11 6 -18 16q-8 9 -14 21q-2 6 -2 11zM1059 1043q0 -2 1 -5t2 -5q1 -6 4 -10q2 -2 3.5 -4t3.5 -3q3 -4 9 -6q7 -4 12 -4h11q7 0 12 1q4 4 8 4q3 2 5.5 4t4.5 3q2 3 3 5.5t3 4.5q2 4 2.5 8t1.5 10q0 4 -0.5 7.5t-0.5 7.5q-2 4 -4.5 7.5t-4.5 5.5q-7 7 -15 10q-2 2 -5 2.5 t-6 2.5h-10q-7 0 -10 -3q-4 -2 -6.5 -2.5t-4.5 -1.5l-4 -4t-3 -4q-7 -5 -7 -8q-2 -3 -2.5 -6t-2.5 -6v-11zM1107 -135v-2q0 -3 1 -4q0 -1 1 -1q0 -6 3 -6q2 -5 7 -6h6q5 0 8 2q1 2 3 3t2 3v2q0 2 2 2l3 3v2q0 6 -5 6q0 6 -3 6q-2 3 -5 3q-2 0 -3.5 1t-3.5 1q-1 -2 -6 -2 l-7 -4q-1 -1 -1 -3v-2q-2 -2 -2 -4zM1119 -43v-16q0 -4 1.5 -7.5t1.5 -7.5l6 -15q3 -4 6.5 -6t5.5 -5l14 -11l12 -2q5 -2 17 -2q4 0 7 1t7 2q5 1 8.5 4t6.5 6q2 1 5.5 2.5t5.5 4.5q3 1 5 4t5 6l4 14q4 4 4 14l-12 2h-6l-8 -4q-2 0 -3 -3t-1 -5l-5 -9l-9 -6q-4 -2 -6 -3.5 t-5 -1.5q-7 -3 -14 0q-2 2 -5 2.5t-6 2.5q-6 4 -7 11q-5 2 -5 12q-4 3 0 14q0 2 0.5 4t1.5 7l4 4t5 3q7 4 9 4q3 1 11 1q2 0 10 5q2 3 5 5l2 6v9q-3 4 -12 4h-14l-14 -5l-11 -5q-2 -2 -5.5 -4.5t-6.5 -6.5q-2 -2 -4.5 -6t-4.5 -8zM1196 913l41 127l9 -8q1 -2 2 -3.5t3 -3.5 q0 -5 -2 -8l-27 -88l84 39q1 1 8 1q4 0 6 -3l10 -9l-120 -55zM1206 11q0 -4 2 -8l4 -14l11 -13l14 -10q4 -1 7 -3.5t8 -2.5q4 0 8 -1.5t8 -1.5q2 0 6 1.5t9 1.5q2 0 5.5 2.5t7.5 3.5q7 3 14 10l10 13q1 2 3 5.5t2 8.5q1 4 1 14v17l-6 12q-2 4 -4 7.5t-4 6.5l-14 14l-15 3 q-4 3 -15 3q-4 0 -8 -0.5t-8 -2.5l-13 -3q-4 -3 -8 -7l-7 -7l-4 -6t-5 -5q-3 -4 -4 -7.5t-3 -7.5q0 -4 -1 -7.5t-1 -8.5v-7zM1236 18q0 8 1 12q3 8 7 12l11 8q3 0 6.5 0.5t6.5 0.5q4 0 12 -2q2 -2 4.5 -3.5t5.5 -5.5q3 -1 4.5 -4t3.5 -6t2 -13v-5.5t-2 -5.5q-4 -9 -8 -10 q-7 -7 -10 -8q-3 -2 -6.5 -2h-5.5q-4 0 -7.5 1t-5.5 1l-11 8q-4 4 -7 11q-1 4 -1 11zM1247 866l92 78l50 -57l-15 -15l-38 46l-22 -20l28 -37l-16 -11l-28 36l-24 -22l36 -43l-16 -12zM1268 100l98 -66l16 22l-47 34l62 -13l11 20l-34 51l48 -30l16 24l-101 66l-12 -18 q-1 -2 -2.5 -4t-1.5 -6q0 -2 1.5 -4t2.5 -4l41 -59l-71 10h-10l-9 -6zM1300 800l104 62l23 -38q2 -3 3 -6t3 -8q2 -7 -2 -12q-2 -9 -6 -14l-4.5 -4.5t-6.5 -5.5q-3 -1 -5 -1.5t-5 -1.5q-3 0 -5 -1t-5 1q-4 0 -11 2q-3 1 -5 2t-4 3l-23 -60l-10 13q-4 2 -4 7q0 7 3 10l21 49 l-8 12l-43 -26zM1355 705q0 3 2 13q0 3 3 5l2 4q0 4 2 4q4 2 3 2l4 -2q3 -5 5 -6q0 -2 0.5 -3t0.5 -2q0 -4 -3 -7v-1v-7q0 -5 2 -10q0 -1 1 -2.5t2 -3.5q2 -1 3.5 -2.5t3.5 -2.5q1 -1 3 -1t4 -2h4.5t4.5 2q2 0 5 3q2 4 2 5q1 3 1 8v8v4v12q0 8 2 13q1 2 2.5 4.5t3.5 5.5 q3 2 5 4t7 4q8 3 14 2q6 0 12 -4q3 -2 6.5 -4t5.5 -6q3 -3 7 -11q2 -6 2 -10q0 -6 -1 -10q0 -4 -3 -11q-1 -2 -1.5 -4t-2.5 -4l-6 4q-3 1 -4 2.5t-3 3.5q-1 3 -1.5 5t0.5 5q1 1 1 8q0 3 -1 5q-2 2 -2 6q-3 0 -5 4q-2 1 -5 1q-3 1 -5 0t-2.5 -2t-1.5 -2t-2 -1.5t-2 -2.5v-7 v-10v-3v-2v-11q0 -2 -1 -4.5t-1 -4.5q-4 -14 -19 -21q-4 -2 -7.5 -3.5t-8.5 1.5q-6 0 -15 2q-3 3 -6.5 5t-5.5 6q-3 2 -5 5.5t-4 7.5q-2 10 -2 16zM1369 818l13 -19q3 -5 4 -6q1 0 7 -3h6q2 0 5 3q2 0 6 4q0 2 1 3t1 3q1 1 1 6q-1 1 -1 2.5t-2 3.5l-11 20zM1376 640l117 35 l5 -20l-117 -33zM1394 552q-1 13 1 25q5 12 10 20q7 9 18 16q5 3 11.5 6t11.5 3h19q6 0 15 -5q4 -1 7.5 -3.5t5.5 -4.5q3 -2 6.5 -4.5t5.5 -6.5q4 -8 8 -12q2 -8 5 -19v-15q-2 -10 -5 -15q-2 -5 -4 -9t-4 -7l-10 -10q-4 -4 -7.5 -5t-6.5 -3q-7 -4 -16 -4q-10 -1 -19 0 q-8 0 -15 4q-2 2 -6 3t-8 4q-3 2 -5.5 5.5t-4.5 5.5q-6 5 -8 16q-2 3 -3.5 6.5t-1.5 8.5zM1395 380l2 16l98 62l-93 6l1 19l121 -9l-1 -12q0 -5 -1 -8q-3 -3 -4 -5l-83 -53l84 -6l-2 -19zM1413 555q2 -8 4 -11q0 -6 5 -9q1 -3 3 -5.5t3 -4.5q3 -1 5.5 -2.5t5.5 -2.5 q2 -2 5 -2h5q5 -3 11 0q11 0 18 5q5 2 12 12q6 8 6 15q3 7 1 16q0 6 -2 11q-2 3 -3 5l-2 4l-4 4t-4 3q-5 4 -11 5q-3 4 -11 4q-4 2 -11 0q-7 0 -10 -4q-5 -1 -11 -5q-4 -1 -6 -7q-5 -5 -5 -9q-2 -2 -2.5 -5.5t-1.5 -5.5v-11z" />
</font>
</defs>
</svg>
