<?xml version="1.0" encoding="utf-8"?>
<!-- Generator: Adobe Illustrator 16.0.0, SVG Export Plug-In . SVG Version: 6.00 Build 0)  -->
<!DOCTYPE svg PUBLIC "-//W3C//DTD SVG 1.1//EN" "http://www.w3.org/Graphics/SVG/1.1/DTD/svg11.dtd">
<svg version="1.1" id="Calque_1" xmlns="http://www.w3.org/2000/svg" xmlns:xlink="http://www.w3.org/1999/xlink" x="0px" y="0px"
	 width="30px" height="24px" viewBox="0 0 30 24" enable-background="new 0 0 30 24" xml:space="preserve">
<path fill="#FFFFFF" d="M5.2,3v18.812H25V3H5.2z M23.5,20.114H6.7V8.356h16.8V20.114z"/>
<rect x="8.333" y="9.5" fill="#FFFFFF" width="2.5" height="2.5"/>
<rect x="12.083" y="9.5" fill="#FFFFFF" width="2.5" height="2.5"/>
<rect x="15.917" y="9.5" fill="#FFFFFF" width="2.5" height="2.5"/>
<rect x="19.583" y="9.5" fill="#FFFFFF" width="2.5" height="2.5"/>
<rect x="8.333" y="13.062" fill="#FFFFFF" width="2.5" height="2.5"/>
<rect x="12.083" y="13.062" fill="#FFFFFF" width="2.5" height="2.5"/>
<rect x="15.917" y="13.062" fill="#FFFFFF" width="2.5" height="2.5"/>
<rect x="19.583" y="13.062" fill="#FFFFFF" width="2.5" height="2.5"/>
<rect x="8.333" y="16.562" fill="#FFFFFF" width="2.5" height="2.5"/>
<rect x="12.083" y="16.562" fill="#FFFFFF" width="2.5" height="2.5"/>
<rect x="15.917" y="16.562" fill="#FFFFFF" width="2.5" height="2.5"/>
<rect x="19.583" y="16.562" fill="#FFFFFF" width="2.5" height="2.5"/>
</svg>
